<?xml version="1.0" encoding="UTF-8"?>
<svg version="1.1" xmlns="http://www.w3.org/2000/svg" width="128" height="128">
<path d="M0 0 C5.94 0 11.88 0 18 0 C18 0.66 18 1.32 18 2 C21.3 2 24.6 2 28 2 C28 2.66 28 3.32 28 4 C30.64 4 33.28 4 36 4 C36 4.66 36 5.32 36 6 C38.64 6 41.28 6 44 6 C44 5.34 44 4.68 44 4 C48.62 4 53.24 4 58 4 C58 4.66 58 5.32 58 6 C59.98 6 61.96 6 64 6 C64 6.66 64 7.32 64 8 C65.98 8 67.96 8 70 8 C70 8.66 70 9.32 70 10 C70.66 10 71.32 10 72 10 C72 10.66 72 11.32 72 12 C72.66 12 73.32 12 74 12 C74 12.66 74 13.32 74 14 C74.66 14 75.32 14 76 14 C76 17.3 76 20.6 76 24 C75.34 24 74.68 24 74 24 C74 25.32 74 26.64 74 28 C73.34 28 72.68 28 72 28 C72 29.98 72 31.96 72 34 C71.34 34 70.68 34 70 34 C70 35.98 70 37.96 70 40 C68.02 40 66.04 40 64 40 C64 40.66 64 41.32 64 42 C65.98 42 67.96 42 70 42 C70 42.66 70 43.32 70 44 C70.66 44 71.32 44 72 44 C72 45.32 72 46.64 72 48 C72.66 48 73.32 48 74 48 C74 53.28 74 58.56 74 64 C73.34 64 72.68 64 72 64 C72 64.66 72 65.32 72 66 C71.34 66 70.68 66 70 66 C70 67.98 70 69.96 70 72 C68.02 72 66.04 72 64 72 C64 72.66 64 73.32 64 74 C65.98 74 67.96 74 70 74 C70 75.98 70 77.96 70 80 C71.32 80 72.64 80 74 80 C74 82.64 74 85.28 74 88 C74.66 88 75.32 88 76 88 C76 89.32 76 90.64 76 92 C76.66 92 77.32 92 78 92 C78 96.62 78 101.24 78 106 C77.34 106 76.68 106 76 106 C76 107.32 76 108.64 76 110 C75.34 110 74.68 110 74 110 C74 110.66 74 111.32 74 112 C72.68 112 71.36 112 70 112 C70 112.66 70 113.32 70 114 C69.34 114 68.68 114 68 114 C68 114.66 68 115.32 68 116 C66.68 116 65.36 116 64 116 C64 116.66 64 117.32 64 118 C61.36 118 58.72 118 56 118 C56 118.66 56 119.32 56 120 C54.68 120 53.36 120 52 120 C52 119.34 52 118.68 52 118 C51.34 118 50.68 118 50 118 C50 117.34 50 116.68 50 116 C47.36 116 44.72 116 42 116 C42 117.32 42 118.64 42 120 C40.68 120 39.36 120 38 120 C38 120.66 38 121.32 38 122 C36.68 122 35.36 122 34 122 C34 122.66 34 123.32 34 124 C28.06 124 22.12 124 16 124 C16 123.34 16 122.68 16 122 C13.36 122 10.72 122 8 122 C8 122.66 8 123.32 8 124 C7.34 124 6.68 124 6 124 C6 124.66 6 125.32 6 126 C2.7 126 -0.6 126 -4 126 C-4 126.66 -4 127.32 -4 128 C-7.3 128 -10.6 128 -14 128 C-14 127.34 -14 126.68 -14 126 C-15.32 126 -16.64 126 -18 126 C-18 125.34 -18 124.68 -18 124 C-21.3 124 -24.6 124 -28 124 C-28 123.34 -28 122.68 -28 122 C-29.98 122 -31.96 122 -34 122 C-34 120.68 -34 119.36 -34 118 C-35.98 118 -37.96 118 -40 118 C-40 117.34 -40 116.68 -40 116 C-40.66 116 -41.32 116 -42 116 C-42 114.68 -42 113.36 -42 112 C-42.66 112 -43.32 112 -44 112 C-44 110.68 -44 109.36 -44 108 C-44.66 108 -45.32 108 -46 108 C-46 106.68 -46 105.36 -46 104 C-46.66 104 -47.32 104 -48 104 C-48 100.7 -48 97.4 -48 94 C-47.34 94 -46.68 94 -46 94 C-46 92.68 -46 91.36 -46 90 C-45.34 90 -44.68 90 -44 90 C-44 88.02 -44 86.04 -44 84 C-44.66 84 -45.32 84 -46 84 C-46 83.34 -46 82.68 -46 82 C-46.66 82 -47.32 82 -48 82 C-48 74.74 -48 67.48 -48 60 C-47.34 60 -46.68 60 -46 60 C-46 56.04 -46 52.08 -46 48 C-46.66 48 -47.32 48 -48 48 C-48 45.36 -48 42.72 -48 40 C-48.66 40 -49.32 40 -50 40 C-50 36.04 -50 32.08 -50 28 C-49.34 28 -48.68 28 -48 28 C-48 25.36 -48 22.72 -48 20 C-47.34 20 -46.68 20 -46 20 C-46 16.7 -46 13.4 -46 10 C-45.34 10 -44.68 10 -44 10 C-44 9.34 -44 8.68 -44 8 C-42.68 8 -41.36 8 -40 8 C-40 7.34 -40 6.68 -40 6 C-38.68 6 -37.36 6 -36 6 C-36 5.34 -36 4.68 -36 4 C-30.06 4 -24.12 4 -18 4 C-18 4.66 -18 5.32 -18 6 C-15.36 6 -12.72 6 -10 6 C-10 5.34 -10 4.68 -10 4 C-8.68 4 -7.36 4 -6 4 C-6 3.34 -6 2.68 -6 2 C-4.02 2 -2.04 2 0 2 C0 1.34 0 0.68 0 0 Z " fill="#F44F1D" transform="translate(50,0)"/>
<path d="M0 0 C2.64 0 5.28 0 8 0 C8 0.66 8 1.32 8 2 C9.98 2 11.96 2 14 2 C14 2.66 14 3.32 14 4 C10.7 4 7.4 4 4 4 C4 4.66 4 5.32 4 6 C3.34 6 2.68 6 2 6 C2 6.66 2 7.32 2 8 C-0.64 8 -3.28 8 -6 8 C-6 8.66 -6 9.32 -6 10 C-13.26 10 -20.52 10 -28 10 C-28 11.32 -28 12.64 -28 14 C-26.68 14 -25.36 14 -24 14 C-24 13.34 -24 12.68 -24 12 C-19.38 12 -14.76 12 -10 12 C-10 12.66 -10 13.32 -10 14 C-8.68 14 -7.36 14 -6 14 C-6 13.34 -6 12.68 -6 12 C4.56 12 15.12 12 26 12 C26 11.34 26 10.68 26 10 C18.74 10 11.48 10 4 10 C4 9.34 4 8.68 4 8 C4.66 8 5.32 8 6 8 C6 7.34 6 6.68 6 6 C10.62 6 15.24 6 20 6 C20 5.34 20 4.68 20 4 C20.66 4 21.32 4 22 4 C22 4.66 22 5.32 22 6 C27.94 6 33.88 6 40 6 C40 5.34 40 4.68 40 4 C42.64 4 45.28 4 48 4 C48 4.66 48 5.32 48 6 C50.64 6 53.28 6 56 6 C56 7.32 56 8.64 56 10 C58.64 10 61.28 10 64 10 C64 13.3 64 16.6 64 20 C62.68 20 61.36 20 60 20 C60 20.66 60 21.32 60 22 C58.68 22 57.36 22 56 22 C56 22.66 56 23.32 56 24 C55.34 24 54.68 24 54 24 C54 29.28 54 34.56 54 40 C52.68 40 51.36 40 50 40 C50 38.02 50 36.04 50 34 C48.68 34 47.36 34 46 34 C46 33.34 46 32.68 46 32 C45.34 32 44.68 32 44 32 C44 30.02 44 28.04 44 26 C43.34 26 42.68 26 42 26 C42 24.02 42 22.04 42 20 C41.34 20 40.68 20 40 20 C40 19.34 40 18.68 40 18 C38.02 18 36.04 18 34 18 C34 17.34 34 16.68 34 16 C33.34 16 32.68 16 32 16 C32 15.34 32 14.68 32 14 C31.34 14 30.68 14 30 14 C30 13.34 30 12.68 30 12 C29.34 12 28.68 12 28 12 C28 13.32 28 14.64 28 16 C28.66 16 29.32 16 30 16 C30 16.66 30 17.32 30 18 C30.66 18 31.32 18 32 18 C32 19.32 32 20.64 32 22 C32.66 22 33.32 22 34 22 C34 22.66 34 23.32 34 24 C35.32 24 36.64 24 38 24 C38 24.66 38 25.32 38 26 C38.66 26 39.32 26 40 26 C40 27.32 40 28.64 40 30 C40.66 30 41.32 30 42 30 C42 31.32 42 32.64 42 34 C42.66 34 43.32 34 44 34 C44 35.32 44 36.64 44 38 C44.66 38 45.32 38 46 38 C46 39.32 46 40.64 46 42 C47.98 42 49.96 42 52 42 C52 43.32 52 44.64 52 46 C51.34 46 50.68 46 50 46 C50 46.66 50 47.32 50 48 C48.02 48 46.04 48 44 48 C44 48.66 44 49.32 44 50 C42.68 50 41.36 50 40 50 C40 50.66 40 51.32 40 52 C36.04 52 32.08 52 28 52 C28 52.66 28 53.32 28 54 C27.34 54 26.68 54 26 54 C26 54.66 26 55.32 26 56 C24.68 56 23.36 56 22 56 C22 56.66 22 57.32 22 58 C21.34 58 20.68 58 20 58 C20 58.66 20 59.32 20 60 C14.72 60 9.44 60 4 60 C4 60.66 4 61.32 4 62 C3.34 62 2.68 62 2 62 C2 63.32 2 64.64 2 66 C-7.24 66 -16.48 66 -26 66 C-26 64.68 -26 63.36 -26 62 C-27.32 62 -28.64 62 -30 62 C-30 61.34 -30 60.68 -30 60 C-30.66 60 -31.32 60 -32 60 C-32 59.34 -32 58.68 -32 58 C-32.66 58 -33.32 58 -34 58 C-34 56.68 -34 55.36 -34 54 C-35.32 54 -36.64 54 -38 54 C-38 51.36 -38 48.72 -38 46 C-39.98 46 -41.96 46 -44 46 C-44 44.02 -44 42.04 -44 40 C-44.66 40 -45.32 40 -46 40 C-46 37.36 -46 34.72 -46 32 C-45.34 32 -44.68 32 -44 32 C-44 31.34 -44 30.68 -44 30 C-42.68 30 -41.36 30 -40 30 C-40 28.68 -40 27.36 -40 26 C-41.32 26 -42.64 26 -44 26 C-44 25.34 -44 24.68 -44 24 C-44.66 24 -45.32 24 -46 24 C-46 22.68 -46 21.36 -46 20 C-45.34 20 -44.68 20 -44 20 C-44 19.34 -44 18.68 -44 18 C-44.66 18 -45.32 18 -46 18 C-46 16.68 -46 15.36 -46 14 C-45.34 14 -44.68 14 -44 14 C-44 12.68 -44 11.36 -44 10 C-42.02 10 -40.04 10 -38 10 C-38 8.68 -38 7.36 -38 6 C-36.68 6 -35.36 6 -34 6 C-34 5.34 -34 4.68 -34 4 C-24.76 4 -15.52 4 -6 4 C-6 3.34 -6 2.68 -6 2 C-4.02 2 -2.04 2 0 2 C0 1.34 0 0.68 0 0 Z " fill="#FEAB41" transform="translate(54,4)"/>
<path d="M0 0 C5.94 0 11.88 0 18 0 C18 0.66 18 1.32 18 2 C21.3 2 24.6 2 28 2 C28 2.66 28 3.32 28 4 C30.64 4 33.28 4 36 4 C36 4.66 36 5.32 36 6 C38.64 6 41.28 6 44 6 C44 5.34 44 4.68 44 4 C48.62 4 53.24 4 58 4 C58 4.66 58 5.32 58 6 C59.98 6 61.96 6 64 6 C64 6.66 64 7.32 64 8 C65.98 8 67.96 8 70 8 C70 8.66 70 9.32 70 10 C70.66 10 71.32 10 72 10 C72 10.66 72 11.32 72 12 C72.66 12 73.32 12 74 12 C74 12.66 74 13.32 74 14 C74.66 14 75.32 14 76 14 C76 17.3 76 20.6 76 24 C75.34 24 74.68 24 74 24 C74 25.32 74 26.64 74 28 C73.34 28 72.68 28 72 28 C72 29.98 72 31.96 72 34 C71.34 34 70.68 34 70 34 C70 35.98 70 37.96 70 40 C68.02 40 66.04 40 64 40 C64 40.66 64 41.32 64 42 C65.98 42 67.96 42 70 42 C70 42.66 70 43.32 70 44 C70.66 44 71.32 44 72 44 C72 45.32 72 46.64 72 48 C72.66 48 73.32 48 74 48 C74 53.28 74 58.56 74 64 C73.34 64 72.68 64 72 64 C72 64.66 72 65.32 72 66 C71.34 66 70.68 66 70 66 C70 67.98 70 69.96 70 72 C68.02 72 66.04 72 64 72 C64 72.66 64 73.32 64 74 C65.98 74 67.96 74 70 74 C70 75.98 70 77.96 70 80 C71.32 80 72.64 80 74 80 C74 82.64 74 85.28 74 88 C74.66 88 75.32 88 76 88 C76 89.32 76 90.64 76 92 C76.66 92 77.32 92 78 92 C78 96.62 78 101.24 78 106 C77.34 106 76.68 106 76 106 C76 107.32 76 108.64 76 110 C75.34 110 74.68 110 74 110 C74 110.66 74 111.32 74 112 C72.68 112 71.36 112 70 112 C70 112.66 70 113.32 70 114 C69.34 114 68.68 114 68 114 C68 114.66 68 115.32 68 116 C66.68 116 65.36 116 64 116 C64 116.66 64 117.32 64 118 C61.36 118 58.72 118 56 118 C56 118.66 56 119.32 56 120 C54.68 120 53.36 120 52 120 C52 119.34 52 118.68 52 118 C51.34 118 50.68 118 50 118 C50 117.34 50 116.68 50 116 C47.36 116 44.72 116 42 116 C42 117.32 42 118.64 42 120 C40.68 120 39.36 120 38 120 C38 120.66 38 121.32 38 122 C36.68 122 35.36 122 34 122 C34 122.66 34 123.32 34 124 C28.06 124 22.12 124 16 124 C16 123.34 16 122.68 16 122 C13.36 122 10.72 122 8 122 C8 122.66 8 123.32 8 124 C7.34 124 6.68 124 6 124 C6 124.66 6 125.32 6 126 C2.7 126 -0.6 126 -4 126 C-4 126.66 -4 127.32 -4 128 C-7.3 128 -10.6 128 -14 128 C-14 127.34 -14 126.68 -14 126 C-15.32 126 -16.64 126 -18 126 C-18 125.34 -18 124.68 -18 124 C-21.3 124 -24.6 124 -28 124 C-28 123.34 -28 122.68 -28 122 C-29.98 122 -31.96 122 -34 122 C-34 120.68 -34 119.36 -34 118 C-35.98 118 -37.96 118 -40 118 C-40 117.34 -40 116.68 -40 116 C-40.66 116 -41.32 116 -42 116 C-42 114.68 -42 113.36 -42 112 C-42.66 112 -43.32 112 -44 112 C-44 110.68 -44 109.36 -44 108 C-44.66 108 -45.32 108 -46 108 C-46 106.68 -46 105.36 -46 104 C-46.66 104 -47.32 104 -48 104 C-48 100.7 -48 97.4 -48 94 C-47.34 94 -46.68 94 -46 94 C-46 92.68 -46 91.36 -46 90 C-45.34 90 -44.68 90 -44 90 C-44 88.02 -44 86.04 -44 84 C-40.7 84 -37.4 84 -34 84 C-34 84.66 -34 85.32 -34 86 C-34.66 86 -35.32 86 -36 86 C-36 86.66 -36 87.32 -36 88 C-37.32 88 -38.64 88 -40 88 C-40 88.66 -40 89.32 -40 90 C-40.66 90 -41.32 90 -42 90 C-42 90.66 -42 91.32 -42 92 C-42.66 92 -43.32 92 -44 92 C-44 94.64 -44 97.28 -44 100 C-44.66 100 -45.32 100 -46 100 C-46 100.66 -46 101.32 -46 102 C-45.34 102 -44.68 102 -44 102 C-44 103.32 -44 104.64 -44 106 C-43.34 106 -42.68 106 -42 106 C-42 107.32 -42 108.64 -42 110 C-41.34 110 -40.68 110 -40 110 C-40 111.32 -40 112.64 -40 114 C-38.68 114 -37.36 114 -36 114 C-36 114.66 -36 115.32 -36 116 C-34.68 116 -33.36 116 -32 116 C-32 117.32 -32 118.64 -32 120 C-30.02 120 -28.04 120 -26 120 C-26 120.66 -26 121.32 -26 122 C-20.72 122 -15.44 122 -10 122 C-10 122.66 -10 123.32 -10 124 C-8.68 124 -7.36 124 -6 124 C-6 123.34 -6 122.68 -6 122 C-4.02 122 -2.04 122 0 122 C0 121.34 0 120.68 0 120 C0.66 120 1.32 120 2 120 C2 119.34 2 118.68 2 118 C2.66 118 3.32 118 4 118 C4 116.68 4 115.36 4 114 C2.02 114 0.04 114 -2 114 C-2 113.34 -2 112.68 -2 112 C-2.66 112 -3.32 112 -4 112 C-4 111.34 -4 110.68 -4 110 C-2.68 110 -1.36 110 0 110 C0 110.66 0 111.32 0 112 C3.3 112 6.6 112 10 112 C10 113.32 10 114.64 10 116 C11.98 116 13.96 116 16 116 C16 114.68 16 113.36 16 112 C17.32 112 18.64 112 20 112 C20 112.66 20 113.32 20 114 C19.34 114 18.68 114 18 114 C18 114.66 18 115.32 18 116 C18.66 116 19.32 116 20 116 C20 116.66 20 117.32 20 118 C20.66 118 21.32 118 22 118 C22 118.66 22 119.32 22 120 C24.64 120 27.28 120 30 120 C30 119.34 30 118.68 30 118 C31.32 118 32.64 118 34 118 C34 116.68 34 115.36 34 114 C34.66 114 35.32 114 36 114 C36 113.34 36 112.68 36 112 C37.98 112 39.96 112 42 112 C42 110.68 42 109.36 42 108 C42.66 108 43.32 108 44 108 C44 106.68 44 105.36 44 104 C45.32 104 46.64 104 48 104 C48 102.68 48 101.36 48 100 C47.34 100 46.68 100 46 100 C46 99.34 46 98.68 46 98 C46.66 98 47.32 98 48 98 C48 96.02 48 94.04 48 92 C44.7 92 41.4 92 38 92 C38 91.34 38 90.68 38 90 C41.3 90 44.6 90 48 90 C48 89.34 48 88.68 48 88 C48.66 88 49.32 88 50 88 C50 87.34 50 86.68 50 86 C51.32 86 52.64 86 54 86 C54 81.38 54 76.76 54 72 C54.66 72 55.32 72 56 72 C56 71.34 56 70.68 56 70 C57.32 70 58.64 70 60 70 C60 69.34 60 68.68 60 68 C61.32 68 62.64 68 64 68 C64 65.36 64 62.72 64 60 C65.32 60 66.64 60 68 60 C68 58.68 68 57.36 68 56 C66.02 56 64.04 56 62 56 C62 55.34 62 54.68 62 54 C60.68 54 59.36 54 58 54 C58 53.34 58 52.68 58 52 C57.34 52 56.68 52 56 52 C56 52.66 56 53.32 56 54 C54.02 54 52.04 54 50 54 C50 54.66 50 55.32 50 56 C48.02 56 46.04 56 44 56 C44 55.34 44 54.68 44 54 C45.32 54 46.64 54 48 54 C48 53.34 48 52.68 48 52 C49.98 52 51.96 52 54 52 C54 51.34 54 50.68 54 50 C54.66 50 55.32 50 56 50 C56 48.68 56 47.36 56 46 C54.02 46 52.04 46 50 46 C50 44.68 50 43.36 50 42 C49.34 42 48.68 42 48 42 C48 40.68 48 39.36 48 38 C47.34 38 46.68 38 46 38 C46 36.68 46 35.36 46 34 C45.34 34 44.68 34 44 34 C44 32.68 44 31.36 44 30 C43.34 30 42.68 30 42 30 C42 29.34 42 28.68 42 28 C40.68 28 39.36 28 38 28 C38 27.34 38 26.68 38 26 C37.34 26 36.68 26 36 26 C36 24.68 36 23.36 36 22 C35.34 22 34.68 22 34 22 C34 21.34 34 20.68 34 20 C33.34 20 32.68 20 32 20 C32 18.68 32 17.36 32 16 C32.66 16 33.32 16 34 16 C34 16.66 34 17.32 34 18 C34.66 18 35.32 18 36 18 C36 18.66 36 19.32 36 20 C36.66 20 37.32 20 38 20 C38 20.66 38 21.32 38 22 C39.98 22 41.96 22 44 22 C44 22.66 44 23.32 44 24 C44.66 24 45.32 24 46 24 C46 25.98 46 27.96 46 30 C46.66 30 47.32 30 48 30 C48 31.98 48 33.96 48 36 C48.66 36 49.32 36 50 36 C50 36.66 50 37.32 50 38 C51.32 38 52.64 38 54 38 C54 39.98 54 41.96 54 44 C55.32 44 56.64 44 58 44 C58 38.72 58 33.44 58 28 C58.66 28 59.32 28 60 28 C60 27.34 60 26.68 60 26 C61.32 26 62.64 26 64 26 C64 25.34 64 24.68 64 24 C65.32 24 66.64 24 68 24 C68 20.7 68 17.4 68 14 C65.36 14 62.72 14 60 14 C60 12.68 60 11.36 60 10 C57.36 10 54.72 10 52 10 C52 9.34 52 8.68 52 8 C49.36 8 46.72 8 44 8 C44 8.66 44 9.32 44 10 C38.06 10 32.12 10 26 10 C26 9.34 26 8.68 26 8 C25.34 8 24.68 8 24 8 C24 8.66 24 9.32 24 10 C19.38 10 14.76 10 10 10 C10 10.66 10 11.32 10 12 C9.34 12 8.68 12 8 12 C8 12.66 8 13.32 8 14 C15.26 14 22.52 14 30 14 C30 14.66 30 15.32 30 16 C19.44 16 8.88 16 -2 16 C-2 16.66 -2 17.32 -2 18 C-3.32 18 -4.64 18 -6 18 C-6 17.34 -6 16.68 -6 16 C-10.62 16 -15.24 16 -20 16 C-20 16.66 -20 17.32 -20 18 C-21.32 18 -22.64 18 -24 18 C-24 16.68 -24 15.36 -24 14 C-16.74 14 -9.48 14 -2 14 C-2 13.34 -2 12.68 -2 12 C0.64 12 3.28 12 6 12 C6 11.34 6 10.68 6 10 C6.66 10 7.32 10 8 10 C8 9.34 8 8.68 8 8 C11.3 8 14.6 8 18 8 C18 7.34 18 6.68 18 6 C16.02 6 14.04 6 12 6 C12 5.34 12 4.68 12 4 C9.36 4 6.72 4 4 4 C4 4.66 4 5.32 4 6 C2.02 6 0.04 6 -2 6 C-2 6.66 -2 7.32 -2 8 C-7.94 8 -13.88 8 -20 8 C-20 7.34 -20 6.68 -20 6 C-24.62 6 -29.24 6 -34 6 C-34 6.66 -34 7.32 -34 8 C-34.66 8 -35.32 8 -36 8 C-36 8.66 -36 9.32 -36 10 C-37.98 10 -39.96 10 -42 10 C-42 11.32 -42 12.64 -42 14 C-42.66 14 -43.32 14 -44 14 C-44 15.98 -44 17.96 -44 20 C-44.66 20 -45.32 20 -46 20 C-46 16.7 -46 13.4 -46 10 C-45.34 10 -44.68 10 -44 10 C-44 9.34 -44 8.68 -44 8 C-42.68 8 -41.36 8 -40 8 C-40 7.34 -40 6.68 -40 6 C-38.68 6 -37.36 6 -36 6 C-36 5.34 -36 4.68 -36 4 C-30.06 4 -24.12 4 -18 4 C-18 4.66 -18 5.32 -18 6 C-15.36 6 -12.72 6 -10 6 C-10 5.34 -10 4.68 -10 4 C-8.68 4 -7.36 4 -6 4 C-6 3.34 -6 2.68 -6 2 C-4.02 2 -2.04 2 0 2 C0 1.34 0 0.68 0 0 Z " fill="#F4501D" transform="translate(50,0)"/>
<path d="M0 0 C0.66 0 1.32 0 2 0 C2 0.66 2 1.32 2 2 C3.32 2 4.64 2 6 2 C6 2.66 6 3.32 6 4 C7.98 4 9.96 4 12 4 C12 5.32 12 6.64 12 8 C10.68 8 9.36 8 8 8 C8 10.64 8 13.28 8 16 C6.68 16 5.36 16 4 16 C4 16.66 4 17.32 4 18 C2.68 18 1.36 18 0 18 C0 18.66 0 19.32 0 20 C-0.66 20 -1.32 20 -2 20 C-2 24.62 -2 29.24 -2 34 C-3.32 34 -4.64 34 -6 34 C-6 34.66 -6 35.32 -6 36 C-6.66 36 -7.32 36 -8 36 C-8 36.66 -8 37.32 -8 38 C-11.3 38 -14.6 38 -18 38 C-18 38.66 -18 39.32 -18 40 C-14.7 40 -11.4 40 -8 40 C-8 41.98 -8 43.96 -8 46 C-8.66 46 -9.32 46 -10 46 C-10 46.66 -10 47.32 -10 48 C-9.34 48 -8.68 48 -8 48 C-8 49.32 -8 50.64 -8 52 C-9.32 52 -10.64 52 -12 52 C-12 53.32 -12 54.64 -12 56 C-12.66 56 -13.32 56 -14 56 C-14 57.32 -14 58.64 -14 60 C-15.98 60 -17.96 60 -20 60 C-20 60.66 -20 61.32 -20 62 C-20.66 62 -21.32 62 -22 62 C-22 63.32 -22 64.64 -22 66 C-23.32 66 -24.64 66 -26 66 C-26 66.66 -26 67.32 -26 68 C-28.64 68 -31.28 68 -34 68 C-34 67.34 -34 66.68 -34 66 C-34.66 66 -35.32 66 -36 66 C-36 65.34 -36 64.68 -36 64 C-36.66 64 -37.32 64 -38 64 C-38 63.34 -38 62.68 -38 62 C-37.34 62 -36.68 62 -36 62 C-36 61.34 -36 60.68 -36 60 C-37.32 60 -38.64 60 -40 60 C-40 59.34 -40 58.68 -40 58 C-42.64 58 -45.28 58 -48 58 C-48 57.34 -48 56.68 -48 56 C-49.32 56 -50.64 56 -52 56 C-52 55.34 -52 54.68 -52 54 C-53.98 54 -55.96 54 -58 54 C-58 53.34 -58 52.68 -58 52 C-56.68 52 -55.36 52 -54 52 C-54 50.68 -54 49.36 -54 48 C-54.66 48 -55.32 48 -56 48 C-56 45.36 -56 42.72 -56 40 C-55.34 40 -54.68 40 -54 40 C-54 39.34 -54 38.68 -54 38 C-53.34 38 -52.68 38 -52 38 C-52 36.68 -52 35.36 -52 34 C-52.66 34 -53.32 34 -54 34 C-54 33.34 -54 32.68 -54 32 C-55.32 32 -56.64 32 -58 32 C-58 31.34 -58 30.68 -58 30 C-56.02 30 -54.04 30 -52 30 C-52 29.34 -52 28.68 -52 28 C-49.36 28 -46.72 28 -44 28 C-44 27.34 -44 26.68 -44 26 C-42.68 26 -41.36 26 -40 26 C-40 26.66 -40 27.32 -40 28 C-39.34 28 -38.68 28 -38 28 C-38 28.66 -38 29.32 -38 30 C-36.02 30 -34.04 30 -32 30 C-32 30.66 -32 31.32 -32 32 C-29.36 32 -26.72 32 -24 32 C-24 32.66 -24 33.32 -24 34 C-23.34 34 -22.68 34 -22 34 C-22 32.68 -22 31.36 -22 30 C-23.98 30 -25.96 30 -28 30 C-28 29.34 -28 28.68 -28 28 C-28.66 28 -29.32 28 -30 28 C-30 27.34 -30 26.68 -30 26 C-30.66 26 -31.32 26 -32 26 C-32 22.7 -32 19.4 -32 16 C-31.34 16 -30.68 16 -30 16 C-30 14.68 -30 13.36 -30 12 C-29.34 12 -28.68 12 -28 12 C-28 11.34 -28 10.68 -28 10 C-26.68 10 -25.36 10 -24 10 C-24 9.34 -24 8.68 -24 8 C-23.34 8 -22.68 8 -22 8 C-22 7.34 -22 6.68 -22 6 C-18.7 6 -15.4 6 -12 6 C-12 5.34 -12 4.68 -12 4 C-10.02 4 -8.04 4 -6 4 C-6 3.34 -6 2.68 -6 2 C-4.02 2 -2.04 2 0 2 C0 1.34 0 0.68 0 0 Z " fill="#FEAA41" transform="translate(106,52)"/>
<path d="M0 0 C1.98 0 3.96 0 6 0 C6 0.66 6 1.32 6 2 C6.66 2 7.32 2 8 2 C8 3.98 8 5.96 8 8 C9.98 8 11.96 8 14 8 C14 11.3 14 14.6 14 18 C14.66 18 15.32 18 16 18 C16 17.34 16 16.68 16 16 C17.32 16 18.64 16 20 16 C20 15.34 20 14.68 20 14 C20.66 14 21.32 14 22 14 C22 12.02 22 10.04 22 8 C20.02 8 18.04 8 16 8 C16 7.34 16 6.68 16 6 C15.34 6 14.68 6 14 6 C14 5.34 14 4.68 14 4 C14.66 4 15.32 4 16 4 C16 3.34 16 2.68 16 2 C19.96 2 23.92 2 28 2 C28 2.66 28 3.32 28 4 C29.32 4 30.64 4 32 4 C32 4.66 32 5.32 32 6 C32.66 6 33.32 6 34 6 C34 6.66 34 7.32 34 8 C35.32 8 36.64 8 38 8 C38 8.66 38 9.32 38 10 C38.66 10 39.32 10 40 10 C40 11.32 40 12.64 40 14 C40.66 14 41.32 14 42 14 C42 15.32 42 16.64 42 18 C42.66 18 43.32 18 44 18 C44 19.32 44 20.64 44 22 C43.34 22 42.68 22 42 22 C42 22.66 42 23.32 42 24 C42.66 24 43.32 24 44 24 C44 24.66 44 25.32 44 26 C40.04 26 36.08 26 32 26 C32 26.66 32 27.32 32 28 C31.34 28 30.68 28 30 28 C30 28.66 30 29.32 30 30 C29.34 30 28.68 30 28 30 C28 30.66 28 31.32 28 32 C26.68 32 25.36 32 24 32 C24 32.66 24 33.32 24 34 C22.02 34 20.04 34 18 34 C18 34.66 18 35.32 18 36 C17.34 36 16.68 36 16 36 C16 36.66 16 37.32 16 38 C15.34 38 14.68 38 14 38 C14 38.66 14 39.32 14 40 C13.34 40 12.68 40 12 40 C12 40.66 12 41.32 12 42 C4.74 42 -2.52 42 -10 42 C-10 41.34 -10 40.68 -10 40 C-10.66 40 -11.32 40 -12 40 C-12 40.66 -12 41.32 -12 42 C-15.3 42 -18.6 42 -22 42 C-22 41.34 -22 40.68 -22 40 C-22.66 40 -23.32 40 -24 40 C-24 39.34 -24 38.68 -24 38 C-25.32 38 -26.64 38 -28 38 C-28 36.68 -28 35.36 -28 34 C-28.66 34 -29.32 34 -30 34 C-30 32.02 -30 30.04 -30 28 C-29.34 28 -28.68 28 -28 28 C-28 29.32 -28 30.64 -28 32 C-26.68 32 -25.36 32 -24 32 C-24 30.68 -24 29.36 -24 28 C-24.66 28 -25.32 28 -26 28 C-26 26.68 -26 25.36 -26 24 C-26.66 24 -27.32 24 -28 24 C-28 24.66 -28 25.32 -28 26 C-28.66 26 -29.32 26 -30 26 C-30 24.68 -30 23.36 -30 22 C-29.34 22 -28.68 22 -28 22 C-28 20.02 -28 18.04 -28 16 C-26.68 16 -25.36 16 -24 16 C-24 14.02 -24 12.04 -24 10 C-23.34 10 -22.68 10 -22 10 C-22 8.02 -22 6.04 -22 4 C-15.4 4 -8.8 4 -2 4 C-2 3.34 -2 2.68 -2 2 C-1.34 2 -0.68 2 0 2 C0 1.34 0 0.68 0 0 Z " fill="#FFF1DB" transform="translate(54,20)"/>
<path d="M0 0 C0.66 0 1.32 0 2 0 C2 0.66 2 1.32 2 2 C3.98 2 5.96 2 8 2 C8 3.98 8 5.96 8 8 C9.32 8 10.64 8 12 8 C12 10.64 12 13.28 12 16 C12.66 16 13.32 16 14 16 C14 17.32 14 18.64 14 20 C14.66 20 15.32 20 16 20 C16 24.62 16 29.24 16 34 C15.34 34 14.68 34 14 34 C14 35.32 14 36.64 14 38 C13.34 38 12.68 38 12 38 C12 38.66 12 39.32 12 40 C10.68 40 9.36 40 8 40 C8 40.66 8 41.32 8 42 C7.34 42 6.68 42 6 42 C6 42.66 6 43.32 6 44 C4.68 44 3.36 44 2 44 C2 44.66 2 45.32 2 46 C-0.64 46 -3.28 46 -6 46 C-6 46.66 -6 47.32 -6 48 C-7.32 48 -8.64 48 -10 48 C-10 47.34 -10 46.68 -10 46 C-10.66 46 -11.32 46 -12 46 C-12 45.34 -12 44.68 -12 44 C-14.64 44 -17.28 44 -20 44 C-20 45.32 -20 46.64 -20 48 C-21.32 48 -22.64 48 -24 48 C-24 48.66 -24 49.32 -24 50 C-25.32 50 -26.64 50 -28 50 C-28 50.66 -28 51.32 -28 52 C-33.94 52 -39.88 52 -46 52 C-46 51.34 -46 50.68 -46 50 C-48.64 50 -51.28 50 -54 50 C-54 50.66 -54 51.32 -54 52 C-54.66 52 -55.32 52 -56 52 C-56 52.66 -56 53.32 -56 54 C-59.3 54 -62.6 54 -66 54 C-66 54.66 -66 55.32 -66 56 C-69.3 56 -72.6 56 -76 56 C-76 55.34 -76 54.68 -76 54 C-77.32 54 -78.64 54 -80 54 C-80 53.34 -80 52.68 -80 52 C-83.3 52 -86.6 52 -90 52 C-90 51.34 -90 50.68 -90 50 C-91.98 50 -93.96 50 -96 50 C-96 48.68 -96 47.36 -96 46 C-97.98 46 -99.96 46 -102 46 C-102 45.34 -102 44.68 -102 44 C-102.66 44 -103.32 44 -104 44 C-104 42.68 -104 41.36 -104 40 C-104.66 40 -105.32 40 -106 40 C-106 38.68 -106 37.36 -106 36 C-106.66 36 -107.32 36 -108 36 C-108 34.68 -108 33.36 -108 32 C-108.66 32 -109.32 32 -110 32 C-110 28.7 -110 25.4 -110 22 C-109.34 22 -108.68 22 -108 22 C-108 20.68 -108 19.36 -108 18 C-107.34 18 -106.68 18 -106 18 C-106 16.02 -106 14.04 -106 12 C-102.7 12 -99.4 12 -96 12 C-96 12.66 -96 13.32 -96 14 C-96.66 14 -97.32 14 -98 14 C-98 14.66 -98 15.32 -98 16 C-99.32 16 -100.64 16 -102 16 C-102 16.66 -102 17.32 -102 18 C-102.66 18 -103.32 18 -104 18 C-104 18.66 -104 19.32 -104 20 C-104.66 20 -105.32 20 -106 20 C-106 22.64 -106 25.28 -106 28 C-106.66 28 -107.32 28 -108 28 C-108 28.66 -108 29.32 -108 30 C-107.34 30 -106.68 30 -106 30 C-106 31.32 -106 32.64 -106 34 C-105.34 34 -104.68 34 -104 34 C-104 35.32 -104 36.64 -104 38 C-103.34 38 -102.68 38 -102 38 C-102 39.32 -102 40.64 -102 42 C-100.68 42 -99.36 42 -98 42 C-98 42.66 -98 43.32 -98 44 C-96.68 44 -95.36 44 -94 44 C-94 45.32 -94 46.64 -94 48 C-92.02 48 -90.04 48 -88 48 C-88 48.66 -88 49.32 -88 50 C-82.72 50 -77.44 50 -72 50 C-72 50.66 -72 51.32 -72 52 C-70.68 52 -69.36 52 -68 52 C-68 51.34 -68 50.68 -68 50 C-66.02 50 -64.04 50 -62 50 C-62 49.34 -62 48.68 -62 48 C-61.34 48 -60.68 48 -60 48 C-60 47.34 -60 46.68 -60 46 C-59.34 46 -58.68 46 -58 46 C-58 44.68 -58 43.36 -58 42 C-59.98 42 -61.96 42 -64 42 C-64 41.34 -64 40.68 -64 40 C-64.66 40 -65.32 40 -66 40 C-66 39.34 -66 38.68 -66 38 C-64.68 38 -63.36 38 -62 38 C-62 38.66 -62 39.32 -62 40 C-58.7 40 -55.4 40 -52 40 C-52 41.32 -52 42.64 -52 44 C-50.02 44 -48.04 44 -46 44 C-46 42.68 -46 41.36 -46 40 C-44.68 40 -43.36 40 -42 40 C-42 40.66 -42 41.32 -42 42 C-42.66 42 -43.32 42 -44 42 C-44 42.66 -44 43.32 -44 44 C-43.34 44 -42.68 44 -42 44 C-42 44.66 -42 45.32 -42 46 C-41.34 46 -40.68 46 -40 46 C-40 46.66 -40 47.32 -40 48 C-37.36 48 -34.72 48 -32 48 C-32 47.34 -32 46.68 -32 46 C-30.68 46 -29.36 46 -28 46 C-28 44.68 -28 43.36 -28 42 C-27.34 42 -26.68 42 -26 42 C-26 41.34 -26 40.68 -26 40 C-24.02 40 -22.04 40 -20 40 C-20 38.68 -20 37.36 -20 36 C-18.02 36 -16.04 36 -14 36 C-14 37.98 -14 39.96 -14 42 C-12.68 42 -11.36 42 -10 42 C-10 42.66 -10 43.32 -10 44 C-8.02 44 -6.04 44 -4 44 C-4 42.68 -4 41.36 -4 40 C-2.68 40 -1.36 40 0 40 C0 37.36 0 34.72 0 32 C0.66 32 1.32 32 2 32 C2 31.34 2 30.68 2 30 C3.32 30 4.64 30 6 30 C6 29.34 6 28.68 6 28 C6.66 28 7.32 28 8 28 C8 24.7 8 21.4 8 18 C7.34 18 6.68 18 6 18 C6 13.38 6 8.76 6 4 C4.02 4 2.04 4 0 4 C0 2.68 0 1.36 0 0 Z " fill="#FE0100" transform="translate(112,72)"/>
<path d="M0 0 C5.94 0 11.88 0 18 0 C18 0.66 18 1.32 18 2 C21.3 2 24.6 2 28 2 C28 2.66 28 3.32 28 4 C30.64 4 33.28 4 36 4 C36 4.66 36 5.32 36 6 C38.64 6 41.28 6 44 6 C44 5.34 44 4.68 44 4 C48.62 4 53.24 4 58 4 C58 4.66 58 5.32 58 6 C59.98 6 61.96 6 64 6 C64 6.66 64 7.32 64 8 C65.98 8 67.96 8 70 8 C70 8.66 70 9.32 70 10 C70.66 10 71.32 10 72 10 C72 10.66 72 11.32 72 12 C72.66 12 73.32 12 74 12 C74 12.66 74 13.32 74 14 C74.66 14 75.32 14 76 14 C76 17.3 76 20.6 76 24 C75.34 24 74.68 24 74 24 C74 25.32 74 26.64 74 28 C73.34 28 72.68 28 72 28 C72 29.98 72 31.96 72 34 C71.34 34 70.68 34 70 34 C70 35.98 70 37.96 70 40 C68.02 40 66.04 40 64 40 C64 40.66 64 41.32 64 42 C63.34 42 62.68 42 62 42 C62 40.68 62 39.36 62 38 C63.98 38 65.96 38 68 38 C68 34.7 68 31.4 68 28 C66.68 28 65.36 28 64 28 C64 26.68 64 25.36 64 24 C65.32 24 66.64 24 68 24 C68 20.7 68 17.4 68 14 C65.36 14 62.72 14 60 14 C60 12.68 60 11.36 60 10 C57.36 10 54.72 10 52 10 C52 9.34 52 8.68 52 8 C49.36 8 46.72 8 44 8 C44 8.66 44 9.32 44 10 C38.06 10 32.12 10 26 10 C26 9.34 26 8.68 26 8 C25.34 8 24.68 8 24 8 C24 8.66 24 9.32 24 10 C19.38 10 14.76 10 10 10 C10 10.66 10 11.32 10 12 C9.34 12 8.68 12 8 12 C8 12.66 8 13.32 8 14 C15.26 14 22.52 14 30 14 C30 14.66 30 15.32 30 16 C19.44 16 8.88 16 -2 16 C-2 16.66 -2 17.32 -2 18 C-3.32 18 -4.64 18 -6 18 C-6 17.34 -6 16.68 -6 16 C-10.62 16 -15.24 16 -20 16 C-20 16.66 -20 17.32 -20 18 C-21.32 18 -22.64 18 -24 18 C-24 16.68 -24 15.36 -24 14 C-16.74 14 -9.48 14 -2 14 C-2 13.34 -2 12.68 -2 12 C0.64 12 3.28 12 6 12 C6 11.34 6 10.68 6 10 C6.66 10 7.32 10 8 10 C8 9.34 8 8.68 8 8 C11.3 8 14.6 8 18 8 C18 7.34 18 6.68 18 6 C16.02 6 14.04 6 12 6 C12 5.34 12 4.68 12 4 C9.36 4 6.72 4 4 4 C4 4.66 4 5.32 4 6 C2.02 6 0.04 6 -2 6 C-2 6.66 -2 7.32 -2 8 C-7.94 8 -13.88 8 -20 8 C-20 7.34 -20 6.68 -20 6 C-24.62 6 -29.24 6 -34 6 C-34 6.66 -34 7.32 -34 8 C-34.66 8 -35.32 8 -36 8 C-36 8.66 -36 9.32 -36 10 C-37.98 10 -39.96 10 -42 10 C-42 11.32 -42 12.64 -42 14 C-42.66 14 -43.32 14 -44 14 C-44 15.98 -44 17.96 -44 20 C-44.66 20 -45.32 20 -46 20 C-46 16.7 -46 13.4 -46 10 C-45.34 10 -44.68 10 -44 10 C-44 9.34 -44 8.68 -44 8 C-42.68 8 -41.36 8 -40 8 C-40 7.34 -40 6.68 -40 6 C-38.68 6 -37.36 6 -36 6 C-36 5.34 -36 4.68 -36 4 C-30.06 4 -24.12 4 -18 4 C-18 4.66 -18 5.32 -18 6 C-15.36 6 -12.72 6 -10 6 C-10 5.34 -10 4.68 -10 4 C-8.68 4 -7.36 4 -6 4 C-6 3.34 -6 2.68 -6 2 C-4.02 2 -2.04 2 0 2 C0 1.34 0 0.68 0 0 Z " fill="#FF0000" transform="translate(50,0)"/>
<path d="M0 0 C1.32 0 2.64 0 4 0 C4 0.66 4 1.32 4 2 C4.66 2 5.32 2 6 2 C6 2.66 6 3.32 6 4 C7.98 4 9.96 4 12 4 C12 6.64 12 9.28 12 12 C13.32 12 14.64 12 16 12 C16 12.66 16 13.32 16 14 C17.32 14 18.64 14 20 14 C20 14.66 20 15.32 20 16 C20.66 16 21.32 16 22 16 C22 17.32 22 18.64 22 20 C23.32 20 24.64 20 26 20 C26 20.66 26 21.32 26 22 C27.32 22 28.64 22 30 22 C30 22.66 30 23.32 30 24 C28.02 24 26.04 24 24 24 C24 24.66 24 25.32 24 26 C23.34 26 22.68 26 22 26 C22 27.32 22 28.64 22 30 C21.34 30 20.68 30 20 30 C20 30.66 20 31.32 20 32 C19.34 32 18.68 32 18 32 C18 32.66 18 33.32 18 34 C13.38 34 8.76 34 4 34 C4 33.34 4 32.68 4 32 C1.36 32 -1.28 32 -4 32 C-4 31.34 -4 30.68 -4 30 C-5.32 30 -6.64 30 -8 30 C-8 29.34 -8 28.68 -8 28 C-9.98 28 -11.96 28 -14 28 C-14 27.34 -14 26.68 -14 26 C-12.68 26 -11.36 26 -10 26 C-10 24.68 -10 23.36 -10 22 C-10.66 22 -11.32 22 -12 22 C-12 19.36 -12 16.72 -12 14 C-11.34 14 -10.68 14 -10 14 C-10 13.34 -10 12.68 -10 12 C-9.34 12 -8.68 12 -8 12 C-8 10.68 -8 9.36 -8 8 C-8.66 8 -9.32 8 -10 8 C-10 7.34 -10 6.68 -10 6 C-11.32 6 -12.64 6 -14 6 C-14 5.34 -14 4.68 -14 4 C-12.02 4 -10.04 4 -8 4 C-8 3.34 -8 2.68 -8 2 C-5.36 2 -2.72 2 0 2 C0 1.34 0 0.68 0 0 Z " fill="#FFEED6" transform="translate(62,78)"/>
<path d="M0 0 C3.96 0 7.92 0 12 0 C12 0.66 12 1.32 12 2 C12.66 2 13.32 2 14 2 C14 2.66 14 3.32 14 4 C15.32 4 16.64 4 18 4 C18 5.98 18 7.96 18 10 C24.6 10 31.2 10 38 10 C38 9.34 38 8.68 38 8 C40.64 8 43.28 8 46 8 C46 8.66 46 9.32 46 10 C44.02 10 42.04 10 40 10 C40 11.98 40 13.96 40 16 C39.34 16 38.68 16 38 16 C38 16.66 38 17.32 38 18 C37.34 18 36.68 18 36 18 C36 19.32 36 20.64 36 22 C35.34 22 34.68 22 34 22 C34 23.98 34 25.96 34 28 C32.02 28 30.04 28 28 28 C28 29.98 28 31.96 28 34 C29.98 34 31.96 34 34 34 C34 35.32 34 36.64 34 38 C32.02 38 30.04 38 28 38 C28 37.34 28 36.68 28 36 C27.34 36 26.68 36 26 36 C26 33.36 26 30.72 26 28 C25.34 28 24.68 28 24 28 C24 27.34 24 26.68 24 26 C19.38 26 14.76 26 10 26 C10 25.34 10 24.68 10 24 C9.34 24 8.68 24 8 24 C8 22.02 8 20.04 8 18 C5.36 18 2.72 18 0 18 C0 15.36 0 12.72 0 10 C-0.66 10 -1.32 10 -2 10 C-2 8.02 -2 6.04 -2 4 C-1.34 4 -0.68 4 0 4 C0 2.68 0 1.36 0 0 Z " fill="#FFAC43" transform="translate(8,64)"/>
<path d="M0 0 C3.96 0 7.92 0 12 0 C12 0.66 12 1.32 12 2 C12.66 2 13.32 2 14 2 C14 3.32 14 4.64 14 6 C14.66 6 15.32 6 16 6 C16 7.32 16 8.64 16 10 C16.66 10 17.32 10 18 10 C18 10.66 18 11.32 18 12 C18.66 12 19.32 12 20 12 C20 12.66 20 13.32 20 14 C21.98 14 23.96 14 26 14 C26 15.32 26 16.64 26 18 C27.32 18 28.64 18 30 18 C30 18.66 30 19.32 30 20 C30.66 20 31.32 20 32 20 C32 20.66 32 21.32 32 22 C33.98 22 35.96 22 38 22 C38 23.32 38 24.64 38 26 C37.34 26 36.68 26 36 26 C36 26.66 36 27.32 36 28 C35.34 28 34.68 28 34 28 C34 28.66 34 29.32 34 30 C32.02 30 30.04 30 28 30 C28 30.66 28 31.32 28 32 C26.68 32 25.36 32 24 32 C24 31.34 24 30.68 24 30 C21.36 30 18.72 30 16 30 C16 29.34 16 28.68 16 28 C14.68 28 13.36 28 12 28 C12 27.34 12 26.68 12 26 C10.68 26 9.36 26 8 26 C8 25.34 8 24.68 8 24 C7.34 24 6.68 24 6 24 C6 23.34 6 22.68 6 22 C4.68 22 3.36 22 2 22 C2 21.34 2 20.68 2 20 C1.34 20 0.68 20 0 20 C0 19.34 0 18.68 0 18 C-0.66 18 -1.32 18 -2 18 C-2 17.34 -2 16.68 -2 16 C-3.32 16 -4.64 16 -6 16 C-6 12.7 -6 9.4 -6 6 C-4.68 6 -3.36 6 -2 6 C-2 4.68 -2 3.36 -2 2 C-1.34 2 -0.68 2 0 2 C0 1.34 0 0.68 0 0 Z " fill="#FEAB42" transform="translate(16,92)"/>
<path d="M0 0 C4.62 0 9.24 0 14 0 C14 1.32 14 2.64 14 4 C13.34 4 12.68 4 12 4 C12 6.64 12 9.28 12 12 C11.34 12 10.68 12 10 12 C10 14.64 10 17.28 10 20 C9.34 20 8.68 20 8 20 C8 21.32 8 22.64 8 24 C4.7 24 1.4 24 -2 24 C-2 23.34 -2 22.68 -2 22 C-3.32 22 -4.64 22 -6 22 C-6 21.34 -6 20.68 -6 20 C-7.32 20 -8.64 20 -10 20 C-10 18.68 -10 17.36 -10 16 C-10.66 16 -11.32 16 -12 16 C-12 14.02 -12 12.04 -12 10 C-11.34 10 -10.68 10 -10 10 C-10 8.02 -10 6.04 -10 4 C-9.34 4 -8.68 4 -8 4 C-8 3.34 -8 2.68 -8 2 C-5.36 2 -2.72 2 0 2 C0 1.34 0 0.68 0 0 Z " fill="#FFF1DD" transform="translate(94,60)"/>
<path d="M0 0 C3.3 0 6.6 0 10 0 C10 3.3 10 6.6 10 10 C10.66 10 11.32 10 12 10 C12 13.3 12 16.6 12 20 C11.34 20 10.68 20 10 20 C10 20.66 10 21.32 10 22 C8.68 22 7.36 22 6 22 C6 22.66 6 23.32 6 24 C5.34 24 4.68 24 4 24 C4 26.64 4 29.28 4 32 C0.04 32 -3.92 32 -8 32 C-8 28.04 -8 24.08 -8 20 C-7.34 20 -6.68 20 -6 20 C-6 18.02 -6 16.04 -6 14 C-4.02 14 -2.04 14 0 14 C0 12.68 0 11.36 0 10 C-0.66 10 -1.32 10 -2 10 C-2 8.68 -2 7.36 -2 6 C-1.34 6 -0.68 6 0 6 C0 4.02 0 2.04 0 0 Z " fill="#FEAB43" transform="translate(108,80)"/>
<path d="M0 0 C4.62 0 9.24 0 14 0 C14 0.66 14 1.32 14 2 C17.3 2 20.6 2 24 2 C24 2.66 24 3.32 24 4 C26.64 4 29.28 4 32 4 C32 4.66 32 5.32 32 6 C34.64 6 37.28 6 40 6 C40 6.66 40 7.32 40 8 C34.72 8 29.44 8 24 8 C24 7.34 24 6.68 24 6 C23.34 6 22.68 6 22 6 C22 6.66 22 7.32 22 8 C17.38 8 12.76 8 8 8 C8 8.66 8 9.32 8 10 C7.34 10 6.68 10 6 10 C6 10.66 6 11.32 6 12 C13.26 12 20.52 12 28 12 C28 12.66 28 13.32 28 14 C17.44 14 6.88 14 -4 14 C-4 14.66 -4 15.32 -4 16 C-5.32 16 -6.64 16 -8 16 C-8 15.34 -8 14.68 -8 14 C-12.62 14 -17.24 14 -22 14 C-22 14.66 -22 15.32 -22 16 C-23.32 16 -24.64 16 -26 16 C-26 14.68 -26 13.36 -26 12 C-18.74 12 -11.48 12 -4 12 C-4 11.34 -4 10.68 -4 10 C-1.36 10 1.28 10 4 10 C4 9.34 4 8.68 4 8 C4.66 8 5.32 8 6 8 C6 7.34 6 6.68 6 6 C9.3 6 12.6 6 16 6 C16 5.34 16 4.68 16 4 C14.02 4 12.04 4 10 4 C10 3.34 10 2.68 10 2 C7.36 2 4.72 2 2 2 C2 2.66 2 3.32 2 4 C0.02 4 -1.96 4 -4 4 C-4 4.66 -4 5.32 -4 6 C-5.98 6 -7.96 6 -10 6 C-10 5.34 -10 4.68 -10 4 C-8.68 4 -7.36 4 -6 4 C-6 3.34 -6 2.68 -6 2 C-4.02 2 -2.04 2 0 2 C0 1.34 0 0.68 0 0 Z " fill="#F4521E" transform="translate(52,2)"/>
<path d="M0 0 C3.3 0 6.6 0 10 0 C10 0.66 10 1.32 10 2 C16.6 2 23.2 2 30 2 C30 2.66 30 3.32 30 4 C28.68 4 27.36 4 26 4 C26 6.64 26 9.28 26 12 C24.02 12 22.04 12 20 12 C20 12.66 20 13.32 20 14 C18.68 14 17.36 14 16 14 C16 13.34 16 12.68 16 12 C11.38 12 6.76 12 2 12 C2 10.68 2 9.36 2 8 C1.34 8 0.68 8 0 8 C0 5.36 0 2.72 0 0 Z " fill="#FFF0D9" transform="translate(16,72)"/>
<path d="M0 0 C1.98 0 3.96 0 6 0 C6 0.66 6 1.32 6 2 C6.66 2 7.32 2 8 2 C8 3.32 8 4.64 8 6 C7.34 6 6.68 6 6 6 C6 6.66 6 7.32 6 8 C5.34 8 4.68 8 4 8 C4 10.64 4 13.28 4 16 C4.66 16 5.32 16 6 16 C6 17.32 6 18.64 6 20 C4.68 20 3.36 20 2 20 C2 20.66 2 21.32 2 22 C3.98 22 5.96 22 8 22 C8 22.66 8 23.32 8 24 C9.32 24 10.64 24 12 24 C12 24.66 12 25.32 12 26 C14.64 26 17.28 26 20 26 C20 27.98 20 29.96 20 32 C18.02 32 16.04 32 14 32 C14 30.68 14 29.36 14 28 C10.7 28 7.4 28 4 28 C4 27.34 4 26.68 4 26 C2.68 26 1.36 26 0 26 C0 25.34 0 24.68 0 24 C-0.66 24 -1.32 24 -2 24 C-2 17.4 -2 10.8 -2 4 C-1.34 4 -0.68 4 0 4 C0 2.68 0 1.36 0 0 Z " fill="#FFB75A" transform="translate(46,84)"/>
<path d="M0 0 C0.66 0 1.32 0 2 0 C2 0.66 2 1.32 2 2 C2.66 2 3.32 2 4 2 C4 3.32 4 4.64 4 6 C1.36 6 -1.28 6 -4 6 C-4 7.32 -4 8.64 -4 10 C-4.66 10 -5.32 10 -6 10 C-6 10.66 -6 11.32 -6 12 C-7.32 12 -8.64 12 -10 12 C-10 12.66 -10 13.32 -10 14 C-14.62 14 -19.24 14 -24 14 C-24 13.34 -24 12.68 -24 12 C-24.66 12 -25.32 12 -26 12 C-26 11.34 -26 10.68 -26 10 C-28.64 10 -31.28 10 -34 10 C-34 10.66 -34 11.32 -34 12 C-34.66 12 -35.32 12 -36 12 C-36 12.66 -36 13.32 -36 14 C-37.32 14 -38.64 14 -40 14 C-40 14.66 -40 15.32 -40 16 C-42.64 16 -45.28 16 -48 16 C-48 15.34 -48 14.68 -48 14 C-46.02 14 -44.04 14 -42 14 C-42 13.34 -42 12.68 -42 12 C-41.34 12 -40.68 12 -40 12 C-40 11.34 -40 10.68 -40 10 C-39.34 10 -38.68 10 -38 10 C-38 8.68 -38 7.36 -38 6 C-39.98 6 -41.96 6 -44 6 C-44 5.34 -44 4.68 -44 4 C-44.66 4 -45.32 4 -46 4 C-46 3.34 -46 2.68 -46 2 C-44.68 2 -43.36 2 -42 2 C-42 2.66 -42 3.32 -42 4 C-38.7 4 -35.4 4 -32 4 C-32 5.32 -32 6.64 -32 8 C-30.02 8 -28.04 8 -26 8 C-26 6.68 -26 5.36 -26 4 C-24.68 4 -23.36 4 -22 4 C-22 4.66 -22 5.32 -22 6 C-22.66 6 -23.32 6 -24 6 C-24 6.66 -24 7.32 -24 8 C-23.34 8 -22.68 8 -22 8 C-22 8.66 -22 9.32 -22 10 C-21.34 10 -20.68 10 -20 10 C-20 10.66 -20 11.32 -20 12 C-17.36 12 -14.72 12 -12 12 C-12 11.34 -12 10.68 -12 10 C-10.68 10 -9.36 10 -8 10 C-8 8.68 -8 7.36 -8 6 C-7.34 6 -6.68 6 -6 6 C-6 5.34 -6 4.68 -6 4 C-4.02 4 -2.04 4 0 4 C0 2.68 0 1.36 0 0 Z " fill="#F45321" transform="translate(92,108)"/>
<path d="M0 0 C1.32 0 2.64 0 4 0 C4 2.64 4 5.28 4 8 C4.66 8 5.32 8 6 8 C6 9.32 6 10.64 6 12 C6.66 12 7.32 12 8 12 C8 15.3 8 18.6 8 22 C7.34 22 6.68 22 6 22 C6 23.32 6 24.64 6 26 C5.34 26 4.68 26 4 26 C4 26.66 4 27.32 4 28 C2.68 28 1.36 28 0 28 C0 28.66 0 29.32 0 30 C-1.32 30 -2.64 30 -4 30 C-4 30.66 -4 31.32 -4 32 C-4.66 32 -5.32 32 -6 32 C-6 28.7 -6 25.4 -6 22 C-5.34 22 -4.68 22 -4 22 C-4 21.34 -4 20.68 -4 20 C-2.68 20 -1.36 20 0 20 C0 19.34 0 18.68 0 18 C0.66 18 1.32 18 2 18 C2 14.7 2 11.4 2 8 C1.34 8 0.68 8 0 8 C0 5.36 0 2.72 0 0 Z " fill="#F4511E" transform="translate(118,82)"/>
<path d="M0 0 C3.96 0 7.92 0 12 0 C12 0.66 12 1.32 12 2 C12.66 2 13.32 2 14 2 C14 3.32 14 4.64 14 6 C14.66 6 15.32 6 16 6 C16 7.32 16 8.64 16 10 C15.34 10 14.68 10 14 10 C14 13.3 14 16.6 14 20 C13.34 20 12.68 20 12 20 C12 20.66 12 21.32 12 22 C11.34 22 10.68 22 10 22 C10 21.34 10 20.68 10 20 C9.34 20 8.68 20 8 20 C8 16.7 8 13.4 8 10 C6.68 10 5.36 10 4 10 C4 9.34 4 8.68 4 8 C3.34 8 2.68 8 2 8 C2 6.68 2 5.36 2 4 C1.34 4 0.68 4 0 4 C0 2.68 0 1.36 0 0 Z " fill="#FFF0D9" transform="translate(94,14)"/>
<path d="M0 0 C3.96 0 7.92 0 12 0 C12 1.98 12 3.96 12 6 C11.34 6 10.68 6 10 6 C10 6.66 10 7.32 10 8 C9.34 8 8.68 8 8 8 C8 8.66 8 9.32 8 10 C9.32 10 10.64 10 12 10 C12 11.32 12 12.64 12 14 C12.66 14 13.32 14 14 14 C14 14.66 14 15.32 14 16 C12.02 16 10.04 16 8 16 C8 15.34 8 14.68 8 14 C7.34 14 6.68 14 6 14 C6 13.34 6 12.68 6 12 C4.68 12 3.36 12 2 12 C2 12.66 2 13.32 2 14 C0.02 14 -1.96 14 -4 14 C-4 12.68 -4 11.36 -4 10 C-3.34 10 -2.68 10 -2 10 C-2 8.68 -2 7.36 -2 6 C-1.34 6 -0.68 6 0 6 C0 4.02 0 2.04 0 0 Z " fill="#FFAB40" transform="translate(60,66)"/>
<path d="M0 0 C4.62 0 9.24 0 14 0 C14 0.66 14 1.32 14 2 C15.98 2 17.96 2 20 2 C20 2.66 20 3.32 20 4 C21.98 4 23.96 4 26 4 C26 4.66 26 5.32 26 6 C26.66 6 27.32 6 28 6 C28 6.66 28 7.32 28 8 C28.66 8 29.32 8 30 8 C30 8.66 30 9.32 30 10 C30.66 10 31.32 10 32 10 C32 13.3 32 16.6 32 20 C31.34 20 30.68 20 30 20 C30 21.32 30 22.64 30 24 C29.34 24 28.68 24 28 24 C28 25.98 28 27.96 28 30 C27.34 30 26.68 30 26 30 C26 31.98 26 33.96 26 36 C24.02 36 22.04 36 20 36 C20 36.66 20 37.32 20 38 C19.34 38 18.68 38 18 38 C18 36.68 18 35.36 18 34 C19.98 34 21.96 34 24 34 C24 30.7 24 27.4 24 24 C22.68 24 21.36 24 20 24 C20 23.34 20 22.68 20 22 C22.64 22 25.28 22 28 22 C28 20.68 28 19.36 28 18 C28.66 18 29.32 18 30 18 C30 16.02 30 14.04 30 12 C29.34 12 28.68 12 28 12 C28 11.34 28 10.68 28 10 C27.34 10 26.68 10 26 10 C26 9.34 26 8.68 26 8 C25.34 8 24.68 8 24 8 C24 7.34 24 6.68 24 6 C22.02 6 20.04 6 18 6 C18 5.34 18 4.68 18 4 C16.02 4 14.04 4 12 4 C12 3.34 12 2.68 12 2 C8.04 2 4.08 2 0 2 C0 1.34 0 0.68 0 0 Z " fill="#FF0000" transform="translate(94,4)"/>
<path d="M0 0 C1.32 0 2.64 0 4 0 C4 0.66 4 1.32 4 2 C4.66 2 5.32 2 6 2 C6 2.66 6 3.32 6 4 C6.66 4 7.32 4 8 4 C8 5.32 8 6.64 8 8 C9.98 8 11.96 8 14 8 C14 8.66 14 9.32 14 10 C15.98 10 17.96 10 20 10 C20 10.66 20 11.32 20 12 C21.32 12 22.64 12 24 12 C24 12.66 24 13.32 24 14 C23.34 14 22.68 14 22 14 C22 15.32 22 16.64 22 18 C19.36 18 16.72 18 14 18 C14 16.68 14 15.36 14 14 C12.02 14 10.04 14 8 14 C8 13.34 8 12.68 8 12 C7.34 12 6.68 12 6 12 C6 11.34 6 10.68 6 10 C5.34 10 4.68 10 4 10 C4 9.34 4 8.68 4 8 C3.34 8 2.68 8 2 8 C2 7.34 2 6.68 2 6 C1.34 6 0.68 6 0 6 C0 4.02 0 2.04 0 0 Z " fill="#FFF3E0" transform="translate(22,102)"/>
<path d="M0 0 C3.96 0 7.92 0 12 0 C12 0.66 12 1.32 12 2 C13.98 2 15.96 2 18 2 C18 2.66 18 3.32 18 4 C19.98 4 21.96 4 24 4 C24 4.66 24 5.32 24 6 C24.66 6 25.32 6 26 6 C26 6.66 26 7.32 26 8 C26.66 8 27.32 8 28 8 C28 8.66 28 9.32 28 10 C28.66 10 29.32 10 30 10 C30 11.98 30 13.96 30 16 C29.34 16 28.68 16 28 16 C28 17.32 28 18.64 28 20 C25.36 20 22.72 20 20 20 C20 19.34 20 18.68 20 18 C21.32 18 22.64 18 24 18 C24 14.7 24 11.4 24 8 C21.36 8 18.72 8 16 8 C16 6.68 16 5.36 16 4 C13.36 4 10.72 4 8 4 C8 3.34 8 2.68 8 2 C5.36 2 2.72 2 0 2 C0 1.34 0 0.68 0 0 Z " fill="#F4511E" transform="translate(94,6)"/>
<path d="M0 0 C0.66 0 1.32 0 2 0 C2 3.3 2 6.6 2 10 C2.66 10 3.32 10 4 10 C4 11.32 4 12.64 4 14 C2.68 14 1.36 14 0 14 C0 15.32 0 16.64 0 18 C0.66 18 1.32 18 2 18 C2 20.64 2 23.28 2 26 C2.66 26 3.32 26 4 26 C4 29.3 4 32.6 4 36 C4.66 36 5.32 36 6 36 C6 36.66 6 37.32 6 38 C5.34 38 4.68 38 4 38 C4 38.66 4 39.32 4 40 C3.34 40 2.68 40 2 40 C2 36.04 2 32.08 2 28 C1.34 28 0.68 28 0 28 C0 25.36 0 22.72 0 20 C-0.66 20 -1.32 20 -2 20 C-2 16.04 -2 12.08 -2 8 C-1.34 8 -0.68 8 0 8 C0 5.36 0 2.72 0 0 Z " fill="#FD0100" transform="translate(2,20)"/>
<path d="M0 0 C1.32 0 2.64 0 4 0 C4 0.66 4 1.32 4 2 C5.98 2 7.96 2 10 2 C10 2.66 10 3.32 10 4 C11.32 4 12.64 4 14 4 C14 4.66 14 5.32 14 6 C16.64 6 19.28 6 22 6 C22 7.98 22 9.96 22 12 C20.02 12 18.04 12 16 12 C16 10.68 16 9.36 16 8 C12.7 8 9.4 8 6 8 C6 7.34 6 6.68 6 6 C4.68 6 3.36 6 2 6 C2 5.34 2 4.68 2 4 C1.34 4 0.68 4 0 4 C0 2.68 0 1.36 0 0 Z " fill="#FFAB40" transform="translate(44,104)"/>
<path d="M0 0 C1.98 0 3.96 0 6 0 C6 1.98 6 3.96 6 6 C5.34 6 4.68 6 4 6 C4 6.66 4 7.32 4 8 C2.68 8 1.36 8 0 8 C0 8.66 0 9.32 0 10 C-0.66 10 -1.32 10 -2 10 C-2 10.66 -2 11.32 -2 12 C-3.98 12 -5.96 12 -8 12 C-8 10.68 -8 9.36 -8 8 C-7.34 8 -6.68 8 -6 8 C-6 7.34 -6 6.68 -6 6 C-5.34 6 -4.68 6 -4 6 C-4 5.34 -4 4.68 -4 4 C-2.68 4 -1.36 4 0 4 C0 2.68 0 1.36 0 0 Z " fill="#FFF3E0" transform="translate(114,94)"/>
<path d="M0 0 C1.98 0 3.96 0 6 0 C6 0.66 6 1.32 6 2 C6.66 2 7.32 2 8 2 C8 3.32 8 4.64 8 6 C8.66 6 9.32 6 10 6 C10 11.28 10 16.56 10 22 C9.34 22 8.68 22 8 22 C8 22.66 8 23.32 8 24 C7.34 24 6.68 24 6 24 C6 25.98 6 27.96 6 30 C4.02 30 2.04 30 0 30 C0 29.34 0 28.68 0 28 C1.32 28 2.64 28 4 28 C4 26.02 4 24.04 4 22 C4.66 22 5.32 22 6 22 C6 21.34 6 20.68 6 20 C6.66 20 7.32 20 8 20 C8 16.04 8 12.08 8 8 C7.34 8 6.68 8 6 8 C6 6.68 6 5.36 6 4 C5.34 4 4.68 4 4 4 C4 3.34 4 2.68 4 2 C2.68 2 1.36 2 0 2 C0 1.34 0 0.68 0 0 Z " fill="#FF0000" transform="translate(114,42)"/>
<path d="M0 0 C0.66 0 1.32 0 2 0 C2 1.32 2 2.64 2 4 C1.34 4 0.68 4 0 4 C0 5.32 0 6.64 0 8 C-1.32 8 -2.64 8 -4 8 C-4 13.28 -4 18.56 -4 24 C-4.66 24 -5.32 24 -6 24 C-6 18.72 -6 13.44 -6 8 C-6.66 8 -7.32 8 -8 8 C-8 7.34 -8 6.68 -8 6 C-6.02 6 -4.04 6 -2 6 C-2 4.68 -2 3.36 -2 2 C-1.34 2 -0.68 2 0 2 C0 1.34 0 0.68 0 0 Z " fill="#F44B1C" transform="translate(24,20)"/>
<path d="M0 0 C2.64 0 5.28 0 8 0 C8 1.32 8 2.64 8 4 C5.36 4 2.72 4 0 4 C0 2.68 0 1.36 0 0 Z " fill="#FFF3E0" transform="translate(18,94)"/>
<path d="M0 0 C1.98 0 3.96 0 6 0 C6 0.66 6 1.32 6 2 C5.34 2 4.68 2 4 2 C4 2.66 4 3.32 4 4 C2.02 4 0.04 4 -2 4 C-2 4.66 -2 5.32 -2 6 C-2.66 6 -3.32 6 -4 6 C-4 4.68 -4 3.36 -4 2 C-2.68 2 -1.36 2 0 2 C0 1.34 0 0.68 0 0 Z " fill="#FFF3E0" transform="translate(22,12)"/>
<path d="M0 0 C0.66 0 1.32 0 2 0 C2 1.32 2 2.64 2 4 C1.34 4 0.68 4 0 4 C0 4.66 0 5.32 0 6 C-1.98 6 -3.96 6 -6 6 C-6 5.34 -6 4.68 -6 4 C-5.34 4 -4.68 4 -4 4 C-4 3.34 -4 2.68 -4 2 C-2.68 2 -1.36 2 0 2 C0 1.34 0 0.68 0 0 Z " fill="#FFAB40" transform="translate(118,100)"/>
<path d="M0 0 C1.32 0 2.64 0 4 0 C4 1.98 4 3.96 4 6 C3.34 6 2.68 6 2 6 C2 6.66 2 7.32 2 8 C1.34 8 0.68 8 0 8 C0 5.36 0 2.72 0 0 Z " fill="#FFAB40" transform="translate(104,72)"/>
<path d="M0 0 C1.98 0 3.96 0 6 0 C6 0.66 6 1.32 6 2 C6.66 2 7.32 2 8 2 C8 3.32 8 4.64 8 6 C7.34 6 6.68 6 6 6 C6 5.34 6 4.68 6 4 C4.68 4 3.36 4 2 4 C2 3.34 2 2.68 2 2 C1.34 2 0.68 2 0 2 C0 1.34 0 0.68 0 0 Z " fill="#FFAB40" transform="translate(86,24)"/>
<path d="M0 0 C1.98 0 3.96 0 6 0 C6 1.32 6 2.64 6 4 C4.02 4 2.04 4 0 4 C0 2.68 0 1.36 0 0 Z " fill="#FFAB40" transform="translate(88,38)"/>
</svg>
