<?xml version="1.0" encoding="UTF-8"?>
<svg version="1.1" xmlns="http://www.w3.org/2000/svg" width="90" height="140">
<path d="M0 0 C3.3 0 6.6 0 10 0 C10 3.3 10 6.6 10 10 C13.3 10 16.6 10 20 10 C20 13.3 20 16.6 20 20 C23.3 20 26.6 20 30 20 C30 26.6 30 33.2 30 40 C33.3 40 36.6 40 40 40 C40 46.6 40 53.2 40 60 C43.3 60 46.6 60 50 60 C50 76.5 50 93 50 110 C46.7 110 43.4 110 40 110 C40 113.3 40 116.6 40 120 C36.7 120 33.4 120 30 120 C30 123.3 30 126.6 30 130 C26.7 130 23.4 130 20 130 C20 133.3 20 136.6 20 140 C10.1 140 0.2 140 -10 140 C-10 136.7 -10 133.4 -10 130 C-13.3 130 -16.6 130 -20 130 C-20 126.7 -20 123.4 -20 120 C-23.3 120 -26.6 120 -30 120 C-30 116.7 -30 113.4 -30 110 C-33.3 110 -36.6 110 -40 110 C-40 93.5 -40 77 -40 60 C-36.7 60 -33.4 60 -30 60 C-30 53.4 -30 46.8 -30 40 C-26.7 40 -23.4 40 -20 40 C-20 33.4 -20 26.8 -20 20 C-16.7 20 -13.4 20 -10 20 C-10 16.7 -10 13.4 -10 10 C-6.7 10 -3.4 10 0 10 C0 6.7 0 3.4 0 0 Z " fill="#009688" transform="translate(40,0)"/>
<path d="M0 0 C3.3 0 6.6 0 10 0 C10 6.6 10 13.2 10 20 C13.3 20 16.6 20 20 20 C20 23.3 20 26.6 20 30 C23.3 30 26.6 30 30 30 C30 36.6 30 43.2 30 50 C33.3 50 36.6 50 40 50 C40 56.6 40 63.2 40 70 C33.4 70 26.8 70 20 70 C20 73.3 20 76.6 20 80 C16.7 80 13.4 80 10 80 C10 86.6 10 93.2 10 100 C0.1 100 -9.8 100 -20 100 C-20 96.7 -20 93.4 -20 90 C-23.3 90 -26.6 90 -30 90 C-30 76.8 -30 63.6 -30 50 C-26.7 50 -23.4 50 -20 50 C-20 43.4 -20 36.8 -20 30 C-16.7 30 -13.4 30 -10 30 C-10 26.7 -10 23.4 -10 20 C-6.7 20 -3.4 20 0 20 C0 13.4 0 6.8 0 0 Z " fill="#8BC34A" transform="translate(40,30)"/>
<path d="M0 0 C3.3 0 6.6 0 10 0 C10 6.6 10 13.2 10 20 C13.3 20 16.6 20 20 20 C20 23.3 20 26.6 20 30 C23.3 30 26.6 30 30 30 C30 33.3 30 36.6 30 40 C26.7 40 23.4 40 20 40 C20 43.3 20 46.6 20 50 C16.7 50 13.4 50 10 50 C10 53.3 10 56.6 10 60 C6.7 60 3.4 60 0 60 C0 56.7 0 53.4 0 50 C-3.3 50 -6.6 50 -10 50 C-10 46.7 -10 43.4 -10 40 C-13.3 40 -16.6 40 -20 40 C-20 36.7 -20 33.4 -20 30 C-16.7 30 -13.4 30 -10 30 C-10 26.7 -10 23.4 -10 20 C-6.7 20 -3.4 20 0 20 C0 13.4 0 6.8 0 0 Z " fill="#FFFFFF" transform="translate(40,60)"/>
<path d="M0 0 C3.3 0 6.6 0 10 0 C10 6.6 10 13.2 10 20 C6.7 20 3.4 20 0 20 C0 23.3 0 26.6 0 30 C-3.3 30 -6.6 30 -10 30 C-10 36.6 -10 43.2 -10 50 C-13.3 50 -16.6 50 -20 50 C-20 59.9 -20 69.8 -20 80 C-23.3 80 -26.6 80 -30 80 C-30 63.5 -30 47 -30 30 C-26.7 30 -23.4 30 -20 30 C-20 23.4 -20 16.8 -20 10 C-13.4 10 -6.8 10 0 10 C0 6.7 0 3.4 0 0 Z " fill="#009688" transform="translate(30,30)"/>
<path d="M0 0 C3.3 0 6.6 0 10 0 C10 6.6 10 13.2 10 20 C13.3 20 16.6 20 20 20 C20 23.3 20 26.6 20 30 C23.3 30 26.6 30 30 30 C30 36.6 30 43.2 30 50 C33.3 50 36.6 50 40 50 C40 56.6 40 63.2 40 70 C36.7 70 33.4 70 30 70 C30 66.7 30 63.4 30 60 C26.7 60 23.4 60 20 60 C20 56.7 20 53.4 20 50 C16.7 50 13.4 50 10 50 C10 43.4 10 36.8 10 30 C3.4 30 -3.2 30 -10 30 C-10 26.7 -10 23.4 -10 20 C-6.7 20 -3.4 20 0 20 C0 13.4 0 6.8 0 0 Z " fill="#6BB94D" transform="translate(40,30)"/>
<path d="M0 0 C3.3 0 6.6 0 10 0 C10 3.3 10 6.6 10 10 C13.3 10 16.6 10 20 10 C20 13.3 20 16.6 20 20 C23.3 20 26.6 20 30 20 C30 26.6 30 33.2 30 40 C26.7 40 23.4 40 20 40 C20 36.7 20 33.4 20 30 C10.1 30 0.2 30 -10 30 C-10 33.3 -10 36.6 -10 40 C-13.3 40 -16.6 40 -20 40 C-20 33.4 -20 26.8 -20 20 C-16.7 20 -13.4 20 -10 20 C-10 16.7 -10 13.4 -10 10 C-6.7 10 -3.4 10 0 10 C0 6.7 0 3.4 0 0 Z " fill="#4CAF50" transform="translate(40,0)"/>
<path d="M0 0 C6.6 0 13.2 0 20 0 C20 6.6 20 13.2 20 20 C16.7 20 13.4 20 10 20 C10 23.3 10 26.6 10 30 C6.7 30 3.4 30 0 30 C0 33.3 0 36.6 0 40 C-9.9 40 -19.8 40 -30 40 C-30 36.7 -30 33.4 -30 30 C-23.4 30 -16.8 30 -10 30 C-10 23.4 -10 16.8 -10 10 C-6.7 10 -3.4 10 0 10 C0 6.7 0 3.4 0 0 Z " fill="#4CAF50" transform="translate(60,100)"/>
<path d="M0 0 C3.3 0 6.6 0 10 0 C10 3.3 10 6.6 10 10 C13.3 10 16.6 10 20 10 C20 16.6 20 23.2 20 30 C16.7 30 13.4 30 10 30 C10 26.7 10 23.4 10 20 C6.7 20 3.4 20 0 20 C0 13.4 0 6.8 0 0 Z " fill="#009688" transform="translate(50,30)"/>
<path d="M0 0 C3.3 0 6.6 0 10 0 C10 6.6 10 13.2 10 20 C6.7 20 3.4 20 0 20 C0 23.3 0 26.6 0 30 C-3.3 30 -6.6 30 -10 30 C-10 23.4 -10 16.8 -10 10 C-6.7 10 -3.4 10 0 10 C0 6.7 0 3.4 0 0 Z " fill="#009688" transform="translate(30,30)"/>
<path d="M0 0 C9.9 0 19.8 0 30 0 C30 3.3 30 6.6 30 10 C20.1 10 10.2 10 0 10 C0 6.7 0 3.4 0 0 Z " fill="#009688" transform="translate(30,130)"/>
<path d="M0 0 C3.3 0 6.6 0 10 0 C10 3.3 10 6.6 10 10 C13.3 10 16.6 10 20 10 C20 13.3 20 16.6 20 20 C13.4 20 6.8 20 0 20 C0 13.4 0 6.8 0 0 Z " fill="#4CAF50" transform="translate(30,110)"/>
<path d="M0 0 C6.6 0 13.2 0 20 0 C20 6.6 20 13.2 20 20 C16.7 20 13.4 20 10 20 C10 16.7 10 13.4 10 10 C6.7 10 3.4 10 0 10 C0 6.7 0 3.4 0 0 Z " fill="#4CAF50" transform="translate(10,110)"/>
<path d="M0 0 C6.6 0 13.2 0 20 0 C20 3.3 20 6.6 20 10 C16.7 10 13.4 10 10 10 C10 13.3 10 16.6 10 20 C6.7 20 3.4 20 0 20 C0 13.4 0 6.8 0 0 Z " fill="#8BC34A" transform="translate(20,20)"/>
<path d="M0 0 C3.3 0 6.6 0 10 0 C10 6.6 10 13.2 10 20 C6.7 20 3.4 20 0 20 C0 13.4 0 6.8 0 0 Z " fill="#8BC34A" transform="translate(50,60)"/>
<path d="M0 0 C3.3 0 6.6 0 10 0 C10 6.6 10 13.2 10 20 C6.7 20 3.4 20 0 20 C0 13.4 0 6.8 0 0 Z " fill="#8BC34A" transform="translate(30,60)"/>
<path d="M0 0 C3.3 0 6.6 0 10 0 C10 6.6 10 13.2 10 20 C6.7 20 3.4 20 0 20 C0 13.4 0 6.8 0 0 Z " fill="#4CAF50" transform="translate(20,60)"/>
<path d="M0 0 C3.3 0 6.6 0 10 0 C10 6.6 10 13.2 10 20 C6.7 20 3.4 20 0 20 C0 13.4 0 6.8 0 0 Z " fill="#8BC34A" transform="translate(70,40)"/>
<path d="M0 0 C3.3 0 6.6 0 10 0 C10 6.6 10 13.2 10 20 C6.7 20 3.4 20 0 20 C0 13.4 0 6.8 0 0 Z " fill="#8BC34A" transform="translate(10,40)"/>
<path d="M0 0 C3.3 0 6.6 0 10 0 C10 3.3 10 6.6 10 10 C6.7 10 3.4 10 0 10 C0 6.7 0 3.4 0 0 Z " fill="#009688" transform="translate(60,120)"/>
<path d="M0 0 C3.3 0 6.6 0 10 0 C10 3.3 10 6.6 10 10 C6.7 10 3.4 10 0 10 C0 6.7 0 3.4 0 0 Z " fill="#4CAF50" transform="translate(50,120)"/>
<path d="M0 0 C3.3 0 6.6 0 10 0 C10 3.3 10 6.6 10 10 C6.7 10 3.4 10 0 10 C0 6.7 0 3.4 0 0 Z " fill="#8BC34A" transform="translate(40,120)"/>
<path d="M0 0 C3.3 0 6.6 0 10 0 C10 3.3 10 6.6 10 10 C6.7 10 3.4 10 0 10 C0 6.7 0 3.4 0 0 Z " fill="#009688" transform="translate(20,120)"/>
<path d="M0 0 C3.3 0 6.6 0 10 0 C10 3.3 10 6.6 10 10 C6.7 10 3.4 10 0 10 C0 6.7 0 3.4 0 0 Z " fill="#009688" transform="translate(70,110)"/>
<path d="M0 0 C3.3 0 6.6 0 10 0 C10 3.3 10 6.6 10 10 C6.7 10 3.4 10 0 10 C0 6.7 0 3.4 0 0 Z " fill="#8BC34A" transform="translate(50,110)"/>
<path d="M0 0 C3.3 0 6.6 0 10 0 C10 3.3 10 6.6 10 10 C6.7 10 3.4 10 0 10 C0 6.7 0 3.4 0 0 Z " fill="#8BC34A" transform="translate(30,110)"/>
<path d="M0 0 C3.3 0 6.6 0 10 0 C10 3.3 10 6.6 10 10 C6.7 10 3.4 10 0 10 C0 6.7 0 3.4 0 0 Z " fill="#009688" transform="translate(10,110)"/>
<path d="M0 0 C3.3 0 6.6 0 10 0 C10 3.3 10 6.6 10 10 C6.7 10 3.4 10 0 10 C0 6.7 0 3.4 0 0 Z " fill="#8BC34A" transform="translate(60,100)"/>
<path d="M0 0 C3.3 0 6.6 0 10 0 C10 3.3 10 6.6 10 10 C6.7 10 3.4 10 0 10 C0 6.7 0 3.4 0 0 Z " fill="#8BC34A" transform="translate(20,100)"/>
<path d="M0 0 C3.3 0 6.6 0 10 0 C10 3.3 10 6.6 10 10 C6.7 10 3.4 10 0 10 C0 6.7 0 3.4 0 0 Z " fill="#4CAF50" transform="translate(10,100)"/>
<path d="M0 0 C3.3 0 6.6 0 10 0 C10 3.3 10 6.6 10 10 C6.7 10 3.4 10 0 10 C0 6.7 0 3.4 0 0 Z " fill="#8BC34A" transform="translate(70,90)"/>
<path d="M0 0 C3.3 0 6.6 0 10 0 C10 3.3 10 6.6 10 10 C6.7 10 3.4 10 0 10 C0 6.7 0 3.4 0 0 Z " fill="#8BC34A" transform="translate(10,90)"/>
<path d="M0 0 C3.3 0 6.6 0 10 0 C10 3.3 10 6.6 10 10 C6.7 10 3.4 10 0 10 C0 6.7 0 3.4 0 0 Z " fill="#4CAF50" transform="translate(70,80)"/>
<path d="M0 0 C3.3 0 6.6 0 10 0 C10 3.3 10 6.6 10 10 C6.7 10 3.4 10 0 10 C0 6.7 0 3.4 0 0 Z " fill="#8BC34A" transform="translate(60,80)"/>
<path d="M0 0 C3.3 0 6.6 0 10 0 C10 3.3 10 6.6 10 10 C6.7 10 3.4 10 0 10 C0 6.7 0 3.4 0 0 Z " fill="#4CAF50" transform="translate(10,80)"/>
<path d="M0 0 C3.3 0 6.6 0 10 0 C10 3.3 10 6.6 10 10 C6.7 10 3.4 10 0 10 C0 6.7 0 3.4 0 0 Z " fill="#4CAF50" transform="translate(80,60)"/>
<path d="M0 0 C3.3 0 6.6 0 10 0 C10 3.3 10 6.6 10 10 C6.7 10 3.4 10 0 10 C0 6.7 0 3.4 0 0 Z " fill="#4CAF50" transform="translate(0,60)"/>
<path d="M0 0 C3.3 0 6.6 0 10 0 C10 3.3 10 6.6 10 10 C6.7 10 3.4 10 0 10 C0 6.7 0 3.4 0 0 Z " fill="#4CAF50" transform="translate(50,50)"/>
<path d="M0 0 C3.3 0 6.6 0 10 0 C10 3.3 10 6.6 10 10 C6.7 10 3.4 10 0 10 C0 6.7 0 3.4 0 0 Z " fill="#4CAF50" transform="translate(30,50)"/>
<path d="M0 0 C3.3 0 6.6 0 10 0 C10 3.3 10 6.6 10 10 C6.7 10 3.4 10 0 10 C0 6.7 0 3.4 0 0 Z " fill="#4CAF50" transform="translate(70,40)"/>
<path d="M0 0 C3.3 0 6.6 0 10 0 C10 3.3 10 6.6 10 10 C6.7 10 3.4 10 0 10 C0 6.7 0 3.4 0 0 Z " fill="#4CAF50" transform="translate(10,40)"/>
<path d="M0 0 C3.3 0 6.6 0 10 0 C10 3.3 10 6.6 10 10 C6.7 10 3.4 10 0 10 C0 6.7 0 3.4 0 0 Z " fill="#8BC34A" transform="translate(60,30)"/>
<path d="M0 0 C3.3 0 6.6 0 10 0 C10 3.3 10 6.6 10 10 C6.7 10 3.4 10 0 10 C0 6.7 0 3.4 0 0 Z " fill="#4CAF50" transform="translate(40,30)"/>
<path d="M0 0 C3.3 0 6.6 0 10 0 C10 3.3 10 6.6 10 10 C6.7 10 3.4 10 0 10 C0 6.7 0 3.4 0 0 Z " fill="#8BC34A" transform="translate(20,30)"/>
<path d="M0 0 C3.3 0 6.6 0 10 0 C10 3.3 10 6.6 10 10 C6.7 10 3.4 10 0 10 C0 6.7 0 3.4 0 0 Z " fill="#009688" transform="translate(60,20)"/>
<path d="M0 0 C3.3 0 6.6 0 10 0 C10 3.3 10 6.6 10 10 C6.7 10 3.4 10 0 10 C0 6.7 0 3.4 0 0 Z " fill="#8BC34A" transform="translate(50,20)"/>
<path d="M0 0 C3.3 0 6.6 0 10 0 C10 3.3 10 6.6 10 10 C6.7 10 3.4 10 0 10 C0 6.7 0 3.4 0 0 Z " fill="#009688" transform="translate(40,20)"/>
<path d="M0 0 C3.3 0 6.6 0 10 0 C10 3.3 10 6.6 10 10 C6.7 10 3.4 10 0 10 C0 6.7 0 3.4 0 0 Z " fill="#009688" transform="translate(20,20)"/>
<path d="M0 0 C3.3 0 6.6 0 10 0 C10 3.3 10 6.6 10 10 C6.7 10 3.4 10 0 10 C0 6.7 0 3.4 0 0 Z " fill="#009688" transform="translate(50,10)"/>
<path d="M0 0 C3.3 0 6.6 0 10 0 C10 3.3 10 6.6 10 10 C6.7 10 3.4 10 0 10 C0 6.7 0 3.4 0 0 Z " fill="#009688" transform="translate(30,10)"/>
<path d="M0 0 C3.3 0 6.6 0 10 0 C10 3.3 10 6.6 10 10 C6.7 10 3.4 10 0 10 C0 6.7 0 3.4 0 0 Z " fill="#009688" transform="translate(40,0)"/>
</svg>
