<?xml version="1.0" encoding="UTF-8"?>
<svg version="1.1" xmlns="http://www.w3.org/2000/svg" width="900" height="300">
<path d="M0 0 C297 0 594 0 900 0 C900 99 900 198 900 300 C603 300 306 300 0 300 C0 201 0 102 0 0 Z " fill="#9C27B0" transform="translate(0,0)"/>
<path d="M0 0 C277.2 0 554.4 0 840 0 C840 3.3 840 6.6 840 10 C562.8 10 285.6 10 0 10 C0 6.7 0 3.4 0 0 Z " fill="#000000" transform="translate(30,290)"/>
<path d="M0 0 C277.2 0 554.4 0 840 0 C840 3.3 840 6.6 840 10 C562.8 10 285.6 10 0 10 C0 6.7 0 3.4 0 0 Z " fill="#000000" transform="translate(30,0)"/>
<path d="M0 0 C13.2 0 26.4 0 40 0 C40 3.3 40 6.6 40 10 C43.3 10 46.6 10 50 10 C50 13.3 50 16.6 50 20 C53.3 20 56.6 20 60 20 C60 43.1 60 66.2 60 90 C56.7 90 53.4 90 50 90 C50 93.3 50 96.6 50 100 C46.7 100 43.4 100 40 100 C40 86.8 40 73.6 40 60 C26.8 60 13.6 60 0 60 C0 73.2 0 86.4 0 100 C-3.3 100 -6.6 100 -10 100 C-10 96.7 -10 93.4 -10 90 C-13.3 90 -16.6 90 -20 90 C-20 66.9 -20 43.8 -20 20 C-16.7 20 -13.4 20 -10 20 C-10 16.7 -10 13.4 -10 10 C-6.7 10 -3.4 10 0 10 C0 6.7 0 3.4 0 0 Z " fill="#000000" transform="translate(665,90)"/>
<path d="M0 0 C13.2 0 26.4 0 40 0 C40 3.3 40 6.6 40 10 C43.3 10 46.6 10 50 10 C50 13.3 50 16.6 50 20 C53.3 20 56.6 20 60 20 C60 43.1 60 66.2 60 90 C56.7 90 53.4 90 50 90 C50 93.3 50 96.6 50 100 C46.7 100 43.4 100 40 100 C40 86.8 40 73.6 40 60 C26.8 60 13.6 60 0 60 C0 73.2 0 86.4 0 100 C-3.3 100 -6.6 100 -10 100 C-10 96.7 -10 93.4 -10 90 C-13.3 90 -16.6 90 -20 90 C-20 66.9 -20 43.8 -20 20 C-16.7 20 -13.4 20 -10 20 C-10 16.7 -10 13.4 -10 10 C-6.7 10 -3.4 10 0 10 C0 6.7 0 3.4 0 0 Z " fill="#000000" transform="translate(495,90)"/>
<path d="M0 0 C13.2 0 26.4 0 40 0 C40 3.3 40 6.6 40 10 C43.3 10 46.6 10 50 10 C50 13.3 50 16.6 50 20 C53.3 20 56.6 20 60 20 C60 43.1 60 66.2 60 90 C56.7 90 53.4 90 50 90 C50 93.3 50 96.6 50 100 C46.7 100 43.4 100 40 100 C40 86.8 40 73.6 40 60 C26.8 60 13.6 60 0 60 C0 73.2 0 86.4 0 100 C-3.3 100 -6.6 100 -10 100 C-10 96.7 -10 93.4 -10 90 C-13.3 90 -16.6 90 -20 90 C-20 66.9 -20 43.8 -20 20 C-16.7 20 -13.4 20 -10 20 C-10 16.7 -10 13.4 -10 10 C-6.7 10 -3.4 10 0 10 C0 6.7 0 3.4 0 0 Z " fill="#000000" transform="translate(225,90)"/>
<path d="M0 0 C16.5 0 33 0 50 0 C50 3.3 50 6.6 50 10 C53.3 10 56.6 10 60 10 C60 13.3 60 16.6 60 20 C46.8 20 33.6 20 20 20 C20 23.3 20 26.6 20 30 C16.7 30 13.4 30 10 30 C10 43.2 10 56.4 10 70 C13.3 70 16.6 70 20 70 C20 73.3 20 76.6 20 80 C26.6 80 33.2 80 40 80 C40 73.4 40 66.8 40 60 C33.4 60 26.8 60 20 60 C20 56.7 20 53.4 20 50 C23.3 50 26.6 50 30 50 C30 46.7 30 43.4 30 40 C39.9 40 49.8 40 60 40 C60 56.5 60 73 60 90 C56.7 90 53.4 90 50 90 C50 93.3 50 96.6 50 100 C33.5 100 17 100 0 100 C0 96.7 0 93.4 0 90 C-3.3 90 -6.6 90 -10 90 C-10 63.6 -10 37.2 -10 10 C-6.7 10 -3.4 10 0 10 C0 6.7 0 3.4 0 0 Z " fill="#000000" transform="translate(575,90)"/>
<path d="M0 0 C3.3 0 6.6 0 10 0 C10 3.3 10 6.6 10 10 C13.3 10 16.6 10 20 10 C20 13.3 20 16.6 20 20 C23.3 20 26.6 20 30 20 C30 23.3 30 26.6 30 30 C33.3 30 36.6 30 40 30 C40 33.3 40 36.6 40 40 C43.3 40 46.6 40 50 40 C50 26.8 50 13.6 50 0 C53.3 0 56.6 0 60 0 C60 3.3 60 6.6 60 10 C63.3 10 66.6 10 70 10 C70 36.4 70 62.8 70 90 C66.7 90 63.4 90 60 90 C60 93.3 60 96.6 60 100 C56.7 100 53.4 100 50 100 C50 90.1 50 80.2 50 70 C46.7 70 43.4 70 40 70 C40 66.7 40 63.4 40 60 C36.7 60 33.4 60 30 60 C30 56.7 30 53.4 30 50 C26.7 50 23.4 50 20 50 C20 46.7 20 43.4 20 40 C16.7 40 13.4 40 10 40 C10 59.8 10 79.6 10 100 C6.7 100 3.4 100 0 100 C0 96.7 0 93.4 0 90 C-3.3 90 -6.6 90 -10 90 C-10 63.6 -10 37.2 -10 10 C-6.7 10 -3.4 10 0 10 C0 6.7 0 3.4 0 0 Z " fill="#000000" transform="translate(775,90)"/>
<path d="M0 0 C13.2 0 26.4 0 40 0 C40 3.3 40 6.6 40 10 C43.3 10 46.6 10 50 10 C50 23.2 50 36.4 50 50 C46.7 50 43.4 50 40 50 C40 53.3 40 56.6 40 60 C30.1 60 20.2 60 10 60 C10 73.2 10 86.4 10 100 C6.7 100 3.4 100 0 100 C0 96.7 0 93.4 0 90 C-3.3 90 -6.6 90 -10 90 C-10 63.6 -10 37.2 -10 10 C-6.7 10 -3.4 10 0 10 C0 6.7 0 3.4 0 0 Z " fill="#000000" transform="translate(75,90)"/>
<path d="M0 0 C3.3 0 6.6 0 10 0 C10 9.9 10 19.8 10 30 C13.3 30 16.6 30 20 30 C20 33.3 20 36.6 20 40 C26.6 40 33.2 40 40 40 C40 36.7 40 33.4 40 30 C43.3 30 46.6 30 50 30 C50 20.1 50 10.2 50 0 C53.3 0 56.6 0 60 0 C60 3.3 60 6.6 60 10 C63.3 10 66.6 10 70 10 C70 19.9 70 29.8 70 40 C66.7 40 63.4 40 60 40 C60 43.3 60 46.6 60 50 C56.7 50 53.4 50 50 50 C50 63.2 50 76.4 50 90 C46.7 90 43.4 90 40 90 C40 93.3 40 96.6 40 100 C36.7 100 33.4 100 30 100 C30 86.8 30 73.6 30 60 C23.4 60 16.8 60 10 60 C10 56.7 10 53.4 10 50 C6.7 50 3.4 50 0 50 C0 46.7 0 43.4 0 40 C-3.3 40 -6.6 40 -10 40 C-10 30.1 -10 20.2 -10 10 C-6.7 10 -3.4 10 0 10 C0 6.7 0 3.4 0 0 Z " fill="#000000" transform="translate(305,90)"/>
<path d="M0 0 C3.3 0 6.6 0 10 0 C10 23.1 10 46.2 10 70 C13.3 70 16.6 70 20 70 C20 73.3 20 76.6 20 80 C29.9 80 39.8 80 50 80 C50 83.3 50 86.6 50 90 C46.7 90 43.4 90 40 90 C40 93.3 40 96.6 40 100 C26.8 100 13.6 100 0 100 C0 96.7 0 93.4 0 90 C-3.3 90 -6.6 90 -10 90 C-10 63.6 -10 37.2 -10 10 C-6.7 10 -3.4 10 0 10 C0 6.7 0 3.4 0 0 Z " fill="#000000" transform="translate(145,90)"/>
<path d="M0 0 C3.3 0 6.6 0 10 0 C10 79.2 10 158.4 10 240 C6.7 240 3.4 240 0 240 C0 160.8 0 81.6 0 0 Z " fill="#000000" transform="translate(890,30)"/>
<path d="M0 0 C3.3 0 6.6 0 10 0 C10 79.2 10 158.4 10 240 C6.7 240 3.4 240 0 240 C0 160.8 0 81.6 0 0 Z " fill="#000000" transform="translate(0,30)"/>
<path d="M0 0 C3.3 0 6.6 0 10 0 C10 29.7 10 59.4 10 90 C6.7 90 3.4 90 0 90 C0 93.3 0 96.6 0 100 C-3.3 100 -6.6 100 -10 100 C-10 70.3 -10 40.6 -10 10 C-6.7 10 -3.4 10 0 10 C0 6.7 0 3.4 0 0 Z " fill="#000000" transform="translate(745,90)"/>
<path d="M0 0 C9.9 0 19.8 0 30 0 C30 9.9 30 19.8 30 30 C23.4 30 16.8 30 10 30 C10 26.7 10 23.4 10 20 C6.7 20 3.4 20 0 20 C0 13.4 0 6.8 0 0 Z " fill="#9C27B0" transform="translate(870,0)"/>
<path d="M0 0 C9.9 0 19.8 0 30 0 C30 6.6 30 13.2 30 20 C26.7 20 23.4 20 20 20 C20 23.3 20 26.6 20 30 C13.4 30 6.8 30 0 30 C0 20.1 0 10.2 0 0 Z " fill="#9C27B0" transform="translate(0,0)"/>
<path d="M0 0 C6.6 0 13.2 0 20 0 C20 3.3 20 6.6 20 10 C23.3 10 26.6 10 30 10 C30 13.3 30 16.6 30 20 C16.8 20 3.6 20 -10 20 C-10 16.7 -10 13.4 -10 10 C-6.7 10 -3.4 10 0 10 C0 6.7 0 3.4 0 0 Z " fill="#9C27B0" transform="translate(675,110)"/>
<path d="M0 0 C6.6 0 13.2 0 20 0 C20 3.3 20 6.6 20 10 C23.3 10 26.6 10 30 10 C30 13.3 30 16.6 30 20 C16.8 20 3.6 20 -10 20 C-10 16.7 -10 13.4 -10 10 C-6.7 10 -3.4 10 0 10 C0 6.7 0 3.4 0 0 Z " fill="#9C27B0" transform="translate(505,110)"/>
<path d="M0 0 C6.6 0 13.2 0 20 0 C20 3.3 20 6.6 20 10 C23.3 10 26.6 10 30 10 C30 13.3 30 16.6 30 20 C16.8 20 3.6 20 -10 20 C-10 16.7 -10 13.4 -10 10 C-6.7 10 -3.4 10 0 10 C0 6.7 0 3.4 0 0 Z " fill="#9C27B0" transform="translate(235,110)"/>
<path d="M0 0 C6.6 0 13.2 0 20 0 C20 6.6 20 13.2 20 20 C13.4 20 6.8 20 0 20 C0 13.4 0 6.8 0 0 Z " fill="#9C27B0" transform="translate(85,110)"/>
<path d="M0 0 C3.3 0 6.6 0 10 0 C10 6.6 10 13.2 10 20 C3.4 20 -3.2 20 -10 20 C-10 16.7 -10 13.4 -10 10 C-6.7 10 -3.4 10 0 10 C0 6.7 0 3.4 0 0 Z " fill="#000000" transform="translate(880,270)"/>
<path d="M0 0 C3.3 0 6.6 0 10 0 C10 3.3 10 6.6 10 10 C13.3 10 16.6 10 20 10 C20 13.3 20 16.6 20 20 C13.4 20 6.8 20 0 20 C0 13.4 0 6.8 0 0 Z " fill="#000000" transform="translate(10,270)"/>
<path d="M0 0 C6.6 0 13.2 0 20 0 C20 6.6 20 13.2 20 20 C16.7 20 13.4 20 10 20 C10 16.7 10 13.4 10 10 C6.7 10 3.4 10 0 10 C0 6.7 0 3.4 0 0 Z " fill="#000000" transform="translate(870,10)"/>
<path d="M0 0 C6.6 0 13.2 0 20 0 C20 3.3 20 6.6 20 10 C16.7 10 13.4 10 10 10 C10 13.3 10 16.6 10 20 C6.7 20 3.4 20 0 20 C0 13.4 0 6.8 0 0 Z " fill="#000000" transform="translate(10,10)"/>
</svg>
