<?xml version="1.0" encoding="UTF-8"?>
<svg version="1.1" xmlns="http://www.w3.org/2000/svg" width="600" height="600">
<path d="M0 0 C198 0 396 0 600 0 C600 198 600 396 600 600 C402 600 204 600 0 600 C0 402 0 204 0 0 Z " fill="#9C27B0" transform="translate(0,0)"/>
<path d="M0 0 C9.9 0 19.8 0 30 0 C30 3.3 30 6.6 30 10 C115.8 10 201.6 10 290 10 C290 6.7 290 3.4 290 0 C299.9 0 309.8 0 320 0 C320 9.9 320 19.8 320 30 C316.7 30 313.4 30 310 30 C310 86.1 310 142.2 310 200 C300.1 200 290.2 200 280 200 C280 190.1 280 180.2 280 170 C276.7 170 273.4 170 270 170 C270 166.7 270 163.4 270 160 C263.4 160 256.8 160 250 160 C250 156.7 250 153.4 250 150 C246.7 150 243.4 150 240 150 C240 146.7 240 143.4 240 140 C230.1 140 220.2 140 210 140 C210 136.7 210 133.4 210 130 C206.7 130 203.4 130 200 130 C200 126.7 200 123.4 200 120 C193.4 120 186.8 120 180 120 C180 96.9 180 73.8 180 50 C176.7 50 173.4 50 170 50 C170 46.7 170 43.4 170 40 C163.4 40 156.8 40 150 40 C150 43.3 150 46.6 150 50 C146.7 50 143.4 50 140 50 C140 73.1 140 96.2 140 120 C133.4 120 126.8 120 120 120 C120 123.3 120 126.6 120 130 C116.7 130 113.4 130 110 130 C110 133.3 110 136.6 110 140 C103.4 140 96.8 140 90 140 C90 143.3 90 146.6 90 150 C86.7 150 83.4 150 80 150 C80 153.3 80 156.6 80 160 C70.1 160 60.2 160 50 160 C50 163.3 50 166.6 50 170 C46.7 170 43.4 170 40 170 C40 179.9 40 189.8 40 200 C43.3 200 46.6 200 50 200 C50 203.3 50 206.6 50 210 C46.7 210 43.4 210 40 210 C40 219.9 40 229.8 40 240 C53.2 240 66.4 240 80 240 C80 233.4 80 226.8 80 220 C83.3 220 86.6 220 90 220 C90 216.7 90 213.4 90 210 C96.6 210 103.2 210 110 210 C110 206.7 110 203.4 110 200 C116.6 200 123.2 200 130 200 C130 196.7 130 193.4 130 190 C116.8 190 103.6 190 90 190 C90 193.3 90 196.6 90 200 C86.7 200 83.4 200 80 200 C80 190.1 80 180.2 80 170 C83.3 170 86.6 170 90 170 C90 166.7 90 163.4 90 160 C96.6 160 103.2 160 110 160 C110 156.7 110 153.4 110 150 C113.3 150 116.6 150 120 150 C120 146.7 120 143.4 120 140 C123.3 140 126.6 140 130 140 C130 143.3 130 146.6 130 150 C133.3 150 136.6 150 140 150 C140 153.3 140 156.6 140 160 C143.3 160 146.6 160 150 160 C150 163.3 150 166.6 150 170 C156.6 170 163.2 170 170 170 C170 166.7 170 163.4 170 160 C173.3 160 176.6 160 180 160 C180 156.7 180 153.4 180 150 C183.3 150 186.6 150 190 150 C190 146.7 190 143.4 190 140 C193.3 140 196.6 140 200 140 C200 143.3 200 146.6 200 150 C203.3 150 206.6 150 210 150 C210 153.3 210 156.6 210 160 C219.9 160 229.8 160 240 160 C240 163.3 240 166.6 240 170 C243.3 170 246.6 170 250 170 C250 179.9 250 189.8 250 200 C243.4 200 236.8 200 230 200 C230 203.3 230 206.6 230 210 C315.8 210 401.6 210 490 210 C490 206.7 490 203.4 490 200 C499.9 200 509.8 200 520 200 C520 209.9 520 219.8 520 230 C516.7 230 513.4 230 510 230 C510 315.8 510 401.6 510 490 C513.3 490 516.6 490 520 490 C520 499.9 520 509.8 520 520 C510.1 520 500.2 520 490 520 C490 516.7 490 513.4 490 510 C404.2 510 318.4 510 230 510 C230 513.3 230 516.6 230 520 C220.1 520 210.2 520 200 520 C200 510.1 200 500.2 200 490 C203.3 490 206.6 490 210 490 C210 404.2 210 318.4 210 230 C206.7 230 203.4 230 200 230 C200 256.4 200 282.8 200 310 C143.9 310 87.8 310 30 310 C30 313.3 30 316.6 30 320 C20.1 320 10.2 320 0 320 C0 310.1 0 300.2 0 290 C3.3 290 6.6 290 10 290 C10 204.2 10 118.4 10 30 C6.7 30 3.4 30 0 30 C0 20.1 0 10.2 0 0 Z " fill="#000000" transform="translate(40,40)"/>
<path d="M0 0 C9.9 0 19.8 0 30 0 C30 3.3 30 6.6 30 10 C115.8 10 201.6 10 290 10 C290 6.7 290 3.4 290 0 C299.9 0 309.8 0 320 0 C320 9.9 320 19.8 320 30 C316.7 30 313.4 30 310 30 C310 86.1 310 142.2 310 200 C300.1 200 290.2 200 280 200 C280 190.1 280 180.2 280 170 C276.7 170 273.4 170 270 170 C270 166.7 270 163.4 270 160 C263.4 160 256.8 160 250 160 C250 156.7 250 153.4 250 150 C246.7 150 243.4 150 240 150 C240 146.7 240 143.4 240 140 C230.1 140 220.2 140 210 140 C210 136.7 210 133.4 210 130 C206.7 130 203.4 130 200 130 C200 126.7 200 123.4 200 120 C193.4 120 186.8 120 180 120 C180 96.9 180 73.8 180 50 C176.7 50 173.4 50 170 50 C170 46.7 170 43.4 170 40 C163.4 40 156.8 40 150 40 C150 43.3 150 46.6 150 50 C146.7 50 143.4 50 140 50 C140 73.1 140 96.2 140 120 C133.4 120 126.8 120 120 120 C120 123.3 120 126.6 120 130 C116.7 130 113.4 130 110 130 C110 133.3 110 136.6 110 140 C103.4 140 96.8 140 90 140 C90 143.3 90 146.6 90 150 C86.7 150 83.4 150 80 150 C80 153.3 80 156.6 80 160 C70.1 160 60.2 160 50 160 C50 163.3 50 166.6 50 170 C46.7 170 43.4 170 40 170 C40 179.9 40 189.8 40 200 C43.3 200 46.6 200 50 200 C50 203.3 50 206.6 50 210 C46.7 210 43.4 210 40 210 C40 219.9 40 229.8 40 240 C53.2 240 66.4 240 80 240 C80 233.4 80 226.8 80 220 C83.3 220 86.6 220 90 220 C90 216.7 90 213.4 90 210 C96.6 210 103.2 210 110 210 C110 206.7 110 203.4 110 200 C116.6 200 123.2 200 130 200 C130 196.7 130 193.4 130 190 C116.8 190 103.6 190 90 190 C90 193.3 90 196.6 90 200 C86.7 200 83.4 200 80 200 C80 190.1 80 180.2 80 170 C83.3 170 86.6 170 90 170 C90 166.7 90 163.4 90 160 C96.6 160 103.2 160 110 160 C110 156.7 110 153.4 110 150 C113.3 150 116.6 150 120 150 C120 146.7 120 143.4 120 140 C123.3 140 126.6 140 130 140 C130 143.3 130 146.6 130 150 C133.3 150 136.6 150 140 150 C140 153.3 140 156.6 140 160 C143.3 160 146.6 160 150 160 C150 163.3 150 166.6 150 170 C156.6 170 163.2 170 170 170 C170 166.7 170 163.4 170 160 C173.3 160 176.6 160 180 160 C180 156.7 180 153.4 180 150 C183.3 150 186.6 150 190 150 C190 146.7 190 143.4 190 140 C193.3 140 196.6 140 200 140 C200 143.3 200 146.6 200 150 C203.3 150 206.6 150 210 150 C210 153.3 210 156.6 210 160 C219.9 160 229.8 160 240 160 C240 163.3 240 166.6 240 170 C243.3 170 246.6 170 250 170 C250 179.9 250 189.8 250 200 C243.4 200 236.8 200 230 200 C230 206.6 230 213.2 230 220 C226.7 220 223.4 220 220 220 C220 223.3 220 226.6 220 230 C213.4 230 206.8 230 200 230 C200 256.4 200 282.8 200 310 C143.9 310 87.8 310 30 310 C30 313.3 30 316.6 30 320 C20.1 320 10.2 320 0 320 C0 310.1 0 300.2 0 290 C3.3 290 6.6 290 10 290 C10 204.2 10 118.4 10 30 C6.7 30 3.4 30 0 30 C0 20.1 0 10.2 0 0 Z " fill="#000000" transform="translate(40,40)"/>
<path d="M0 0 C6.6 0 13.2 0 20 0 C20 3.3 20 6.6 20 10 C23.3 10 26.6 10 30 10 C30 23.2 30 36.4 30 50 C33.3 50 36.6 50 40 50 C40 59.9 40 69.8 40 80 C43.3 80 46.6 80 50 80 C50 83.3 50 86.6 50 90 C53.3 90 56.6 90 60 90 C60 83.4 60 76.8 60 70 C63.3 70 66.6 70 70 70 C70 79.9 70 89.8 70 100 C76.6 100 83.2 100 90 100 C90 103.3 90 106.6 90 110 C93.3 110 96.6 110 100 110 C100 113.3 100 116.6 100 120 C106.6 120 113.2 120 120 120 C120 123.3 120 126.6 120 130 C123.3 130 126.6 130 130 130 C130 153.1 130 176.2 130 200 C126.7 200 123.4 200 120 200 C120 206.6 120 213.2 120 220 C113.4 220 106.8 220 100 220 C100 206.8 100 193.6 100 180 C96.7 180 93.4 180 90 180 C90 176.7 90 173.4 90 170 C80.1 170 70.2 170 60 170 C60 166.7 60 163.4 60 160 C53.4 160 46.8 160 40 160 C40 173.2 40 186.4 40 200 C36.7 200 33.4 200 30 200 C30 190.1 30 180.2 30 170 C26.7 170 23.4 170 20 170 C20 163.4 20 156.8 20 150 C13.4 150 6.8 150 0 150 C0 156.6 0 163.2 0 170 C-3.3 170 -6.6 170 -10 170 C-10 179.9 -10 189.8 -10 200 C-13.3 200 -16.6 200 -20 200 C-20 186.8 -20 173.6 -20 160 C-26.6 160 -33.2 160 -40 160 C-40 163.3 -40 166.6 -40 170 C-46.6 170 -53.2 170 -60 170 C-60 173.3 -60 176.6 -60 180 C-63.3 180 -66.6 180 -70 180 C-70 193.2 -70 206.4 -70 220 C-79.9 220 -89.8 220 -100 220 C-100 213.4 -100 206.8 -100 200 C-103.3 200 -106.6 200 -110 200 C-110 190.1 -110 180.2 -110 170 C-106.7 170 -103.4 170 -100 170 C-100 166.7 -100 163.4 -100 160 C-103.3 160 -106.6 160 -110 160 C-110 150.1 -110 140.2 -110 130 C-106.7 130 -103.4 130 -100 130 C-100 126.7 -100 123.4 -100 120 C-90.1 120 -80.2 120 -70 120 C-70 116.7 -70 113.4 -70 110 C-66.7 110 -63.4 110 -60 110 C-60 106.7 -60 103.4 -60 100 C-56.7 100 -53.4 100 -50 100 C-50 90.1 -50 80.2 -50 70 C-46.7 70 -43.4 70 -40 70 C-40 76.6 -40 83.2 -40 90 C-36.7 90 -33.4 90 -30 90 C-30 86.7 -30 83.4 -30 80 C-26.7 80 -23.4 80 -20 80 C-20 70.1 -20 60.2 -20 50 C-16.7 50 -13.4 50 -10 50 C-10 36.8 -10 23.6 -10 10 C-6.7 10 -3.4 10 0 10 C0 6.7 0 3.4 0 0 Z " fill="#880E4F" transform="translate(390,280)"/>
<path d="M0 0 C3.3 0 6.6 0 10 0 C10 56.1 10 112.2 10 170 C66.1 170 122.2 170 180 170 C180 173.3 180 176.6 180 180 C94.2 180 8.4 180 -80 180 C-80 176.7 -80 173.4 -80 170 C-73.4 170 -66.8 170 -60 170 C-60 160.1 -60 150.2 -60 140 C-63.3 140 -66.6 140 -70 140 C-70 136.7 -70 133.4 -70 130 C-79.9 130 -89.8 130 -100 130 C-100 126.7 -100 123.4 -100 120 C-103.3 120 -106.6 120 -110 120 C-110 116.7 -110 113.4 -110 110 C-113.3 110 -116.6 110 -120 110 C-120 113.3 -120 116.6 -120 120 C-123.3 120 -126.6 120 -130 120 C-130 123.3 -130 126.6 -130 130 C-133.3 130 -136.6 130 -140 130 C-140 133.3 -140 136.6 -140 140 C-146.6 140 -153.2 140 -160 140 C-160 136.7 -160 133.4 -160 130 C-163.3 130 -166.6 130 -170 130 C-170 126.7 -170 123.4 -170 120 C-173.3 120 -176.6 120 -180 120 C-180 116.7 -180 113.4 -180 110 C-183.3 110 -186.6 110 -190 110 C-190 113.3 -190 116.6 -190 120 C-193.3 120 -196.6 120 -200 120 C-200 123.3 -200 126.6 -200 130 C-206.6 130 -213.2 130 -220 130 C-220 133.3 -220 136.6 -220 140 C-223.3 140 -226.6 140 -230 140 C-230 149.9 -230 159.8 -230 170 C-226.7 170 -223.4 170 -220 170 C-220 166.7 -220 163.4 -220 160 C-206.8 160 -193.6 160 -180 160 C-180 163.3 -180 166.6 -180 170 C-186.6 170 -193.2 170 -200 170 C-200 173.3 -200 176.6 -200 180 C-206.6 180 -213.2 180 -220 180 C-220 183.3 -220 186.6 -220 190 C-223.3 190 -226.6 190 -230 190 C-230 196.6 -230 203.2 -230 210 C-243.2 210 -256.4 210 -270 210 C-270 200.1 -270 190.2 -270 180 C-266.7 180 -263.4 180 -260 180 C-260 176.7 -260 173.4 -260 170 C-263.3 170 -266.6 170 -270 170 C-270 160.1 -270 150.2 -270 140 C-266.7 140 -263.4 140 -260 140 C-260 136.7 -260 133.4 -260 130 C-250.1 130 -240.2 130 -230 130 C-230 126.7 -230 123.4 -230 120 C-226.7 120 -223.4 120 -220 120 C-220 116.7 -220 113.4 -220 110 C-213.4 110 -206.8 110 -200 110 C-200 106.7 -200 103.4 -200 100 C-196.7 100 -193.4 100 -190 100 C-190 96.7 -190 93.4 -190 90 C-183.4 90 -176.8 90 -170 90 C-170 66.9 -170 43.8 -170 20 C-166.7 20 -163.4 20 -160 20 C-160 16.7 -160 13.4 -160 10 C-153.4 10 -146.8 10 -140 10 C-140 13.3 -140 16.6 -140 20 C-136.7 20 -133.4 20 -130 20 C-130 43.1 -130 66.2 -130 90 C-123.4 90 -116.8 90 -110 90 C-110 93.3 -110 96.6 -110 100 C-106.7 100 -103.4 100 -100 100 C-100 103.3 -100 106.6 -100 110 C-90.1 110 -80.2 110 -70 110 C-70 113.3 -70 116.6 -70 120 C-66.7 120 -63.4 120 -60 120 C-60 123.3 -60 126.6 -60 130 C-53.4 130 -46.8 130 -40 130 C-40 133.3 -40 136.6 -40 140 C-36.7 140 -33.4 140 -30 140 C-30 149.9 -30 159.8 -30 170 C-20.1 170 -10.2 170 0 170 C0 113.9 0 57.8 0 0 Z " fill="#009688" transform="translate(350,70)"/>
<path d="M0 0 C3.3 0 6.6 0 10 0 C10 3.3 10 6.6 10 10 C13.3 10 16.6 10 20 10 C20 13.3 20 16.6 20 20 C23.3 20 26.6 20 30 20 C30 23.3 30 26.6 30 30 C36.6 30 43.2 30 50 30 C50 26.7 50 23.4 50 20 C53.3 20 56.6 20 60 20 C60 16.7 60 13.4 60 10 C63.3 10 66.6 10 70 10 C70 6.7 70 3.4 70 0 C73.3 0 76.6 0 80 0 C80 3.3 80 6.6 80 10 C83.3 10 86.6 10 90 10 C90 13.3 90 16.6 90 20 C99.9 20 109.8 20 120 20 C120 23.3 120 26.6 120 30 C123.3 30 126.6 30 130 30 C130 39.9 130 49.8 130 60 C110.2 60 90.4 60 70 60 C70 73.2 70 86.4 70 100 C66.7 100 63.4 100 60 100 C60 90.1 60 80.2 60 70 C56.7 70 53.4 70 50 70 C50 63.4 50 56.8 50 50 C43.4 50 36.8 50 30 50 C30 56.6 30 63.2 30 70 C26.7 70 23.4 70 20 70 C20 79.9 20 89.8 20 100 C16.7 100 13.4 100 10 100 C10 83.5 10 67 10 50 C-3.2 50 -16.4 50 -30 50 C-30 53.3 -30 56.6 -30 60 C-33.3 60 -36.6 60 -40 60 C-40 50.1 -40 40.2 -40 30 C-36.7 30 -33.4 30 -30 30 C-30 26.7 -30 23.4 -30 20 C-23.4 20 -16.8 20 -10 20 C-10 16.7 -10 13.4 -10 10 C-6.7 10 -3.4 10 0 10 C0 6.7 0 3.4 0 0 Z " fill="#464646" transform="translate(160,180)"/>
<path d="M0 0 C3.3 0 6.6 0 10 0 C10 3.3 10 6.6 10 10 C13.3 10 16.6 10 20 10 C20 13.3 20 16.6 20 20 C23.3 20 26.6 20 30 20 C30 23.3 30 26.6 30 30 C36.6 30 43.2 30 50 30 C50 26.7 50 23.4 50 20 C53.3 20 56.6 20 60 20 C60 16.7 60 13.4 60 10 C63.3 10 66.6 10 70 10 C70 6.7 70 3.4 70 0 C73.3 0 76.6 0 80 0 C80 3.3 80 6.6 80 10 C83.3 10 86.6 10 90 10 C90 13.3 90 16.6 90 20 C99.9 20 109.8 20 120 20 C120 23.3 120 26.6 120 30 C123.3 30 126.6 30 130 30 C130 39.9 130 49.8 130 60 C126.7 60 123.4 60 120 60 C120 56.7 120 53.4 120 50 C103.5 50 87 50 70 50 C70 66.5 70 83 70 100 C66.7 100 63.4 100 60 100 C60 90.1 60 80.2 60 70 C56.7 70 53.4 70 50 70 C50 63.4 50 56.8 50 50 C43.4 50 36.8 50 30 50 C30 56.6 30 63.2 30 70 C26.7 70 23.4 70 20 70 C20 79.9 20 89.8 20 100 C16.7 100 13.4 100 10 100 C10 83.5 10 67 10 50 C-3.2 50 -16.4 50 -30 50 C-30 53.3 -30 56.6 -30 60 C-33.3 60 -36.6 60 -40 60 C-40 50.1 -40 40.2 -40 30 C-36.7 30 -33.4 30 -30 30 C-30 26.7 -30 23.4 -30 20 C-23.4 20 -16.8 20 -10 20 C-10 16.7 -10 13.4 -10 10 C-6.7 10 -3.4 10 0 10 C0 6.7 0 3.4 0 0 Z " fill="#464646" transform="translate(360,380)"/>
<path d="M0 0 C178.2 0 356.4 0 540 0 C540 3.3 540 6.6 540 10 C361.8 10 183.6 10 0 10 C0 6.7 0 3.4 0 0 Z " fill="#000000" transform="translate(30,590)"/>
<path d="M0 0 C3.3 0 6.6 0 10 0 C10 178.2 10 356.4 10 540 C6.7 540 3.4 540 0 540 C0 361.8 0 183.6 0 0 Z " fill="#000000" transform="translate(590,30)"/>
<path d="M0 0 C3.3 0 6.6 0 10 0 C10 178.2 10 356.4 10 540 C6.7 540 3.4 540 0 540 C0 361.8 0 183.6 0 0 Z " fill="#000000" transform="translate(0,30)"/>
<path d="M0 0 C178.2 0 356.4 0 540 0 C540 3.3 540 6.6 540 10 C361.8 10 183.6 10 0 10 C0 6.7 0 3.4 0 0 Z " fill="#000000" transform="translate(30,0)"/>
<path d="M0 0 C3.3 0 6.6 0 10 0 C10 9.9 10 19.8 10 30 C16.6 30 23.2 30 30 30 C30 33.3 30 36.6 30 40 C33.3 40 36.6 40 40 40 C40 43.3 40 46.6 40 50 C46.6 50 53.2 50 60 50 C60 53.3 60 56.6 60 60 C63.3 60 66.6 60 70 60 C70 83.1 70 106.2 70 130 C66.7 130 63.4 130 60 130 C60 136.6 60 143.2 60 150 C53.4 150 46.8 150 40 150 C40 136.8 40 123.6 40 110 C36.7 110 33.4 110 30 110 C30 106.7 30 103.4 30 100 C20.1 100 10.2 100 0 100 C0 96.7 0 93.4 0 90 C-6.6 90 -13.2 90 -20 90 C-20 86.7 -20 83.4 -20 80 C-3.5 80 13 80 30 80 C30 83.3 30 86.6 30 90 C33.3 90 36.6 90 40 90 C40 80.1 40 70.2 40 60 C36.7 60 33.4 60 30 60 C30 56.7 30 53.4 30 50 C20.1 50 10.2 50 0 50 C0 46.7 0 43.4 0 40 C-3.3 40 -6.6 40 -10 40 C-10 36.7 -10 33.4 -10 30 C-13.3 30 -16.6 30 -20 30 C-20 23.4 -20 16.8 -20 10 C-16.7 10 -13.4 10 -10 10 C-10 13.3 -10 16.6 -10 20 C-6.7 20 -3.4 20 0 20 C0 13.4 0 6.8 0 0 Z " fill="#880E4F" transform="translate(450,350)"/>
<path d="M0 0 C3.3 0 6.6 0 10 0 C10 56.1 10 112.2 10 170 C66.1 170 122.2 170 180 170 C180 173.3 180 176.6 180 180 C94.2 180 8.4 180 -80 180 C-80 176.7 -80 173.4 -80 170 C-66.8 170 -53.6 170 -40 170 C-40 166.7 -40 163.4 -40 160 C-43.3 160 -46.6 160 -50 160 C-50 150.1 -50 140.2 -50 130 C-46.7 130 -43.4 130 -40 130 C-40 133.3 -40 136.6 -40 140 C-36.7 140 -33.4 140 -30 140 C-30 149.9 -30 159.8 -30 170 C-20.1 170 -10.2 170 0 170 C0 113.9 0 57.8 0 0 Z " fill="#FFFFFF" transform="translate(350,70)"/>
<path d="M0 0 C3.3 0 6.6 0 10 0 C10 85.8 10 171.6 10 260 C6.7 260 3.4 260 0 260 C0 203.9 0 147.8 0 90 C-56.1 90 -112.2 90 -170 90 C-170 86.7 -170 83.4 -170 80 C-113.9 80 -57.8 80 0 80 C0 53.6 0 27.2 0 0 Z " fill="#FFFFFF" transform="translate(240,270)"/>
<path d="M0 0 C6.6 0 13.2 0 20 0 C20 3.3 20 6.6 20 10 C23.3 10 26.6 10 30 10 C30 23.2 30 36.4 30 50 C33.3 50 36.6 50 40 50 C40 59.9 40 69.8 40 80 C36.7 80 33.4 80 30 80 C30 76.7 30 73.4 30 70 C16.8 70 3.6 70 -10 70 C-10 73.3 -10 76.6 -10 80 C-13.3 80 -16.6 80 -20 80 C-20 70.1 -20 60.2 -20 50 C-16.7 50 -13.4 50 -10 50 C-10 36.8 -10 23.6 -10 10 C-6.7 10 -3.4 10 0 10 C0 6.7 0 3.4 0 0 Z " fill="#880E4F" transform="translate(390,280)"/>
<path d="M0 0 C9.9 0 19.8 0 30 0 C30 3.3 30 6.6 30 10 C33.3 10 36.6 10 40 10 C40 13.3 40 16.6 40 20 C49.9 20 59.8 20 70 20 C70 23.3 70 26.6 70 30 C73.3 30 76.6 30 80 30 C80 33.3 80 36.6 80 40 C83.3 40 86.6 40 90 40 C90 49.9 90 59.8 90 70 C93.3 70 96.6 70 100 70 C100 73.3 100 76.6 100 80 C93.4 80 86.8 80 80 80 C80 70.1 80 60.2 80 50 C76.7 50 73.4 50 70 50 C70 46.7 70 43.4 70 40 C60.1 40 50.2 40 40 40 C40 36.7 40 33.4 40 30 C36.7 30 33.4 30 30 30 C30 26.7 30 23.4 30 20 C26.7 20 23.4 20 20 20 C20 23.3 20 26.6 20 30 C6.8 30 -6.4 30 -20 30 C-20 23.4 -20 16.8 -20 10 C-13.4 10 -6.8 10 0 10 C0 6.7 0 3.4 0 0 Z " fill="#009688" transform="translate(210,160)"/>
<path d="M0 0 C85.8 0 171.6 0 260 0 C260 3.3 260 6.6 260 10 C174.2 10 88.4 10 0 10 C0 6.7 0 3.4 0 0 Z " fill="#FFFFFF" transform="translate(270,550)"/>
<path d="M0 0 C3.3 0 6.6 0 10 0 C10 85.8 10 171.6 10 260 C6.7 260 3.4 260 0 260 C0 174.2 0 88.4 0 0 Z " fill="#FFFFFF" transform="translate(550,270)"/>
<path d="M0 0 C6.6 0 13.2 0 20 0 C20 3.3 20 6.6 20 10 C23.3 10 26.6 10 30 10 C30 29.8 30 49.6 30 70 C16.8 70 3.6 70 -10 70 C-10 50.2 -10 30.4 -10 10 C-6.7 10 -3.4 10 0 10 C0 6.7 0 3.4 0 0 Z " fill="#009688" transform="translate(190,80)"/>
<path d="M0 0 C3.3 0 6.6 0 10 0 C10 85.8 10 171.6 10 260 C6.7 260 3.4 260 0 260 C0 174.2 0 88.4 0 0 Z " fill="#FFFFFF" transform="translate(40,70)"/>
<path d="M0 0 C85.8 0 171.6 0 260 0 C260 3.3 260 6.6 260 10 C174.2 10 88.4 10 0 10 C0 6.7 0 3.4 0 0 Z " fill="#FFFFFF" transform="translate(70,40)"/>
<path d="M0 0 C13.2 0 26.4 0 40 0 C40 3.3 40 6.6 40 10 C43.3 10 46.6 10 50 10 C50 19.9 50 29.8 50 40 C46.7 40 43.4 40 40 40 C40 43.3 40 46.6 40 50 C36.7 50 33.4 50 30 50 C30 53.3 30 56.6 30 60 C23.4 60 16.8 60 10 60 C10 56.7 10 53.4 10 50 C6.7 50 3.4 50 0 50 C0 46.7 0 43.4 0 40 C3.3 40 6.6 40 10 40 C10 30.1 10 20.2 10 10 C6.7 10 3.4 10 0 10 C0 6.7 0 3.4 0 0 Z " fill="#4D6DF3" transform="translate(380,350)"/>
<path d="M0 0 C13.2 0 26.4 0 40 0 C40 3.3 40 6.6 40 10 C36.7 10 33.4 10 30 10 C30 13.3 30 16.6 30 20 C23.4 20 16.8 20 10 20 C10 26.6 10 33.2 10 40 C19.9 40 29.8 40 40 40 C40 43.3 40 46.6 40 50 C36.7 50 33.4 50 30 50 C30 53.3 30 56.6 30 60 C23.4 60 16.8 60 10 60 C10 56.7 10 53.4 10 50 C6.7 50 3.4 50 0 50 C0 46.7 0 43.4 0 40 C-3.3 40 -6.6 40 -10 40 C-10 30.1 -10 20.2 -10 10 C-6.7 10 -3.4 10 0 10 C0 6.7 0 3.4 0 0 Z " fill="#009688" transform="translate(180,150)"/>
<path d="M0 0 C6.6 0 13.2 0 20 0 C20 3.3 20 6.6 20 10 C23.3 10 26.6 10 30 10 C30 13.3 30 16.6 30 20 C26.7 20 23.4 20 20 20 C20 29.9 20 39.8 20 50 C13.4 50 6.8 50 0 50 C0 40.1 0 30.2 0 20 C-3.3 20 -6.6 20 -10 20 C-10 16.7 -10 13.4 -10 10 C-6.7 10 -3.4 10 0 10 C0 6.7 0 3.4 0 0 Z " fill="#4D6DF3" transform="translate(390,280)"/>
<path d="M0 0 C6.6 0 13.2 0 20 0 C20 3.3 20 6.6 20 10 C23.3 10 26.6 10 30 10 C30 13.3 30 16.6 30 20 C26.7 20 23.4 20 20 20 C20 29.9 20 39.8 20 50 C13.4 50 6.8 50 0 50 C0 40.1 0 30.2 0 20 C-3.3 20 -6.6 20 -10 20 C-10 16.7 -10 13.4 -10 10 C-6.7 10 -3.4 10 0 10 C0 6.7 0 3.4 0 0 Z " fill="#4D6DF3" transform="translate(190,80)"/>
<path d="M0 0 C6.6 0 13.2 0 20 0 C20 9.9 20 19.8 20 30 C6.8 30 -6.4 30 -20 30 C-20 23.4 -20 16.8 -20 10 C-13.4 10 -6.8 10 0 10 C0 6.7 0 3.4 0 0 Z " fill="#2F3699" transform="translate(210,160)"/>
<path d="M0 0 C3.3 0 6.6 0 10 0 C10 9.9 10 19.8 10 30 C13.3 30 16.6 30 20 30 C20 39.9 20 49.8 20 60 C16.7 60 13.4 60 10 60 C10 56.7 10 53.4 10 50 C6.7 50 3.4 50 0 50 C0 33.5 0 17 0 0 Z " fill="#880E4F" transform="translate(410,300)"/>
<path d="M0 0 C9.9 0 19.8 0 30 0 C30 9.9 30 19.8 30 30 C23.4 30 16.8 30 10 30 C10 26.7 10 23.4 10 20 C6.7 20 3.4 20 0 20 C0 13.4 0 6.8 0 0 Z " fill="#9C27B0" transform="translate(570,0)"/>
<path d="M0 0 C9.9 0 19.8 0 30 0 C30 6.6 30 13.2 30 20 C26.7 20 23.4 20 20 20 C20 23.3 20 26.6 20 30 C13.4 30 6.8 30 0 30 C0 20.1 0 10.2 0 0 Z " fill="#9C27B0" transform="translate(0,0)"/>
<path d="M0 0 C3.3 0 6.6 0 10 0 C10 3.3 10 6.6 10 10 C13.3 10 16.6 10 20 10 C20 19.9 20 29.8 20 40 C16.7 40 13.4 40 10 40 C10 36.7 10 33.4 10 30 C6.7 30 3.4 30 0 30 C0 20.1 0 10.2 0 0 Z " fill="#FFFFFF" transform="translate(500,400)"/>
<path d="M0 0 C3.3 0 6.6 0 10 0 C10 9.9 10 19.8 10 30 C6.7 30 3.4 30 0 30 C0 33.3 0 36.6 0 40 C-3.3 40 -6.6 40 -10 40 C-10 30.1 -10 20.2 -10 10 C-6.7 10 -3.4 10 0 10 C0 6.7 0 3.4 0 0 Z " fill="#FFFFFF" transform="translate(290,400)"/>
<path d="M0 0 C13.2 0 26.4 0 40 0 C40 3.3 40 6.6 40 10 C36.7 10 33.4 10 30 10 C30 13.3 30 16.6 30 20 C23.4 20 16.8 20 10 20 C10 16.7 10 13.4 10 10 C6.7 10 3.4 10 0 10 C0 6.7 0 3.4 0 0 Z " fill="#FFFFFF" transform="translate(380,390)"/>
<path d="M0 0 C6.6 0 13.2 0 20 0 C20 3.3 20 6.6 20 10 C23.3 10 26.6 10 30 10 C30 13.3 30 16.6 30 20 C16.8 20 3.6 20 -10 20 C-10 16.7 -10 13.4 -10 10 C-6.7 10 -3.4 10 0 10 C0 6.7 0 3.4 0 0 Z " fill="#00B7EF" transform="translate(390,280)"/>
<path d="M0 0 C3.3 0 6.6 0 10 0 C10 9.9 10 19.8 10 30 C6.7 30 3.4 30 0 30 C0 33.3 0 36.6 0 40 C-3.3 40 -6.6 40 -10 40 C-10 30.1 -10 20.2 -10 10 C-6.7 10 -3.4 10 0 10 C0 6.7 0 3.4 0 0 Z " fill="#FFFFFF" transform="translate(90,200)"/>
<path d="M0 0 C13.2 0 26.4 0 40 0 C40 3.3 40 6.6 40 10 C36.7 10 33.4 10 30 10 C30 13.3 30 16.6 30 20 C23.4 20 16.8 20 10 20 C10 16.7 10 13.4 10 10 C6.7 10 3.4 10 0 10 C0 6.7 0 3.4 0 0 Z " fill="#FFFFFF" transform="translate(180,190)"/>
<path d="M0 0 C6.6 0 13.2 0 20 0 C20 3.3 20 6.6 20 10 C23.3 10 26.6 10 30 10 C30 13.3 30 16.6 30 20 C16.8 20 3.6 20 -10 20 C-10 16.7 -10 13.4 -10 10 C-6.7 10 -3.4 10 0 10 C0 6.7 0 3.4 0 0 Z " fill="#00B7EF" transform="translate(190,80)"/>
<path d="M0 0 C3.3 0 6.6 0 10 0 C10 9.9 10 19.8 10 30 C0.1 30 -9.8 30 -20 30 C-20 26.7 -20 23.4 -20 20 C-13.4 20 -6.8 20 0 20 C0 13.4 0 6.8 0 0 Z " fill="#000000" transform="translate(550,530)"/>
<path d="M0 0 C3.3 0 6.6 0 10 0 C10 6.6 10 13.2 10 20 C16.6 20 23.2 20 30 20 C30 23.3 30 26.6 30 30 C20.1 30 10.2 30 0 30 C0 20.1 0 10.2 0 0 Z " fill="#000000" transform="translate(240,530)"/>
<path d="M0 0 C3.3 0 6.6 0 10 0 C10 9.9 10 19.8 10 30 C3.4 30 -3.2 30 -10 30 C-10 23.4 -10 16.8 -10 10 C-6.7 10 -3.4 10 0 10 C0 6.7 0 3.4 0 0 Z " fill="#FFFFFF" transform="translate(510,450)"/>
<path d="M0 0 C3.3 0 6.6 0 10 0 C10 3.3 10 6.6 10 10 C13.3 10 16.6 10 20 10 C20 16.6 20 23.2 20 30 C13.4 30 6.8 30 0 30 C0 20.1 0 10.2 0 0 Z " fill="#FFFFFF" transform="translate(280,450)"/>
<path d="M0 0 C3.3 0 6.6 0 10 0 C10 6.6 10 13.2 10 20 C16.6 20 23.2 20 30 20 C30 23.3 30 26.6 30 30 C20.1 30 10.2 30 0 30 C0 20.1 0 10.2 0 0 Z " fill="#000000" transform="translate(40,330)"/>
<path d="M0 0 C3.3 0 6.6 0 10 0 C10 3.3 10 6.6 10 10 C13.3 10 16.6 10 20 10 C20 16.6 20 23.2 20 30 C13.4 30 6.8 30 0 30 C0 20.1 0 10.2 0 0 Z " fill="#FFFFFF" transform="translate(80,250)"/>
<path d="M0 0 C9.9 0 19.8 0 30 0 C30 9.9 30 19.8 30 30 C26.7 30 23.4 30 20 30 C20 23.4 20 16.8 20 10 C13.4 10 6.8 10 0 10 C0 6.7 0 3.4 0 0 Z " fill="#000000" transform="translate(530,240)"/>
<path d="M0 0 C16.5 0 33 0 50 0 C50 3.3 50 6.6 50 10 C33.5 10 17 10 0 10 C0 6.7 0 3.4 0 0 Z " fill="#009688" transform="translate(230,230)"/>
<path d="M0 0 C3.3 0 6.6 0 10 0 C10 16.5 10 33 10 50 C6.7 50 3.4 50 0 50 C0 33.5 0 17 0 0 Z " fill="#009688" transform="translate(210,100)"/>
<path d="M0 0 C9.9 0 19.8 0 30 0 C30 9.9 30 19.8 30 30 C26.7 30 23.4 30 20 30 C20 23.4 20 16.8 20 10 C13.4 10 6.8 10 0 10 C0 6.7 0 3.4 0 0 Z " fill="#000000" transform="translate(330,40)"/>
<path d="M0 0 C9.9 0 19.8 0 30 0 C30 3.3 30 6.6 30 10 C23.4 10 16.8 10 10 10 C10 16.6 10 23.2 10 30 C6.7 30 3.4 30 0 30 C0 20.1 0 10.2 0 0 Z " fill="#000000" transform="translate(40,40)"/>
<path d="M0 0 C3.3 0 6.6 0 10 0 C10 13.2 10 26.4 10 40 C6.7 40 3.4 40 0 40 C0 26.8 0 13.6 0 0 Z " fill="#880E4F" transform="translate(520,450)"/>
<path d="M0 0 C3.3 0 6.6 0 10 0 C10 13.2 10 26.4 10 40 C6.7 40 3.4 40 0 40 C0 26.8 0 13.6 0 0 Z " fill="#880E4F" transform="translate(270,450)"/>
<path d="M0 0 C13.2 0 26.4 0 40 0 C40 3.3 40 6.6 40 10 C26.8 10 13.6 10 0 10 C0 6.7 0 3.4 0 0 Z " fill="#FFFFFF" transform="translate(380,350)"/>
<path d="M0 0 C6.6 0 13.2 0 20 0 C20 6.6 20 13.2 20 20 C13.4 20 6.8 20 0 20 C0 13.4 0 6.8 0 0 Z " fill="#464646" transform="translate(390,330)"/>
<path d="M0 0 C3.3 0 6.6 0 10 0 C10 13.2 10 26.4 10 40 C6.7 40 3.4 40 0 40 C0 26.8 0 13.6 0 0 Z " fill="#009688" transform="translate(70,250)"/>
<path d="M0 0 C13.2 0 26.4 0 40 0 C40 3.3 40 6.6 40 10 C26.8 10 13.6 10 0 10 C0 6.7 0 3.4 0 0 Z " fill="#FFFFFF" transform="translate(180,150)"/>
<path d="M0 0 C6.6 0 13.2 0 20 0 C20 6.6 20 13.2 20 20 C13.4 20 6.8 20 0 20 C0 13.4 0 6.8 0 0 Z " fill="#464646" transform="translate(190,130)"/>
<path d="M0 0 C3.3 0 6.6 0 10 0 C10 6.6 10 13.2 10 20 C3.4 20 -3.2 20 -10 20 C-10 16.7 -10 13.4 -10 10 C-6.7 10 -3.4 10 0 10 C0 6.7 0 3.4 0 0 Z " fill="#000000" transform="translate(580,570)"/>
<path d="M0 0 C3.3 0 6.6 0 10 0 C10 3.3 10 6.6 10 10 C13.3 10 16.6 10 20 10 C20 13.3 20 16.6 20 20 C13.4 20 6.8 20 0 20 C0 13.4 0 6.8 0 0 Z " fill="#000000" transform="translate(10,570)"/>
<path d="M0 0 C3.3 0 6.6 0 10 0 C10 6.6 10 13.2 10 20 C3.4 20 -3.2 20 -10 20 C-10 16.7 -10 13.4 -10 10 C-6.7 10 -3.4 10 0 10 C0 6.7 0 3.4 0 0 Z " fill="#FFFFFF" transform="translate(540,530)"/>
<path d="M0 0 C3.3 0 6.6 0 10 0 C10 3.3 10 6.6 10 10 C13.3 10 16.6 10 20 10 C20 13.3 20 16.6 20 20 C13.4 20 6.8 20 0 20 C0 13.4 0 6.8 0 0 Z " fill="#FFFFFF" transform="translate(250,530)"/>
<path d="M0 0 C9.9 0 19.8 0 30 0 C30 3.3 30 6.6 30 10 C20.1 10 10.2 10 0 10 C0 6.7 0 3.4 0 0 Z " fill="#ED1C24" transform="translate(290,490)"/>
<path d="M0 0 C9.9 0 19.8 0 30 0 C30 3.3 30 6.6 30 10 C20.1 10 10.2 10 0 10 C0 6.7 0 3.4 0 0 Z " fill="#464646" transform="translate(290,480)"/>
<path d="M0 0 C3.3 0 6.6 0 10 0 C10 9.9 10 19.8 10 30 C6.7 30 3.4 30 0 30 C0 20.1 0 10.2 0 0 Z " fill="#880E4F" transform="translate(410,420)"/>
<path d="M0 0 C3.3 0 6.6 0 10 0 C10 9.9 10 19.8 10 30 C6.7 30 3.4 30 0 30 C0 20.1 0 10.2 0 0 Z " fill="#880E4F" transform="translate(380,420)"/>
<path d="M0 0 C3.3 0 6.6 0 10 0 C10 9.9 10 19.8 10 30 C6.7 30 3.4 30 0 30 C0 20.1 0 10.2 0 0 Z " fill="#464646" transform="translate(510,380)"/>
<path d="M0 0 C3.3 0 6.6 0 10 0 C10 9.9 10 19.8 10 30 C6.7 30 3.4 30 0 30 C0 20.1 0 10.2 0 0 Z " fill="#464646" transform="translate(280,380)"/>
<path d="M0 0 C3.3 0 6.6 0 10 0 C10 9.9 10 19.8 10 30 C6.7 30 3.4 30 0 30 C0 20.1 0 10.2 0 0 Z " fill="#464646" transform="translate(450,350)"/>
<path d="M0 0 C3.3 0 6.6 0 10 0 C10 9.9 10 19.8 10 30 C6.7 30 3.4 30 0 30 C0 20.1 0 10.2 0 0 Z " fill="#FFFFFF" transform="translate(420,360)"/>
<path d="M0 0 C3.3 0 6.6 0 10 0 C10 9.9 10 19.8 10 30 C6.7 30 3.4 30 0 30 C0 20.1 0 10.2 0 0 Z " fill="#880E4F" transform="translate(410,360)"/>
<path d="M0 0 C3.3 0 6.6 0 10 0 C10 9.9 10 19.8 10 30 C6.7 30 3.4 30 0 30 C0 20.1 0 10.2 0 0 Z " fill="#880E4F" transform="translate(380,360)"/>
<path d="M0 0 C3.3 0 6.6 0 10 0 C10 9.9 10 19.8 10 30 C6.7 30 3.4 30 0 30 C0 20.1 0 10.2 0 0 Z " fill="#FFFFFF" transform="translate(370,360)"/>
<path d="M0 0 C3.3 0 6.6 0 10 0 C10 9.9 10 19.8 10 30 C6.7 30 3.4 30 0 30 C0 20.1 0 10.2 0 0 Z " fill="#464646" transform="translate(340,350)"/>
<path d="M0 0 C3.3 0 6.6 0 10 0 C10 9.9 10 19.8 10 30 C6.7 30 3.4 30 0 30 C0 20.1 0 10.2 0 0 Z " fill="#464646" transform="translate(420,330)"/>
<path d="M0 0 C3.3 0 6.6 0 10 0 C10 9.9 10 19.8 10 30 C6.7 30 3.4 30 0 30 C0 20.1 0 10.2 0 0 Z " fill="#464646" transform="translate(370,330)"/>
<path d="M0 0 C3.3 0 6.6 0 10 0 C10 3.3 10 6.6 10 10 C13.3 10 16.6 10 20 10 C20 13.3 20 16.6 20 20 C13.4 20 6.8 20 0 20 C0 13.4 0 6.8 0 0 Z " fill="#FFFFFF" transform="translate(50,330)"/>
<path d="M0 0 C9.9 0 19.8 0 30 0 C30 3.3 30 6.6 30 10 C20.1 10 10.2 10 0 10 C0 6.7 0 3.4 0 0 Z " fill="#ED1C24" transform="translate(90,290)"/>
<path d="M0 0 C9.9 0 19.8 0 30 0 C30 3.3 30 6.6 30 10 C20.1 10 10.2 10 0 10 C0 6.7 0 3.4 0 0 Z " fill="#464646" transform="translate(90,280)"/>
<path d="M0 0 C6.6 0 13.2 0 20 0 C20 6.6 20 13.2 20 20 C16.7 20 13.4 20 10 20 C10 16.7 10 13.4 10 10 C6.7 10 3.4 10 0 10 C0 6.7 0 3.4 0 0 Z " fill="#FFFFFF" transform="translate(530,250)"/>
<path d="M0 0 C6.6 0 13.2 0 20 0 C20 3.3 20 6.6 20 10 C16.7 10 13.4 10 10 10 C10 13.3 10 16.6 10 20 C6.7 20 3.4 20 0 20 C0 13.4 0 6.8 0 0 Z " fill="#FFFFFF" transform="translate(250,250)"/>
<path d="M0 0 C3.3 0 6.6 0 10 0 C10 9.9 10 19.8 10 30 C6.7 30 3.4 30 0 30 C0 20.1 0 10.2 0 0 Z " fill="#009688" transform="translate(210,220)"/>
<path d="M0 0 C3.3 0 6.6 0 10 0 C10 9.9 10 19.8 10 30 C6.7 30 3.4 30 0 30 C0 20.1 0 10.2 0 0 Z " fill="#009688" transform="translate(180,220)"/>
<path d="M0 0 C3.3 0 6.6 0 10 0 C10 9.9 10 19.8 10 30 C6.7 30 3.4 30 0 30 C0 20.1 0 10.2 0 0 Z " fill="#464646" transform="translate(250,150)"/>
<path d="M0 0 C3.3 0 6.6 0 10 0 C10 9.9 10 19.8 10 30 C6.7 30 3.4 30 0 30 C0 20.1 0 10.2 0 0 Z " fill="#FFFFFF" transform="translate(220,160)"/>
<path d="M0 0 C3.3 0 6.6 0 10 0 C10 9.9 10 19.8 10 30 C6.7 30 3.4 30 0 30 C0 20.1 0 10.2 0 0 Z " fill="#009688" transform="translate(210,160)"/>
<path d="M0 0 C3.3 0 6.6 0 10 0 C10 9.9 10 19.8 10 30 C6.7 30 3.4 30 0 30 C0 20.1 0 10.2 0 0 Z " fill="#FFFFFF" transform="translate(170,160)"/>
<path d="M0 0 C3.3 0 6.6 0 10 0 C10 9.9 10 19.8 10 30 C6.7 30 3.4 30 0 30 C0 20.1 0 10.2 0 0 Z " fill="#464646" transform="translate(140,150)"/>
<path d="M0 0 C3.3 0 6.6 0 10 0 C10 9.9 10 19.8 10 30 C6.7 30 3.4 30 0 30 C0 20.1 0 10.2 0 0 Z " fill="#464646" transform="translate(220,130)"/>
<path d="M0 0 C3.3 0 6.6 0 10 0 C10 9.9 10 19.8 10 30 C6.7 30 3.4 30 0 30 C0 20.1 0 10.2 0 0 Z " fill="#464646" transform="translate(170,130)"/>
<path d="M0 0 C6.6 0 13.2 0 20 0 C20 6.6 20 13.2 20 20 C16.7 20 13.4 20 10 20 C10 16.7 10 13.4 10 10 C6.7 10 3.4 10 0 10 C0 6.7 0 3.4 0 0 Z " fill="#FFFFFF" transform="translate(330,50)"/>
<path d="M0 0 C6.6 0 13.2 0 20 0 C20 3.3 20 6.6 20 10 C16.7 10 13.4 10 10 10 C10 13.3 10 16.6 10 20 C6.7 20 3.4 20 0 20 C0 13.4 0 6.8 0 0 Z " fill="#FFFFFF" transform="translate(50,50)"/>
<path d="M0 0 C6.6 0 13.2 0 20 0 C20 6.6 20 13.2 20 20 C16.7 20 13.4 20 10 20 C10 16.7 10 13.4 10 10 C6.7 10 3.4 10 0 10 C0 6.7 0 3.4 0 0 Z " fill="#000000" transform="translate(570,10)"/>
<path d="M0 0 C6.6 0 13.2 0 20 0 C20 3.3 20 6.6 20 10 C16.7 10 13.4 10 10 10 C10 13.3 10 16.6 10 20 C6.7 20 3.4 20 0 20 C0 13.4 0 6.8 0 0 Z " fill="#000000" transform="translate(10,10)"/>
<path d="M0 0 C3.3 0 6.6 0 10 0 C10 6.6 10 13.2 10 20 C6.7 20 3.4 20 0 20 C0 13.4 0 6.8 0 0 Z " fill="#FFF200" transform="translate(500,510)"/>
<path d="M0 0 C3.3 0 6.6 0 10 0 C10 6.6 10 13.2 10 20 C6.7 20 3.4 20 0 20 C0 13.4 0 6.8 0 0 Z " fill="#FFF200" transform="translate(290,510)"/>
<path d="M0 0 C6.6 0 13.2 0 20 0 C20 3.3 20 6.6 20 10 C13.4 10 6.8 10 0 10 C0 6.7 0 3.4 0 0 Z " fill="#ED1C24" transform="translate(490,490)"/>
<path d="M0 0 C3.3 0 6.6 0 10 0 C10 6.6 10 13.2 10 20 C6.7 20 3.4 20 0 20 C0 13.4 0 6.8 0 0 Z " fill="#FFF200" transform="translate(420,490)"/>
<path d="M0 0 C3.3 0 6.6 0 10 0 C10 6.6 10 13.2 10 20 C6.7 20 3.4 20 0 20 C0 13.4 0 6.8 0 0 Z " fill="#FFF200" transform="translate(370,490)"/>
<path d="M0 0 C6.6 0 13.2 0 20 0 C20 3.3 20 6.6 20 10 C13.4 10 6.8 10 0 10 C0 6.7 0 3.4 0 0 Z " fill="#464646" transform="translate(490,480)"/>
<path d="M0 0 C3.3 0 6.6 0 10 0 C10 6.6 10 13.2 10 20 C6.7 20 3.4 20 0 20 C0 13.4 0 6.8 0 0 Z " fill="#ED1C24" transform="translate(420,460)"/>
<path d="M0 0 C3.3 0 6.6 0 10 0 C10 6.6 10 13.2 10 20 C6.7 20 3.4 20 0 20 C0 13.4 0 6.8 0 0 Z " fill="#ED1C24" transform="translate(370,460)"/>
<path d="M0 0 C3.3 0 6.6 0 10 0 C10 6.6 10 13.2 10 20 C6.7 20 3.4 20 0 20 C0 13.4 0 6.8 0 0 Z " fill="#880E4F" transform="translate(520,420)"/>
<path d="M0 0 C3.3 0 6.6 0 10 0 C10 6.6 10 13.2 10 20 C6.7 20 3.4 20 0 20 C0 13.4 0 6.8 0 0 Z " fill="#880E4F" transform="translate(270,420)"/>
<path d="M0 0 C6.6 0 13.2 0 20 0 C20 3.3 20 6.6 20 10 C13.4 10 6.8 10 0 10 C0 6.7 0 3.4 0 0 Z " fill="#2F3699" transform="translate(390,380)"/>
<path d="M0 0 C6.6 0 13.2 0 20 0 C20 3.3 20 6.6 20 10 C13.4 10 6.8 10 0 10 C0 6.7 0 3.4 0 0 Z " fill="#00B7EF" transform="translate(390,360)"/>
<path d="M0 0 C6.6 0 13.2 0 20 0 C20 3.3 20 6.6 20 10 C13.4 10 6.8 10 0 10 C0 6.7 0 3.4 0 0 Z " fill="#2F3699" transform="translate(390,330)"/>
<path d="M0 0 C3.3 0 6.6 0 10 0 C10 6.6 10 13.2 10 20 C6.7 20 3.4 20 0 20 C0 13.4 0 6.8 0 0 Z " fill="#FFF200" transform="translate(90,310)"/>
<path d="M0 0 C3.3 0 6.6 0 10 0 C10 6.6 10 13.2 10 20 C6.7 20 3.4 20 0 20 C0 13.4 0 6.8 0 0 Z " fill="#FFF200" transform="translate(220,290)"/>
<path d="M0 0 C3.3 0 6.6 0 10 0 C10 6.6 10 13.2 10 20 C6.7 20 3.4 20 0 20 C0 13.4 0 6.8 0 0 Z " fill="#FFF200" transform="translate(170,290)"/>
<path d="M0 0 C6.6 0 13.2 0 20 0 C20 3.3 20 6.6 20 10 C13.4 10 6.8 10 0 10 C0 6.7 0 3.4 0 0 Z " fill="#FFFFFF" transform="translate(390,280)"/>
<path d="M0 0 C6.6 0 13.2 0 20 0 C20 3.3 20 6.6 20 10 C13.4 10 6.8 10 0 10 C0 6.7 0 3.4 0 0 Z " fill="#880E4F" transform="translate(390,270)"/>
<path d="M0 0 C3.3 0 6.6 0 10 0 C10 6.6 10 13.2 10 20 C6.7 20 3.4 20 0 20 C0 13.4 0 6.8 0 0 Z " fill="#ED1C24" transform="translate(220,260)"/>
<path d="M0 0 C3.3 0 6.6 0 10 0 C10 6.6 10 13.2 10 20 C6.7 20 3.4 20 0 20 C0 13.4 0 6.8 0 0 Z " fill="#ED1C24" transform="translate(170,260)"/>
<path d="M0 0 C3.3 0 6.6 0 10 0 C10 6.6 10 13.2 10 20 C6.7 20 3.4 20 0 20 C0 13.4 0 6.8 0 0 Z " fill="#009688" transform="translate(320,220)"/>
<path d="M0 0 C3.3 0 6.6 0 10 0 C10 6.6 10 13.2 10 20 C6.7 20 3.4 20 0 20 C0 13.4 0 6.8 0 0 Z " fill="#009688" transform="translate(70,220)"/>
<path d="M0 0 C3.3 0 6.6 0 10 0 C10 6.6 10 13.2 10 20 C6.7 20 3.4 20 0 20 C0 13.4 0 6.8 0 0 Z " fill="#464646" transform="translate(310,180)"/>
<path d="M0 0 C3.3 0 6.6 0 10 0 C10 6.6 10 13.2 10 20 C6.7 20 3.4 20 0 20 C0 13.4 0 6.8 0 0 Z " fill="#464646" transform="translate(80,180)"/>
<path d="M0 0 C6.6 0 13.2 0 20 0 C20 3.3 20 6.6 20 10 C13.4 10 6.8 10 0 10 C0 6.7 0 3.4 0 0 Z " fill="#4D6DF3" transform="translate(190,170)"/>
<path d="M0 0 C6.6 0 13.2 0 20 0 C20 3.3 20 6.6 20 10 C13.4 10 6.8 10 0 10 C0 6.7 0 3.4 0 0 Z " fill="#00B7EF" transform="translate(190,160)"/>
<path d="M0 0 C6.6 0 13.2 0 20 0 C20 3.3 20 6.6 20 10 C13.4 10 6.8 10 0 10 C0 6.7 0 3.4 0 0 Z " fill="#2F3699" transform="translate(190,130)"/>
<path d="M0 0 C6.6 0 13.2 0 20 0 C20 3.3 20 6.6 20 10 C13.4 10 6.8 10 0 10 C0 6.7 0 3.4 0 0 Z " fill="#FFFFFF" transform="translate(190,80)"/>
<path d="M0 0 C6.6 0 13.2 0 20 0 C20 3.3 20 6.6 20 10 C13.4 10 6.8 10 0 10 C0 6.7 0 3.4 0 0 Z " fill="#009688" transform="translate(190,70)"/>
<path d="M0 0 C3.3 0 6.6 0 10 0 C10 3.3 10 6.6 10 10 C6.7 10 3.4 10 0 10 C0 6.7 0 3.4 0 0 Z " fill="#464646" transform="translate(510,440)"/>
<path d="M0 0 C3.3 0 6.6 0 10 0 C10 3.3 10 6.6 10 10 C6.7 10 3.4 10 0 10 C0 6.7 0 3.4 0 0 Z " fill="#FFFFFF" transform="translate(500,440)"/>
<path d="M0 0 C3.3 0 6.6 0 10 0 C10 3.3 10 6.6 10 10 C6.7 10 3.4 10 0 10 C0 6.7 0 3.4 0 0 Z " fill="#FFFFFF" transform="translate(290,440)"/>
<path d="M0 0 C3.3 0 6.6 0 10 0 C10 3.3 10 6.6 10 10 C6.7 10 3.4 10 0 10 C0 6.7 0 3.4 0 0 Z " fill="#464646" transform="translate(280,440)"/>
<path d="M0 0 C3.3 0 6.6 0 10 0 C10 3.3 10 6.6 10 10 C6.7 10 3.4 10 0 10 C0 6.7 0 3.4 0 0 Z " fill="#880E4F" transform="translate(510,400)"/>
<path d="M0 0 C3.3 0 6.6 0 10 0 C10 3.3 10 6.6 10 10 C6.7 10 3.4 10 0 10 C0 6.7 0 3.4 0 0 Z " fill="#880E4F" transform="translate(410,400)"/>
<path d="M0 0 C3.3 0 6.6 0 10 0 C10 3.3 10 6.6 10 10 C6.7 10 3.4 10 0 10 C0 6.7 0 3.4 0 0 Z " fill="#880E4F" transform="translate(380,400)"/>
<path d="M0 0 C3.3 0 6.6 0 10 0 C10 3.3 10 6.6 10 10 C6.7 10 3.4 10 0 10 C0 6.7 0 3.4 0 0 Z " fill="#880E4F" transform="translate(280,400)"/>
<path d="M0 0 C3.3 0 6.6 0 10 0 C10 3.3 10 6.6 10 10 C6.7 10 3.4 10 0 10 C0 6.7 0 3.4 0 0 Z " fill="#ED1C24" transform="translate(510,380)"/>
<path d="M0 0 C3.3 0 6.6 0 10 0 C10 3.3 10 6.6 10 10 C6.7 10 3.4 10 0 10 C0 6.7 0 3.4 0 0 Z " fill="#ED1C24" transform="translate(280,380)"/>
<path d="M0 0 C3.3 0 6.6 0 10 0 C10 3.3 10 6.6 10 10 C6.7 10 3.4 10 0 10 C0 6.7 0 3.4 0 0 Z " fill="#ED1C24" transform="translate(450,350)"/>
<path d="M0 0 C3.3 0 6.6 0 10 0 C10 3.3 10 6.6 10 10 C6.7 10 3.4 10 0 10 C0 6.7 0 3.4 0 0 Z " fill="#ED1C24" transform="translate(340,350)"/>
<path d="M0 0 C3.3 0 6.6 0 10 0 C10 3.3 10 6.6 10 10 C6.7 10 3.4 10 0 10 C0 6.7 0 3.4 0 0 Z " fill="#FFFFFF" transform="translate(410,290)"/>
<path d="M0 0 C3.3 0 6.6 0 10 0 C10 3.3 10 6.6 10 10 C6.7 10 3.4 10 0 10 C0 6.7 0 3.4 0 0 Z " fill="#FFFFFF" transform="translate(380,290)"/>
<path d="M0 0 C3.3 0 6.6 0 10 0 C10 3.3 10 6.6 10 10 C6.7 10 3.4 10 0 10 C0 6.7 0 3.4 0 0 Z " fill="#FFFFFF" transform="translate(90,240)"/>
<path d="M0 0 C3.3 0 6.6 0 10 0 C10 3.3 10 6.6 10 10 C6.7 10 3.4 10 0 10 C0 6.7 0 3.4 0 0 Z " fill="#464646" transform="translate(80,240)"/>
<path d="M0 0 C3.3 0 6.6 0 10 0 C10 3.3 10 6.6 10 10 C6.7 10 3.4 10 0 10 C0 6.7 0 3.4 0 0 Z " fill="#009688" transform="translate(310,200)"/>
<path d="M0 0 C3.3 0 6.6 0 10 0 C10 3.3 10 6.6 10 10 C6.7 10 3.4 10 0 10 C0 6.7 0 3.4 0 0 Z " fill="#009688" transform="translate(210,200)"/>
<path d="M0 0 C3.3 0 6.6 0 10 0 C10 3.3 10 6.6 10 10 C6.7 10 3.4 10 0 10 C0 6.7 0 3.4 0 0 Z " fill="#009688" transform="translate(180,200)"/>
<path d="M0 0 C3.3 0 6.6 0 10 0 C10 3.3 10 6.6 10 10 C6.7 10 3.4 10 0 10 C0 6.7 0 3.4 0 0 Z " fill="#009688" transform="translate(80,200)"/>
<path d="M0 0 C3.3 0 6.6 0 10 0 C10 3.3 10 6.6 10 10 C6.7 10 3.4 10 0 10 C0 6.7 0 3.4 0 0 Z " fill="#ED1C24" transform="translate(310,180)"/>
<path d="M0 0 C3.3 0 6.6 0 10 0 C10 3.3 10 6.6 10 10 C6.7 10 3.4 10 0 10 C0 6.7 0 3.4 0 0 Z " fill="#ED1C24" transform="translate(80,180)"/>
<path d="M0 0 C3.3 0 6.6 0 10 0 C10 3.3 10 6.6 10 10 C6.7 10 3.4 10 0 10 C0 6.7 0 3.4 0 0 Z " fill="#ED1C24" transform="translate(250,150)"/>
<path d="M0 0 C3.3 0 6.6 0 10 0 C10 3.3 10 6.6 10 10 C6.7 10 3.4 10 0 10 C0 6.7 0 3.4 0 0 Z " fill="#ED1C24" transform="translate(140,150)"/>
<path d="M0 0 C3.3 0 6.6 0 10 0 C10 3.3 10 6.6 10 10 C6.7 10 3.4 10 0 10 C0 6.7 0 3.4 0 0 Z " fill="#FFFFFF" transform="translate(210,90)"/>
<path d="M0 0 C3.3 0 6.6 0 10 0 C10 3.3 10 6.6 10 10 C6.7 10 3.4 10 0 10 C0 6.7 0 3.4 0 0 Z " fill="#FFFFFF" transform="translate(180,90)"/>
</svg>
