<?xml version="1.0" encoding="UTF-8"?>
<svg version="1.1" xmlns="http://www.w3.org/2000/svg" width="600" height="600">
<path d="M0 0 C198 0 396 0 600 0 C600 198 600 396 600 600 C402 600 204 600 0 600 C0 402 0 204 0 0 Z " fill="#9C27B0" transform="translate(0,0)"/>
<path d="M0 0 C9.9 0 19.8 0 30 0 C30 3.3 30 6.6 30 10 C115.8 10 201.6 10 290 10 C290 6.7 290 3.4 290 0 C299.9 0 309.8 0 320 0 C320 9.9 320 19.8 320 30 C316.7 30 313.4 30 310 30 C310 115.8 310 201.6 310 290 C313.3 290 316.6 290 320 290 C320 299.9 320 309.8 320 320 C310.1 320 300.2 320 290 320 C290 316.7 290 313.4 290 310 C204.2 310 118.4 310 30 310 C30 313.3 30 316.6 30 320 C20.1 320 10.2 320 0 320 C0 310.1 0 300.2 0 290 C3.3 290 6.6 290 10 290 C10 204.2 10 118.4 10 30 C6.7 30 3.4 30 0 30 C0 20.1 0 10.2 0 0 Z " fill="#000000" transform="translate(140,140)"/>
<path d="M0 0 C6.6 0 13.2 0 20 0 C20 3.3 20 6.6 20 10 C23.3 10 26.6 10 30 10 C30 33.1 30 56.2 30 80 C36.6 80 43.2 80 50 80 C50 83.3 50 86.6 50 90 C53.3 90 56.6 90 60 90 C60 93.3 60 96.6 60 100 C69.9 100 79.8 100 90 100 C90 103.3 90 106.6 90 110 C93.3 110 96.6 110 100 110 C100 113.3 100 116.6 100 120 C106.6 120 113.2 120 120 120 C120 123.3 120 126.6 120 130 C123.3 130 126.6 130 130 130 C130 139.9 130 149.8 130 160 C126.7 160 123.4 160 120 160 C120 163.3 120 166.6 120 170 C123.3 170 126.6 170 130 170 C130 179.9 130 189.8 130 200 C120.1 200 110.2 200 100 200 C100 193.4 100 186.8 100 180 C96.7 180 93.4 180 90 180 C90 176.7 90 173.4 90 170 C80.1 170 70.2 170 60 170 C60 166.7 60 163.4 60 160 C53.4 160 46.8 160 40 160 C40 156.7 40 153.4 40 150 C56.5 150 73 150 90 150 C90 153.3 90 156.6 90 160 C93.3 160 96.6 160 100 160 C100 150.1 100 140.2 100 130 C96.7 130 93.4 130 90 130 C90 126.7 90 123.4 90 120 C80.1 120 70.2 120 60 120 C60 116.7 60 113.4 60 110 C56.7 110 53.4 110 50 110 C50 106.7 50 103.4 50 100 C46.7 100 43.4 100 40 100 C40 103.3 40 106.6 40 110 C36.7 110 33.4 110 30 110 C30 113.3 30 116.6 30 120 C26.7 120 23.4 120 20 120 C20 123.3 20 126.6 20 130 C13.4 130 6.8 130 0 130 C0 126.7 0 123.4 0 120 C-3.3 120 -6.6 120 -10 120 C-10 116.7 -10 113.4 -10 110 C-13.3 110 -16.6 110 -20 110 C-20 106.7 -20 103.4 -20 100 C-23.3 100 -26.6 100 -30 100 C-30 103.3 -30 106.6 -30 110 C-33.3 110 -36.6 110 -40 110 C-40 113.3 -40 116.6 -40 120 C-46.6 120 -53.2 120 -60 120 C-60 123.3 -60 126.6 -60 130 C-63.3 130 -66.6 130 -70 130 C-70 139.9 -70 149.8 -70 160 C-66.7 160 -63.4 160 -60 160 C-60 156.7 -60 153.4 -60 150 C-46.8 150 -33.6 150 -20 150 C-20 153.3 -20 156.6 -20 160 C-26.6 160 -33.2 160 -40 160 C-40 163.3 -40 166.6 -40 170 C-46.6 170 -53.2 170 -60 170 C-60 173.3 -60 176.6 -60 180 C-63.3 180 -66.6 180 -70 180 C-70 186.6 -70 193.2 -70 200 C-83.2 200 -96.4 200 -110 200 C-110 190.1 -110 180.2 -110 170 C-106.7 170 -103.4 170 -100 170 C-100 166.7 -100 163.4 -100 160 C-103.3 160 -106.6 160 -110 160 C-110 150.1 -110 140.2 -110 130 C-106.7 130 -103.4 130 -100 130 C-100 126.7 -100 123.4 -100 120 C-90.1 120 -80.2 120 -70 120 C-70 116.7 -70 113.4 -70 110 C-66.7 110 -63.4 110 -60 110 C-60 106.7 -60 103.4 -60 100 C-53.4 100 -46.8 100 -40 100 C-40 96.7 -40 93.4 -40 90 C-36.7 90 -33.4 90 -30 90 C-30 86.7 -30 83.4 -30 80 C-23.4 80 -16.8 80 -10 80 C-10 56.9 -10 33.8 -10 10 C-6.7 10 -3.4 10 0 10 C0 6.7 0 3.4 0 0 Z " fill="#009688" transform="translate(290,180)"/>
<path d="M0 0 C3.3 0 6.6 0 10 0 C10 3.3 10 6.6 10 10 C13.3 10 16.6 10 20 10 C20 13.3 20 16.6 20 20 C23.3 20 26.6 20 30 20 C30 23.3 30 26.6 30 30 C36.6 30 43.2 30 50 30 C50 26.7 50 23.4 50 20 C53.3 20 56.6 20 60 20 C60 16.7 60 13.4 60 10 C63.3 10 66.6 10 70 10 C70 6.7 70 3.4 70 0 C73.3 0 76.6 0 80 0 C80 3.3 80 6.6 80 10 C83.3 10 86.6 10 90 10 C90 13.3 90 16.6 90 20 C99.9 20 109.8 20 120 20 C120 23.3 120 26.6 120 30 C123.3 30 126.6 30 130 30 C130 39.9 130 49.8 130 60 C126.7 60 123.4 60 120 60 C120 56.7 120 53.4 120 50 C103.5 50 87 50 70 50 C70 66.5 70 83 70 100 C66.7 100 63.4 100 60 100 C60 90.1 60 80.2 60 70 C56.7 70 53.4 70 50 70 C50 63.4 50 56.8 50 50 C43.4 50 36.8 50 30 50 C30 56.6 30 63.2 30 70 C26.7 70 23.4 70 20 70 C20 79.9 20 89.8 20 100 C16.7 100 13.4 100 10 100 C10 83.5 10 67 10 50 C-3.2 50 -16.4 50 -30 50 C-30 53.3 -30 56.6 -30 60 C-33.3 60 -36.6 60 -40 60 C-40 50.1 -40 40.2 -40 30 C-36.7 30 -33.4 30 -30 30 C-30 26.7 -30 23.4 -30 20 C-23.4 20 -16.8 20 -10 20 C-10 16.7 -10 13.4 -10 10 C-6.7 10 -3.4 10 0 10 C0 6.7 0 3.4 0 0 Z " fill="#464646" transform="translate(260,280)"/>
<path d="M0 0 C178.2 0 356.4 0 540 0 C540 3.3 540 6.6 540 10 C361.8 10 183.6 10 0 10 C0 6.7 0 3.4 0 0 Z " fill="#000000" transform="translate(30,590)"/>
<path d="M0 0 C3.3 0 6.6 0 10 0 C10 178.2 10 356.4 10 540 C6.7 540 3.4 540 0 540 C0 361.8 0 183.6 0 0 Z " fill="#000000" transform="translate(590,30)"/>
<path d="M0 0 C3.3 0 6.6 0 10 0 C10 178.2 10 356.4 10 540 C6.7 540 3.4 540 0 540 C0 361.8 0 183.6 0 0 Z " fill="#000000" transform="translate(0,30)"/>
<path d="M0 0 C178.2 0 356.4 0 540 0 C540 3.3 540 6.6 540 10 C361.8 10 183.6 10 0 10 C0 6.7 0 3.4 0 0 Z " fill="#000000" transform="translate(30,0)"/>
<path d="M0 0 C3.3 0 6.6 0 10 0 C10 6.6 10 13.2 10 20 C6.7 20 3.4 20 0 20 C0 23.3 0 26.6 0 30 C-3.3 30 -6.6 30 -10 30 C-10 33.3 -10 36.6 -10 40 C-16.6 40 -23.2 40 -30 40 C-30 43.3 -30 46.6 -30 50 C-33.3 50 -36.6 50 -40 50 C-40 59.9 -40 69.8 -40 80 C-36.7 80 -33.4 80 -30 80 C-30 76.7 -30 73.4 -30 70 C-16.8 70 -3.6 70 10 70 C10 73.3 10 76.6 10 80 C3.4 80 -3.2 80 -10 80 C-10 83.3 -10 86.6 -10 90 C-16.6 90 -23.2 90 -30 90 C-30 93.3 -30 96.6 -30 100 C-33.3 100 -36.6 100 -40 100 C-40 106.6 -40 113.2 -40 120 C-53.2 120 -66.4 120 -80 120 C-80 110.1 -80 100.2 -80 90 C-76.7 90 -73.4 90 -70 90 C-70 86.7 -70 83.4 -70 80 C-73.3 80 -76.6 80 -80 80 C-80 70.1 -80 60.2 -80 50 C-76.7 50 -73.4 50 -70 50 C-70 46.7 -70 43.4 -70 40 C-60.1 40 -50.2 40 -40 40 C-40 36.7 -40 33.4 -40 30 C-36.7 30 -33.4 30 -30 30 C-30 26.7 -30 23.4 -30 20 C-23.4 20 -16.8 20 -10 20 C-10 16.7 -10 13.4 -10 10 C-6.7 10 -3.4 10 0 10 C0 6.7 0 3.4 0 0 Z " fill="#009688" transform="translate(260,260)"/>
<path d="M0 0 C85.8 0 171.6 0 260 0 C260 3.3 260 6.6 260 10 C174.2 10 88.4 10 0 10 C0 6.7 0 3.4 0 0 Z " fill="#FFFFFF" transform="translate(170,450)"/>
<path d="M0 0 C6.6 0 13.2 0 20 0 C20 3.3 20 6.6 20 10 C23.3 10 26.6 10 30 10 C30 29.8 30 49.6 30 70 C16.8 70 3.6 70 -10 70 C-10 50.2 -10 30.4 -10 10 C-6.7 10 -3.4 10 0 10 C0 6.7 0 3.4 0 0 Z " fill="#009688" transform="translate(290,180)"/>
<path d="M0 0 C3.3 0 6.6 0 10 0 C10 85.8 10 171.6 10 260 C6.7 260 3.4 260 0 260 C0 174.2 0 88.4 0 0 Z " fill="#FFFFFF" transform="translate(450,170)"/>
<path d="M0 0 C3.3 0 6.6 0 10 0 C10 85.8 10 171.6 10 260 C6.7 260 3.4 260 0 260 C0 174.2 0 88.4 0 0 Z " fill="#FFFFFF" transform="translate(140,170)"/>
<path d="M0 0 C85.8 0 171.6 0 260 0 C260 3.3 260 6.6 260 10 C174.2 10 88.4 10 0 10 C0 6.7 0 3.4 0 0 Z " fill="#FFFFFF" transform="translate(170,140)"/>
<path d="M0 0 C13.2 0 26.4 0 40 0 C40 3.3 40 6.6 40 10 C36.7 10 33.4 10 30 10 C30 13.3 30 16.6 30 20 C23.4 20 16.8 20 10 20 C10 26.6 10 33.2 10 40 C19.9 40 29.8 40 40 40 C40 43.3 40 46.6 40 50 C36.7 50 33.4 50 30 50 C30 53.3 30 56.6 30 60 C23.4 60 16.8 60 10 60 C10 56.7 10 53.4 10 50 C6.7 50 3.4 50 0 50 C0 46.7 0 43.4 0 40 C-3.3 40 -6.6 40 -10 40 C-10 30.1 -10 20.2 -10 10 C-6.7 10 -3.4 10 0 10 C0 6.7 0 3.4 0 0 Z " fill="#009688" transform="translate(280,250)"/>
<path d="M0 0 C6.6 0 13.2 0 20 0 C20 3.3 20 6.6 20 10 C23.3 10 26.6 10 30 10 C30 13.3 30 16.6 30 20 C26.7 20 23.4 20 20 20 C20 29.9 20 39.8 20 50 C13.4 50 6.8 50 0 50 C0 40.1 0 30.2 0 20 C-3.3 20 -6.6 20 -10 20 C-10 16.7 -10 13.4 -10 10 C-6.7 10 -3.4 10 0 10 C0 6.7 0 3.4 0 0 Z " fill="#4D6DF3" transform="translate(290,180)"/>
<path d="M0 0 C6.6 0 13.2 0 20 0 C20 9.9 20 19.8 20 30 C6.8 30 -6.4 30 -20 30 C-20 23.4 -20 16.8 -20 10 C-13.4 10 -6.8 10 0 10 C0 6.7 0 3.4 0 0 Z " fill="#2F3699" transform="translate(310,260)"/>
<path d="M0 0 C9.9 0 19.8 0 30 0 C30 9.9 30 19.8 30 30 C23.4 30 16.8 30 10 30 C10 26.7 10 23.4 10 20 C6.7 20 3.4 20 0 20 C0 13.4 0 6.8 0 0 Z " fill="#9C27B0" transform="translate(570,0)"/>
<path d="M0 0 C9.9 0 19.8 0 30 0 C30 6.6 30 13.2 30 20 C26.7 20 23.4 20 20 20 C20 23.3 20 26.6 20 30 C13.4 30 6.8 30 0 30 C0 20.1 0 10.2 0 0 Z " fill="#9C27B0" transform="translate(0,0)"/>
<path d="M0 0 C3.3 0 6.6 0 10 0 C10 3.3 10 6.6 10 10 C13.3 10 16.6 10 20 10 C20 19.9 20 29.8 20 40 C16.7 40 13.4 40 10 40 C10 36.7 10 33.4 10 30 C6.7 30 3.4 30 0 30 C0 20.1 0 10.2 0 0 Z " fill="#FFFFFF" transform="translate(400,300)"/>
<path d="M0 0 C3.3 0 6.6 0 10 0 C10 9.9 10 19.8 10 30 C6.7 30 3.4 30 0 30 C0 33.3 0 36.6 0 40 C-3.3 40 -6.6 40 -10 40 C-10 30.1 -10 20.2 -10 10 C-6.7 10 -3.4 10 0 10 C0 6.7 0 3.4 0 0 Z " fill="#FFFFFF" transform="translate(190,300)"/>
<path d="M0 0 C13.2 0 26.4 0 40 0 C40 3.3 40 6.6 40 10 C36.7 10 33.4 10 30 10 C30 13.3 30 16.6 30 20 C23.4 20 16.8 20 10 20 C10 16.7 10 13.4 10 10 C6.7 10 3.4 10 0 10 C0 6.7 0 3.4 0 0 Z " fill="#FFFFFF" transform="translate(280,290)"/>
<path d="M0 0 C6.6 0 13.2 0 20 0 C20 3.3 20 6.6 20 10 C23.3 10 26.6 10 30 10 C30 13.3 30 16.6 30 20 C16.8 20 3.6 20 -10 20 C-10 16.7 -10 13.4 -10 10 C-6.7 10 -3.4 10 0 10 C0 6.7 0 3.4 0 0 Z " fill="#00B7EF" transform="translate(290,180)"/>
<path d="M0 0 C3.3 0 6.6 0 10 0 C10 9.9 10 19.8 10 30 C0.1 30 -9.8 30 -20 30 C-20 26.7 -20 23.4 -20 20 C-13.4 20 -6.8 20 0 20 C0 13.4 0 6.8 0 0 Z " fill="#000000" transform="translate(450,430)"/>
<path d="M0 0 C3.3 0 6.6 0 10 0 C10 6.6 10 13.2 10 20 C16.6 20 23.2 20 30 20 C30 23.3 30 26.6 30 30 C20.1 30 10.2 30 0 30 C0 20.1 0 10.2 0 0 Z " fill="#000000" transform="translate(140,430)"/>
<path d="M0 0 C3.3 0 6.6 0 10 0 C10 9.9 10 19.8 10 30 C3.4 30 -3.2 30 -10 30 C-10 23.4 -10 16.8 -10 10 C-6.7 10 -3.4 10 0 10 C0 6.7 0 3.4 0 0 Z " fill="#FFFFFF" transform="translate(410,350)"/>
<path d="M0 0 C3.3 0 6.6 0 10 0 C10 3.3 10 6.6 10 10 C13.3 10 16.6 10 20 10 C20 16.6 20 23.2 20 30 C13.4 30 6.8 30 0 30 C0 20.1 0 10.2 0 0 Z " fill="#FFFFFF" transform="translate(180,350)"/>
<path d="M0 0 C3.3 0 6.6 0 10 0 C10 16.5 10 33 10 50 C6.7 50 3.4 50 0 50 C0 33.5 0 17 0 0 Z " fill="#009688" transform="translate(310,200)"/>
<path d="M0 0 C9.9 0 19.8 0 30 0 C30 9.9 30 19.8 30 30 C26.7 30 23.4 30 20 30 C20 23.4 20 16.8 20 10 C13.4 10 6.8 10 0 10 C0 6.7 0 3.4 0 0 Z " fill="#000000" transform="translate(430,140)"/>
<path d="M0 0 C9.9 0 19.8 0 30 0 C30 3.3 30 6.6 30 10 C23.4 10 16.8 10 10 10 C10 16.6 10 23.2 10 30 C6.7 30 3.4 30 0 30 C0 20.1 0 10.2 0 0 Z " fill="#000000" transform="translate(140,140)"/>
<path d="M0 0 C3.3 0 6.6 0 10 0 C10 13.2 10 26.4 10 40 C6.7 40 3.4 40 0 40 C0 26.8 0 13.6 0 0 Z " fill="#009688" transform="translate(420,350)"/>
<path d="M0 0 C3.3 0 6.6 0 10 0 C10 13.2 10 26.4 10 40 C6.7 40 3.4 40 0 40 C0 26.8 0 13.6 0 0 Z " fill="#009688" transform="translate(170,350)"/>
<path d="M0 0 C13.2 0 26.4 0 40 0 C40 3.3 40 6.6 40 10 C26.8 10 13.6 10 0 10 C0 6.7 0 3.4 0 0 Z " fill="#FFFFFF" transform="translate(280,250)"/>
<path d="M0 0 C6.6 0 13.2 0 20 0 C20 6.6 20 13.2 20 20 C13.4 20 6.8 20 0 20 C0 13.4 0 6.8 0 0 Z " fill="#464646" transform="translate(290,230)"/>
<path d="M0 0 C3.3 0 6.6 0 10 0 C10 6.6 10 13.2 10 20 C3.4 20 -3.2 20 -10 20 C-10 16.7 -10 13.4 -10 10 C-6.7 10 -3.4 10 0 10 C0 6.7 0 3.4 0 0 Z " fill="#000000" transform="translate(580,570)"/>
<path d="M0 0 C3.3 0 6.6 0 10 0 C10 3.3 10 6.6 10 10 C13.3 10 16.6 10 20 10 C20 13.3 20 16.6 20 20 C13.4 20 6.8 20 0 20 C0 13.4 0 6.8 0 0 Z " fill="#000000" transform="translate(10,570)"/>
<path d="M0 0 C3.3 0 6.6 0 10 0 C10 6.6 10 13.2 10 20 C3.4 20 -3.2 20 -10 20 C-10 16.7 -10 13.4 -10 10 C-6.7 10 -3.4 10 0 10 C0 6.7 0 3.4 0 0 Z " fill="#FFFFFF" transform="translate(440,430)"/>
<path d="M0 0 C3.3 0 6.6 0 10 0 C10 3.3 10 6.6 10 10 C13.3 10 16.6 10 20 10 C20 13.3 20 16.6 20 20 C13.4 20 6.8 20 0 20 C0 13.4 0 6.8 0 0 Z " fill="#FFFFFF" transform="translate(150,430)"/>
<path d="M0 0 C9.9 0 19.8 0 30 0 C30 3.3 30 6.6 30 10 C20.1 10 10.2 10 0 10 C0 6.7 0 3.4 0 0 Z " fill="#ED1C24" transform="translate(190,390)"/>
<path d="M0 0 C9.9 0 19.8 0 30 0 C30 3.3 30 6.6 30 10 C20.1 10 10.2 10 0 10 C0 6.7 0 3.4 0 0 Z " fill="#464646" transform="translate(190,380)"/>
<path d="M0 0 C3.3 0 6.6 0 10 0 C10 9.9 10 19.8 10 30 C6.7 30 3.4 30 0 30 C0 20.1 0 10.2 0 0 Z " fill="#009688" transform="translate(310,320)"/>
<path d="M0 0 C3.3 0 6.6 0 10 0 C10 9.9 10 19.8 10 30 C6.7 30 3.4 30 0 30 C0 20.1 0 10.2 0 0 Z " fill="#009688" transform="translate(280,320)"/>
<path d="M0 0 C3.3 0 6.6 0 10 0 C10 9.9 10 19.8 10 30 C6.7 30 3.4 30 0 30 C0 20.1 0 10.2 0 0 Z " fill="#464646" transform="translate(350,250)"/>
<path d="M0 0 C3.3 0 6.6 0 10 0 C10 9.9 10 19.8 10 30 C6.7 30 3.4 30 0 30 C0 20.1 0 10.2 0 0 Z " fill="#FFFFFF" transform="translate(320,260)"/>
<path d="M0 0 C3.3 0 6.6 0 10 0 C10 9.9 10 19.8 10 30 C6.7 30 3.4 30 0 30 C0 20.1 0 10.2 0 0 Z " fill="#009688" transform="translate(310,260)"/>
<path d="M0 0 C3.3 0 6.6 0 10 0 C10 9.9 10 19.8 10 30 C6.7 30 3.4 30 0 30 C0 20.1 0 10.2 0 0 Z " fill="#FFFFFF" transform="translate(270,260)"/>
<path d="M0 0 C3.3 0 6.6 0 10 0 C10 9.9 10 19.8 10 30 C6.7 30 3.4 30 0 30 C0 20.1 0 10.2 0 0 Z " fill="#464646" transform="translate(240,250)"/>
<path d="M0 0 C3.3 0 6.6 0 10 0 C10 9.9 10 19.8 10 30 C6.7 30 3.4 30 0 30 C0 20.1 0 10.2 0 0 Z " fill="#464646" transform="translate(320,230)"/>
<path d="M0 0 C3.3 0 6.6 0 10 0 C10 9.9 10 19.8 10 30 C6.7 30 3.4 30 0 30 C0 20.1 0 10.2 0 0 Z " fill="#464646" transform="translate(270,230)"/>
<path d="M0 0 C6.6 0 13.2 0 20 0 C20 6.6 20 13.2 20 20 C16.7 20 13.4 20 10 20 C10 16.7 10 13.4 10 10 C6.7 10 3.4 10 0 10 C0 6.7 0 3.4 0 0 Z " fill="#FFFFFF" transform="translate(430,150)"/>
<path d="M0 0 C6.6 0 13.2 0 20 0 C20 3.3 20 6.6 20 10 C16.7 10 13.4 10 10 10 C10 13.3 10 16.6 10 20 C6.7 20 3.4 20 0 20 C0 13.4 0 6.8 0 0 Z " fill="#FFFFFF" transform="translate(150,150)"/>
<path d="M0 0 C6.6 0 13.2 0 20 0 C20 6.6 20 13.2 20 20 C16.7 20 13.4 20 10 20 C10 16.7 10 13.4 10 10 C6.7 10 3.4 10 0 10 C0 6.7 0 3.4 0 0 Z " fill="#000000" transform="translate(570,10)"/>
<path d="M0 0 C6.6 0 13.2 0 20 0 C20 3.3 20 6.6 20 10 C16.7 10 13.4 10 10 10 C10 13.3 10 16.6 10 20 C6.7 20 3.4 20 0 20 C0 13.4 0 6.8 0 0 Z " fill="#000000" transform="translate(10,10)"/>
<path d="M0 0 C3.3 0 6.6 0 10 0 C10 6.6 10 13.2 10 20 C6.7 20 3.4 20 0 20 C0 13.4 0 6.8 0 0 Z " fill="#FFF200" transform="translate(400,410)"/>
<path d="M0 0 C3.3 0 6.6 0 10 0 C10 6.6 10 13.2 10 20 C6.7 20 3.4 20 0 20 C0 13.4 0 6.8 0 0 Z " fill="#FFF200" transform="translate(190,410)"/>
<path d="M0 0 C6.6 0 13.2 0 20 0 C20 3.3 20 6.6 20 10 C13.4 10 6.8 10 0 10 C0 6.7 0 3.4 0 0 Z " fill="#ED1C24" transform="translate(390,390)"/>
<path d="M0 0 C3.3 0 6.6 0 10 0 C10 6.6 10 13.2 10 20 C6.7 20 3.4 20 0 20 C0 13.4 0 6.8 0 0 Z " fill="#FFF200" transform="translate(320,390)"/>
<path d="M0 0 C3.3 0 6.6 0 10 0 C10 6.6 10 13.2 10 20 C6.7 20 3.4 20 0 20 C0 13.4 0 6.8 0 0 Z " fill="#FFF200" transform="translate(270,390)"/>
<path d="M0 0 C6.6 0 13.2 0 20 0 C20 3.3 20 6.6 20 10 C13.4 10 6.8 10 0 10 C0 6.7 0 3.4 0 0 Z " fill="#464646" transform="translate(390,380)"/>
<path d="M0 0 C3.3 0 6.6 0 10 0 C10 6.6 10 13.2 10 20 C6.7 20 3.4 20 0 20 C0 13.4 0 6.8 0 0 Z " fill="#ED1C24" transform="translate(320,360)"/>
<path d="M0 0 C3.3 0 6.6 0 10 0 C10 6.6 10 13.2 10 20 C6.7 20 3.4 20 0 20 C0 13.4 0 6.8 0 0 Z " fill="#ED1C24" transform="translate(270,360)"/>
<path d="M0 0 C3.3 0 6.6 0 10 0 C10 6.6 10 13.2 10 20 C6.7 20 3.4 20 0 20 C0 13.4 0 6.8 0 0 Z " fill="#009688" transform="translate(420,320)"/>
<path d="M0 0 C3.3 0 6.6 0 10 0 C10 6.6 10 13.2 10 20 C6.7 20 3.4 20 0 20 C0 13.4 0 6.8 0 0 Z " fill="#009688" transform="translate(170,320)"/>
<path d="M0 0 C3.3 0 6.6 0 10 0 C10 6.6 10 13.2 10 20 C6.7 20 3.4 20 0 20 C0 13.4 0 6.8 0 0 Z " fill="#464646" transform="translate(410,280)"/>
<path d="M0 0 C3.3 0 6.6 0 10 0 C10 6.6 10 13.2 10 20 C6.7 20 3.4 20 0 20 C0 13.4 0 6.8 0 0 Z " fill="#464646" transform="translate(180,280)"/>
<path d="M0 0 C6.6 0 13.2 0 20 0 C20 3.3 20 6.6 20 10 C13.4 10 6.8 10 0 10 C0 6.7 0 3.4 0 0 Z " fill="#4D6DF3" transform="translate(290,270)"/>
<path d="M0 0 C6.6 0 13.2 0 20 0 C20 3.3 20 6.6 20 10 C13.4 10 6.8 10 0 10 C0 6.7 0 3.4 0 0 Z " fill="#00B7EF" transform="translate(290,260)"/>
<path d="M0 0 C6.6 0 13.2 0 20 0 C20 3.3 20 6.6 20 10 C13.4 10 6.8 10 0 10 C0 6.7 0 3.4 0 0 Z " fill="#2F3699" transform="translate(290,230)"/>
<path d="M0 0 C6.6 0 13.2 0 20 0 C20 3.3 20 6.6 20 10 C13.4 10 6.8 10 0 10 C0 6.7 0 3.4 0 0 Z " fill="#FFFFFF" transform="translate(290,180)"/>
<path d="M0 0 C6.6 0 13.2 0 20 0 C20 3.3 20 6.6 20 10 C13.4 10 6.8 10 0 10 C0 6.7 0 3.4 0 0 Z " fill="#009688" transform="translate(290,170)"/>
<path d="M0 0 C3.3 0 6.6 0 10 0 C10 3.3 10 6.6 10 10 C6.7 10 3.4 10 0 10 C0 6.7 0 3.4 0 0 Z " fill="#464646" transform="translate(410,340)"/>
<path d="M0 0 C3.3 0 6.6 0 10 0 C10 3.3 10 6.6 10 10 C6.7 10 3.4 10 0 10 C0 6.7 0 3.4 0 0 Z " fill="#FFFFFF" transform="translate(400,340)"/>
<path d="M0 0 C3.3 0 6.6 0 10 0 C10 3.3 10 6.6 10 10 C6.7 10 3.4 10 0 10 C0 6.7 0 3.4 0 0 Z " fill="#FFFFFF" transform="translate(190,340)"/>
<path d="M0 0 C3.3 0 6.6 0 10 0 C10 3.3 10 6.6 10 10 C6.7 10 3.4 10 0 10 C0 6.7 0 3.4 0 0 Z " fill="#464646" transform="translate(180,340)"/>
<path d="M0 0 C3.3 0 6.6 0 10 0 C10 3.3 10 6.6 10 10 C6.7 10 3.4 10 0 10 C0 6.7 0 3.4 0 0 Z " fill="#009688" transform="translate(410,300)"/>
<path d="M0 0 C3.3 0 6.6 0 10 0 C10 3.3 10 6.6 10 10 C6.7 10 3.4 10 0 10 C0 6.7 0 3.4 0 0 Z " fill="#009688" transform="translate(310,300)"/>
<path d="M0 0 C3.3 0 6.6 0 10 0 C10 3.3 10 6.6 10 10 C6.7 10 3.4 10 0 10 C0 6.7 0 3.4 0 0 Z " fill="#009688" transform="translate(280,300)"/>
<path d="M0 0 C3.3 0 6.6 0 10 0 C10 3.3 10 6.6 10 10 C6.7 10 3.4 10 0 10 C0 6.7 0 3.4 0 0 Z " fill="#009688" transform="translate(180,300)"/>
<path d="M0 0 C3.3 0 6.6 0 10 0 C10 3.3 10 6.6 10 10 C6.7 10 3.4 10 0 10 C0 6.7 0 3.4 0 0 Z " fill="#ED1C24" transform="translate(410,280)"/>
<path d="M0 0 C3.3 0 6.6 0 10 0 C10 3.3 10 6.6 10 10 C6.7 10 3.4 10 0 10 C0 6.7 0 3.4 0 0 Z " fill="#ED1C24" transform="translate(180,280)"/>
<path d="M0 0 C3.3 0 6.6 0 10 0 C10 3.3 10 6.6 10 10 C6.7 10 3.4 10 0 10 C0 6.7 0 3.4 0 0 Z " fill="#ED1C24" transform="translate(350,250)"/>
<path d="M0 0 C3.3 0 6.6 0 10 0 C10 3.3 10 6.6 10 10 C6.7 10 3.4 10 0 10 C0 6.7 0 3.4 0 0 Z " fill="#ED1C24" transform="translate(240,250)"/>
<path d="M0 0 C3.3 0 6.6 0 10 0 C10 3.3 10 6.6 10 10 C6.7 10 3.4 10 0 10 C0 6.7 0 3.4 0 0 Z " fill="#FFFFFF" transform="translate(310,190)"/>
<path d="M0 0 C3.3 0 6.6 0 10 0 C10 3.3 10 6.6 10 10 C6.7 10 3.4 10 0 10 C0 6.7 0 3.4 0 0 Z " fill="#FFFFFF" transform="translate(280,190)"/>
</svg>
