<?xml version="1.0" encoding="UTF-8"?>
<svg version="1.1" xmlns="http://www.w3.org/2000/svg" width="256" height="200">
<path d="M0 0 C7.92 0 15.84 0 24 0 C24 7.92 24 15.84 24 24 C45.12 24 66.24 24 88 24 C88 16.08 88 8.16 88 0 C95.92 0 103.84 0 112 0 C112 7.92 112 15.84 112 24 C119.92 24 127.84 24 136 24 C136 31.92 136 39.84 136 48 C143.92 48 151.84 48 160 48 C160 55.92 160 63.84 160 72 C167.92 72 175.84 72 184 72 C184 98.4 184 124.8 184 152 C176.08 152 168.16 152 160 152 C160 136.16 160 120.32 160 104 C152.08 104 144.16 104 136 104 C136 119.84 136 135.68 136 152 C128.08 152 120.16 152 112 152 C112 144.08 112 136.16 112 128 C75.04 128 38.08 128 0 128 C0 135.92 0 143.84 0 152 C-7.92 152 -15.84 152 -24 152 C-24 136.16 -24 120.32 -24 104 C-31.92 104 -39.84 104 -48 104 C-48 119.84 -48 135.68 -48 152 C-55.92 152 -63.84 152 -72 152 C-72 125.6 -72 99.2 -72 72 C-64.08 72 -56.16 72 -48 72 C-48 64.08 -48 56.16 -48 48 C-40.08 48 -32.16 48 -24 48 C-24 40.08 -24 32.16 -24 24 C-16.08 24 -8.16 24 0 24 C0 16.08 0 8.16 0 0 Z M0 48 C0 55.92 0 63.84 0 72 C7.92 72 15.84 72 24 72 C24 64.08 24 56.16 24 48 C16.08 48 8.16 48 0 48 Z M88 48 C88 55.92 88 63.84 88 72 C95.92 72 103.84 72 112 72 C112 64.08 112 56.16 112 48 C104.08 48 96.16 48 88 48 Z " fill="#6F3198" transform="translate(72,24)"/>
<path d="M0 0 C15.84 0 31.68 0 48 0 C48 7.92 48 15.84 48 24 C32.16 24 16.32 24 0 24 C0 16.08 0 8.16 0 0 Z " fill="#6F3198" transform="translate(136,176)"/>
<path d="M0 0 C15.84 0 31.68 0 48 0 C48 7.92 48 15.84 48 24 C32.16 24 16.32 24 0 24 C0 16.08 0 8.16 0 0 Z " fill="#6F3198" transform="translate(72,176)"/>
<path d="M0 0 C7.92 0 15.84 0 24 0 C24 7.92 24 15.84 24 24 C16.08 24 8.16 24 0 24 C0 16.08 0 8.16 0 0 Z " fill="#6F3198" transform="translate(184,0)"/>
<path d="M0 0 C7.92 0 15.84 0 24 0 C24 7.92 24 15.84 24 24 C16.08 24 8.16 24 0 24 C0 16.08 0 8.16 0 0 Z " fill="#6F3198" transform="translate(48,0)"/>
</svg>
