<?xml version="1.0" encoding="UTF-8"?>
<svg version="1.1" xmlns="http://www.w3.org/2000/svg" width="256" height="256">
<path d="M0 0 C7.26 0 14.52 0 22 0 C22 6.93 22 13.86 22 21 C25.3 21 28.6 21 32 21 C32 31.56 32 42.12 32 53 C35.63 53 39.26 53 43 53 C43 63.56 43 74.12 43 85 C46.63 85 50.26 85 54 85 C54 88.63 54 92.26 54 96 C57.3 96 60.6 96 64 96 C64 89.07 64 82.14 64 75 C67.63 75 71.26 75 75 75 C75 85.56 75 96.12 75 107 C78.63 107 82.26 107 86 107 C86 110.3 86 113.6 86 117 C89.3 117 92.6 117 96 117 C96 120.63 96 124.26 96 128 C103.26 128 110.52 128 118 128 C118 121.07 118 114.14 118 107 C121.3 107 124.6 107 128 107 C128 120.86 128 134.72 128 149 C131.63 149 135.26 149 139 149 C139 156.26 139 163.52 139 171 C135.37 171 131.74 171 128 171 C128 174.3 128 177.6 128 181 C131.63 181 135.26 181 139 181 C139 191.56 139 202.12 139 213 C135.37 213 131.74 213 128 213 C128 209.7 128 206.4 128 203 C124.7 203 121.4 203 118 203 C118 209.93 118 216.86 118 224 C110.74 224 103.48 224 96 224 C96 213.44 96 202.88 96 192 C92.7 192 89.4 192 86 192 C86 188.37 86 184.74 86 181 C78.74 181 71.48 181 64 181 C64 177.7 64 174.4 64 171 C57.07 171 50.14 171 43 171 C43 181.56 43 192.12 43 203 C39.37 203 35.74 203 32 203 C32 195.74 32 188.48 32 181 C28.7 181 25.4 181 22 181 C22 174.07 22 167.14 22 160 C14.74 160 7.48 160 0 160 C0 166.93 0 173.86 0 181 C-3.3 181 -6.6 181 -10 181 C-10 188.26 -10 195.52 -10 203 C-13.63 203 -17.26 203 -21 203 C-21 192.44 -21 181.88 -21 171 C-27.93 171 -34.86 171 -42 171 C-42 174.3 -42 177.6 -42 181 C-49.26 181 -56.52 181 -64 181 C-64 184.63 -64 188.26 -64 192 C-67.3 192 -70.6 192 -74 192 C-74 202.56 -74 213.12 -74 224 C-81.26 224 -88.52 224 -96 224 C-96 217.07 -96 210.14 -96 203 C-99.3 203 -102.6 203 -106 203 C-106 206.3 -106 209.6 -106 213 C-109.63 213 -113.26 213 -117 213 C-117 202.44 -117 191.88 -117 181 C-113.37 181 -109.74 181 -106 181 C-106 177.7 -106 174.4 -106 171 C-109.63 171 -113.26 171 -117 171 C-117 163.74 -117 156.48 -117 149 C-113.37 149 -109.74 149 -106 149 C-106 135.14 -106 121.28 -106 107 C-102.7 107 -99.4 107 -96 107 C-96 113.93 -96 120.86 -96 128 C-88.74 128 -81.48 128 -74 128 C-74 124.37 -74 120.74 -74 117 C-70.7 117 -67.4 117 -64 117 C-64 113.7 -64 110.4 -64 107 C-60.37 107 -56.74 107 -53 107 C-53 96.44 -53 85.88 -53 75 C-49.37 75 -45.74 75 -42 75 C-42 81.93 -42 88.86 -42 96 C-38.7 96 -35.4 96 -32 96 C-32 92.37 -32 88.74 -32 85 C-28.37 85 -24.74 85 -21 85 C-21 74.44 -21 63.88 -21 53 C-17.37 53 -13.74 53 -10 53 C-10 42.44 -10 31.88 -10 21 C-6.7 21 -3.4 21 0 21 C0 14.07 0 7.14 0 0 Z " fill="#009688" transform="translate(117,0)"/>
<path d="M0 0 C3.63 0 7.26 0 11 0 C11 3.3 11 6.6 11 10 C14.63 10 18.26 10 22 10 C22 13.63 22 17.26 22 21 C25.3 21 28.6 21 32 21 C32 24.63 32 28.26 32 32 C39.26 32 46.52 32 54 32 C54 28.37 54 24.74 54 21 C57.3 21 60.6 21 64 21 C64 17.37 64 13.74 64 10 C67.63 10 71.26 10 75 10 C75 6.7 75 3.4 75 0 C78.63 0 82.26 0 86 0 C86 3.3 86 6.6 86 10 C89.3 10 92.6 10 96 10 C96 13.63 96 17.26 96 21 C103.26 21 110.52 21 118 21 C118 24.63 118 28.26 118 32 C121.3 32 124.6 32 128 32 C128 42.56 128 53.12 128 64 C124.7 64 121.4 64 118 64 C118 60.37 118 56.74 118 53 C103.81 53 89.62 53 75 53 C75 67.19 75 81.38 75 96 C71.37 96 67.74 96 64 96 C64 88.74 64 81.48 64 74 C60.7 74 57.4 74 54 74 C54 67.07 54 60.14 54 53 C46.74 53 39.48 53 32 53 C32 59.93 32 66.86 32 74 C28.7 74 25.4 74 22 74 C22 81.26 22 88.52 22 96 C18.37 96 14.74 96 11 96 C11 81.81 11 67.62 11 53 C-3.19 53 -17.38 53 -32 53 C-32 56.63 -32 60.26 -32 64 C-35.3 64 -38.6 64 -42 64 C-42 53.44 -42 42.88 -42 32 C-38.7 32 -35.4 32 -32 32 C-32 28.37 -32 24.74 -32 21 C-24.74 21 -17.48 21 -10 21 C-10 17.37 -10 13.74 -10 10 C-6.7 10 -3.4 10 0 10 C0 6.7 0 3.4 0 0 Z " fill="#464646" transform="translate(85,107)"/>
<path d="M0 0 C3.63 0 7.26 0 11 0 C11 10.56 11 21.12 11 32 C14.63 32 18.26 32 22 32 C22 35.3 22 38.6 22 42 C25.3 42 28.6 42 32 42 C32 45.63 32 49.26 32 53 C39.26 53 46.52 53 54 53 C54 46.07 54 39.14 54 32 C57.3 32 60.6 32 64 32 C64 45.86 64 59.72 64 74 C67.63 74 71.26 74 75 74 C75 81.26 75 88.52 75 96 C71.37 96 67.74 96 64 96 C64 99.3 64 102.6 64 106 C67.63 106 71.26 106 75 106 C75 116.56 75 127.12 75 138 C71.37 138 67.74 138 64 138 C64 134.7 64 131.4 64 128 C60.7 128 57.4 128 54 128 C54 134.93 54 141.86 54 149 C46.74 149 39.48 149 32 149 C32 138.44 32 127.88 32 117 C28.7 117 25.4 117 22 117 C22 113.37 22 109.74 22 106 C14.74 106 7.48 106 0 106 C0 102.7 0 99.4 0 96 C-6.93 96 -13.86 96 -21 96 C-21 92.37 -21 88.74 -21 85 C-6.81 85 7.38 85 22 85 C22 88.63 22 92.26 22 96 C25.3 96 28.6 96 32 96 C32 85.44 32 74.88 32 64 C28.7 64 25.4 64 22 64 C22 60.37 22 56.74 22 53 C14.74 53 7.48 53 0 53 C0 49.37 0 45.74 0 42 C-3.3 42 -6.6 42 -10 42 C-10 38.7 -10 35.4 -10 32 C-13.63 32 -17.26 32 -21 32 C-21 24.74 -21 17.48 -21 10 C-17.37 10 -13.74 10 -10 10 C-10 13.63 -10 17.26 -10 21 C-6.7 21 -3.4 21 0 21 C0 14.07 0 7.14 0 0 Z " fill="#009688" transform="translate(181,75)"/>
<path d="M0 0 C7.26 0 14.52 0 22 0 C22 6.93 22 13.86 22 21 C25.3 21 28.6 21 32 21 C32 31.56 32 42.12 32 53 C35.63 53 39.26 53 43 53 C43 74.12 43 95.24 43 117 C39.37 117 35.74 117 32 117 C32 120.63 32 124.26 32 128 C28.7 128 25.4 128 22 128 C22 131.63 22 135.26 22 139 C14.74 139 7.48 139 0 139 C0 135.37 0 131.74 0 128 C-3.3 128 -6.6 128 -10 128 C-10 124.37 -10 120.74 -10 117 C0.56 117 11.12 117 22 117 C22 110.07 22 103.14 22 96 C14.74 96 7.48 96 0 96 C0 92.37 0 88.74 0 85 C-6.93 85 -13.86 85 -21 85 C-21 74.44 -21 63.88 -21 53 C-17.37 53 -13.74 53 -10 53 C-10 42.44 -10 31.88 -10 21 C-6.7 21 -3.4 21 0 21 C0 14.07 0 7.14 0 0 Z " fill="#009688" transform="translate(117,0)"/>
<path d="M0 0 C3.3 0 6.6 0 10 0 C10 13.86 10 27.72 10 42 C13.63 42 17.26 42 21 42 C21 49.26 21 56.52 21 64 C17.37 64 13.74 64 10 64 C10 67.3 10 70.6 10 74 C13.63 74 17.26 74 21 74 C21 84.56 21 95.12 21 106 C17.37 106 13.74 106 10 106 C10 102.7 10 99.4 10 96 C3.07 96 -3.86 96 -11 96 C-11 92.37 -11 88.74 -11 85 C-7.37 85 -3.74 85 0 85 C0 81.37 0 77.74 0 74 C-3.63 74 -7.26 74 -11 74 C-11 70.7 -11 67.4 -11 64 C-7.37 64 -3.74 64 0 64 C0 60.37 0 56.74 0 53 C-3.63 53 -7.26 53 -11 53 C-11 42.44 -11 31.88 -11 21 C-7.37 21 -3.74 21 0 21 C0 14.07 0 7.14 0 0 Z " fill="#FFFFFF" transform="translate(235,107)"/>
<path d="M0 0 C3.3 0 6.6 0 10 0 C10 6.93 10 13.86 10 21 C13.63 21 17.26 21 21 21 C21 31.56 21 42.12 21 53 C17.37 53 13.74 53 10 53 C10 56.63 10 60.26 10 64 C13.63 64 17.26 64 21 64 C21 67.3 21 70.6 21 74 C17.37 74 13.74 74 10 74 C10 77.63 10 81.26 10 85 C13.63 85 17.26 85 21 85 C21 88.63 21 92.26 21 96 C14.07 96 7.14 96 0 96 C0 99.3 0 102.6 0 106 C-3.63 106 -7.26 106 -11 106 C-11 95.44 -11 84.88 -11 74 C-7.37 74 -3.74 74 0 74 C0 70.7 0 67.4 0 64 C-3.63 64 -7.26 64 -11 64 C-11 56.74 -11 49.48 -11 42 C-7.37 42 -3.74 42 0 42 C0 28.14 0 14.28 0 0 Z " fill="#FFFFFF" transform="translate(11,107)"/>
<path d="M0 0 C13.86 0 27.72 0 42 0 C42 3.3 42 6.6 42 10 C45.63 10 49.26 10 53 10 C53 20.56 53 31.12 53 42 C49.37 42 45.74 42 42 42 C42 45.63 42 49.26 42 53 C38.7 53 35.4 53 32 53 C32 56.63 32 60.26 32 64 C24.74 64 17.48 64 10 64 C10 60.37 10 56.74 10 53 C6.7 53 3.4 53 0 53 C0 49.37 0 45.74 0 42 C10.56 42 21.12 42 32 42 C32 35.07 32 28.14 32 21 C24.74 21 17.48 21 10 21 C10 17.37 10 13.74 10 10 C6.7 10 3.4 10 0 10 C0 6.7 0 3.4 0 0 Z " fill="#009688" transform="translate(107,75)"/>
<path d="M0 0 C7.26 0 14.52 0 22 0 C22 6.93 22 13.86 22 21 C25.3 21 28.6 21 32 21 C32 24.63 32 28.26 32 32 C28.7 32 25.4 32 22 32 C22 38.93 22 45.86 22 53 C14.74 53 7.48 53 0 53 C0 46.07 0 39.14 0 32 C-3.3 32 -6.6 32 -10 32 C-10 28.37 -10 24.74 -10 21 C-6.7 21 -3.4 21 0 21 C0 14.07 0 7.14 0 0 Z " fill="#00B7EF" transform="translate(117,0)"/>
<path d="M0 0 C6.93 0 13.86 0 21 0 C21 3.63 21 7.26 21 11 C28.26 11 35.52 11 43 11 C43 17.93 43 24.86 43 32 C28.81 32 14.62 32 0 32 C0 21.44 0 10.88 0 0 Z " fill="#009688" transform="translate(96,85)"/>
<path d="M0 0 C3.3 0 6.6 0 10 0 C10 6.93 10 13.86 10 21 C13.63 21 17.26 21 21 21 C21 31.56 21 42.12 21 53 C17.37 53 13.74 53 10 53 C10 49.7 10 46.4 10 43 C6.7 43 3.4 43 0 43 C0 28.81 0 14.62 0 0 Z " fill="#009688" transform="translate(139,32)"/>
<path d="M0 0 C13.86 0 27.72 0 42 0 C42 3.63 42 7.26 42 11 C38.7 11 35.4 11 32 11 C32 14.63 32 18.26 32 22 C24.74 22 17.48 22 10 22 C10 18.37 10 14.74 10 11 C6.7 11 3.4 11 0 11 C0 7.37 0 3.74 0 0 Z " fill="#FFFFFF" transform="translate(107,117)"/>
<path d="M0 0 C7.26 0 14.52 0 22 0 C22 7.26 22 14.52 22 22 C14.74 22 7.48 22 0 22 C0 14.74 0 7.48 0 0 Z " fill="#464646" transform="translate(117,53)"/>
<path d="M0 0 C7.26 0 14.52 0 22 0 C22 6.93 22 13.86 22 21 C14.74 21 7.48 21 0 21 C0 14.07 0 7.14 0 0 Z " fill="#4D6DF3" transform="translate(117,32)"/>
<path d="M0 0 C13.86 0 27.72 0 42 0 C42 3.3 42 6.6 42 10 C28.14 10 14.28 10 0 10 C0 6.7 0 3.4 0 0 Z " fill="#FFFFFF" transform="translate(107,75)"/>
<path d="M0 0 C3.63 0 7.26 0 11 0 C11 10.56 11 21.12 11 32 C7.37 32 3.74 32 0 32 C0 21.44 0 10.88 0 0 Z " fill="#009688" transform="translate(245,181)"/>
<path d="M0 0 C3.63 0 7.26 0 11 0 C11 10.56 11 21.12 11 32 C7.37 32 3.74 32 0 32 C0 21.44 0 10.88 0 0 Z " fill="#009688" transform="translate(0,181)"/>
<path d="M0 0 C3.63 0 7.26 0 11 0 C11 10.56 11 21.12 11 32 C7.37 32 3.74 32 0 32 C0 21.44 0 10.88 0 0 Z " fill="#464646" transform="translate(181,75)"/>
<path d="M0 0 C3.63 0 7.26 0 11 0 C11 10.56 11 21.12 11 32 C7.37 32 3.74 32 0 32 C0 21.44 0 10.88 0 0 Z " fill="#FFFFFF" transform="translate(149,85)"/>
<path d="M0 0 C3.63 0 7.26 0 11 0 C11 10.56 11 21.12 11 32 C7.37 32 3.74 32 0 32 C0 21.44 0 10.88 0 0 Z " fill="#FFFFFF" transform="translate(96,85)"/>
<path d="M0 0 C3.63 0 7.26 0 11 0 C11 10.56 11 21.12 11 32 C7.37 32 3.74 32 0 32 C0 21.44 0 10.88 0 0 Z " fill="#464646" transform="translate(64,75)"/>
<path d="M0 0 C3.63 0 7.26 0 11 0 C11 10.56 11 21.12 11 32 C7.37 32 3.74 32 0 32 C0 21.44 0 10.88 0 0 Z " fill="#464646" transform="translate(149,53)"/>
<path d="M0 0 C3.63 0 7.26 0 11 0 C11 10.56 11 21.12 11 32 C7.37 32 3.74 32 0 32 C0 21.44 0 10.88 0 0 Z " fill="#464646" transform="translate(96,53)"/>
<path d="M0 0 C3.3 0 6.6 0 10 0 C10 7.26 10 14.52 10 22 C3.07 22 -3.86 22 -11 22 C-11 18.37 -11 14.74 -11 11 C-7.37 11 -3.74 11 0 11 C0 7.37 0 3.74 0 0 Z " fill="#FFFFFF" transform="translate(235,181)"/>
<path d="M0 0 C3.3 0 6.6 0 10 0 C10 3.63 10 7.26 10 11 C13.63 11 17.26 11 21 11 C21 14.63 21 18.26 21 22 C14.07 22 7.14 22 0 22 C0 14.74 0 7.48 0 0 Z " fill="#FFFFFF" transform="translate(11,181)"/>
<path d="M0 0 C3.3 0 6.6 0 10 0 C10 10.56 10 21.12 10 32 C6.7 32 3.4 32 0 32 C0 21.44 0 10.88 0 0 Z " fill="#009688" transform="translate(139,149)"/>
<path d="M0 0 C3.3 0 6.6 0 10 0 C10 10.56 10 21.12 10 32 C6.7 32 3.4 32 0 32 C0 21.44 0 10.88 0 0 Z " fill="#009688" transform="translate(107,149)"/>
<path d="M0 0 C3.3 0 6.6 0 10 0 C10 10.56 10 21.12 10 32 C6.7 32 3.4 32 0 32 C0 21.44 0 10.88 0 0 Z " fill="#464646" transform="translate(235,107)"/>
<path d="M0 0 C3.3 0 6.6 0 10 0 C10 10.56 10 21.12 10 32 C6.7 32 3.4 32 0 32 C0 21.44 0 10.88 0 0 Z " fill="#464646" transform="translate(11,107)"/>
<path d="M0 0 C7.26 0 14.52 0 22 0 C22 3.63 22 7.26 22 11 C14.74 11 7.48 11 0 11 C0 7.37 0 3.74 0 0 Z " fill="#ED1C24" transform="translate(213,213)"/>
<path d="M0 0 C3.63 0 7.26 0 11 0 C11 7.26 11 14.52 11 22 C7.37 22 3.74 22 0 22 C0 14.74 0 7.48 0 0 Z " fill="#FFF200" transform="translate(149,213)"/>
<path d="M0 0 C3.63 0 7.26 0 11 0 C11 7.26 11 14.52 11 22 C7.37 22 3.74 22 0 22 C0 14.74 0 7.48 0 0 Z " fill="#FFF200" transform="translate(96,213)"/>
<path d="M0 0 C7.26 0 14.52 0 22 0 C22 3.63 22 7.26 22 11 C14.74 11 7.48 11 0 11 C0 7.37 0 3.74 0 0 Z " fill="#ED1C24" transform="translate(21,213)"/>
<path d="M0 0 C3.63 0 7.26 0 11 0 C11 7.26 11 14.52 11 22 C7.37 22 3.74 22 0 22 C0 14.74 0 7.48 0 0 Z " fill="#009688" transform="translate(245,149)"/>
<path d="M0 0 C3.63 0 7.26 0 11 0 C11 7.26 11 14.52 11 22 C7.37 22 3.74 22 0 22 C0 14.74 0 7.48 0 0 Z " fill="#009688" transform="translate(0,149)"/>
<path d="M0 0 C7.26 0 14.52 0 22 0 C22 3.63 22 7.26 22 11 C14.74 11 7.48 11 0 11 C0 7.37 0 3.74 0 0 Z " fill="#4D6DF3" transform="translate(117,96)"/>
<path d="M0 0 C7.26 0 14.52 0 22 0 C22 3.63 22 7.26 22 11 C14.74 11 7.48 11 0 11 C0 7.37 0 3.74 0 0 Z " fill="#00B7EF" transform="translate(117,85)"/>
<path d="M0 0 C7.26 0 14.52 0 22 0 C22 3.63 22 7.26 22 11 C14.74 11 7.48 11 0 11 C0 7.37 0 3.74 0 0 Z " fill="#2F3699" transform="translate(117,53)"/>
<path d="M0 0 C7.26 0 14.52 0 22 0 C22 3.63 22 7.26 22 11 C14.74 11 7.48 11 0 11 C0 7.37 0 3.74 0 0 Z " fill="#009688" transform="translate(117,0)"/>
<path d="M0 0 C3.63 0 7.26 0 11 0 C11 6.93 11 13.86 11 21 C7.37 21 3.74 21 0 21 C0 14.07 0 7.14 0 0 Z " fill="#FFF200" transform="translate(224,235)"/>
<path d="M0 0 C3.63 0 7.26 0 11 0 C11 6.93 11 13.86 11 21 C7.37 21 3.74 21 0 21 C0 14.07 0 7.14 0 0 Z " fill="#FFF200" transform="translate(21,235)"/>
<path d="M0 0 C7.26 0 14.52 0 22 0 C22 3.3 22 6.6 22 10 C14.74 10 7.48 10 0 10 C0 6.7 0 3.4 0 0 Z " fill="#464646" transform="translate(213,203)"/>
<path d="M0 0 C7.26 0 14.52 0 22 0 C22 3.3 22 6.6 22 10 C14.74 10 7.48 10 0 10 C0 6.7 0 3.4 0 0 Z " fill="#464646" transform="translate(21,203)"/>
<path d="M0 0 C7.26 0 14.52 0 22 0 C22 3.3 22 6.6 22 10 C14.74 10 7.48 10 0 10 C0 6.7 0 3.4 0 0 Z " fill="#2F3699" transform="translate(117,107)"/>
<path d="M0 0 C7.26 0 14.52 0 22 0 C22 3.3 22 6.6 22 10 C14.74 10 7.48 10 0 10 C0 6.7 0 3.4 0 0 Z " fill="#FFFFFF" transform="translate(117,11)"/>
<path d="M0 0 C3.63 0 7.26 0 11 0 C11 3.63 11 7.26 11 11 C7.37 11 3.74 11 0 11 C0 7.37 0 3.74 0 0 Z " fill="#ED1C24" transform="translate(149,192)"/>
<path d="M0 0 C3.63 0 7.26 0 11 0 C11 3.63 11 7.26 11 11 C7.37 11 3.74 11 0 11 C0 7.37 0 3.74 0 0 Z " fill="#ED1C24" transform="translate(96,192)"/>
<path d="M0 0 C3.63 0 7.26 0 11 0 C11 3.3 11 6.6 11 10 C7.37 10 3.74 10 0 10 C0 6.7 0 3.4 0 0 Z " fill="#FFFFFF" transform="translate(224,171)"/>
<path d="M0 0 C3.63 0 7.26 0 11 0 C11 3.3 11 6.6 11 10 C7.37 10 3.74 10 0 10 C0 6.7 0 3.4 0 0 Z " fill="#FFFFFF" transform="translate(21,171)"/>
<path d="M0 0 C3.3 0 6.6 0 10 0 C10 3.63 10 7.26 10 11 C6.7 11 3.4 11 0 11 C0 7.37 0 3.74 0 0 Z " fill="#009688" transform="translate(235,128)"/>
<path d="M0 0 C3.3 0 6.6 0 10 0 C10 3.63 10 7.26 10 11 C6.7 11 3.4 11 0 11 C0 7.37 0 3.74 0 0 Z " fill="#009688" transform="translate(139,128)"/>
<path d="M0 0 C3.3 0 6.6 0 10 0 C10 3.63 10 7.26 10 11 C6.7 11 3.4 11 0 11 C0 7.37 0 3.74 0 0 Z " fill="#009688" transform="translate(107,128)"/>
<path d="M0 0 C3.3 0 6.6 0 10 0 C10 3.63 10 7.26 10 11 C6.7 11 3.4 11 0 11 C0 7.37 0 3.74 0 0 Z " fill="#009688" transform="translate(11,128)"/>
<path d="M0 0 C3.63 0 7.26 0 11 0 C11 3.3 11 6.6 11 10 C7.37 10 3.74 10 0 10 C0 6.7 0 3.4 0 0 Z " fill="#ED1C24" transform="translate(181,75)"/>
<path d="M0 0 C3.63 0 7.26 0 11 0 C11 3.3 11 6.6 11 10 C7.37 10 3.74 10 0 10 C0 6.7 0 3.4 0 0 Z " fill="#ED1C24" transform="translate(64,75)"/>
<path d="M0 0 C3.3 0 6.6 0 10 0 C10 3.63 10 7.26 10 11 C6.7 11 3.4 11 0 11 C0 7.37 0 3.74 0 0 Z " fill="#FFFFFF" transform="translate(139,21)"/>
<path d="M0 0 C3.3 0 6.6 0 10 0 C10 3.63 10 7.26 10 11 C6.7 11 3.4 11 0 11 C0 7.37 0 3.74 0 0 Z " fill="#FFFFFF" transform="translate(107,21)"/>
<path d="M0 0 C3.3 0 6.6 0 10 0 C10 3.3 10 6.6 10 10 C6.7 10 3.4 10 0 10 C0 6.7 0 3.4 0 0 Z " fill="#464646" transform="translate(235,171)"/>
<path d="M0 0 C3.3 0 6.6 0 10 0 C10 3.3 10 6.6 10 10 C6.7 10 3.4 10 0 10 C0 6.7 0 3.4 0 0 Z " fill="#464646" transform="translate(11,171)"/>
<path d="M0 0 C3.3 0 6.6 0 10 0 C10 3.3 10 6.6 10 10 C6.7 10 3.4 10 0 10 C0 6.7 0 3.4 0 0 Z " fill="#ED1C24" transform="translate(235,107)"/>
<path d="M0 0 C3.3 0 6.6 0 10 0 C10 3.3 10 6.6 10 10 C6.7 10 3.4 10 0 10 C0 6.7 0 3.4 0 0 Z " fill="#ED1C24" transform="translate(11,107)"/>
</svg>
